{"asset":{"version":"2.0","generator":"THREE.GLTFExporter"},"scenes":[{"nodes":[0]}],"scene":0,"nodes":[{"matrix":[0.009999999776482582,0,0,0,0,-1.3435885354592524e-9,0.009999999434197103,0,0,-0.009999999434197103,-1.3435885354592524e-9,0,-0.00091552734375,0.0004930281429551542,0.000254979298915714,1],"name":"网格.069_8","mesh":0}],"bufferViews":[{"buffer":0,"byteOffset":0,"byteLength":720,"target":34962,"byteStride":12},{"buffer":0,"byteOffset":720,"byteLength":720,"target":34962,"byteStride":12},{"buffer":0,"byteOffset":1440,"byteLength":480,"target":34962,"byteStride":8},{"buffer":0,"byteOffset":1920,"byteLength":192,"target":34963}],"buffers":[{"byteLength":2112,"uri":"data:application/octet-stream;base64,"}],"accessors":[{"bufferView":0,"componentType":5126,"count":60,"max":[45848.1875,13432.4521484375,-773.2445678710938],"min":[41415.19140625,11111.7373046875,-1336.0462646484375],"type":"VEC3"},{"bufferView":1,"componentType":5126,"count":60,"max":[0.97652268409729,0.9765225052833557,0],"min":[-0.9765228629112244,-0.21541501581668854,-1.0000001192092896],"type":"VEC3"},{"bufferView":2,"componentType":5126,"count":60,"max":[0.9460781812667847,0.9980079531669617],"min":[-0.7402105927467346,0.05711865425109863],"type":"VEC2"},{"bufferView":3,"componentType":5123,"count":96,"max":[59],"min":[0],"type":"SCALAR"}],"materials":[{"pbrMetallicRoughness":{"baseColorFactor":[0.6235294117647059,0.6274509803921569,0.6235294117647059,1],"metallicFactor":0,"roughnessFactor":1}}],"meshes":[{"primitives":[{"mode":4,"attributes":{"POSITION":0,"NORMAL":1,"TEXCOORD_0":2},"indices":3,"material":0}]}]}