{"asset":{"version":"2.0","generator":"THREE.GLTFExporter"},"scenes":[{"nodes":[0]}],"scene":0,"nodes":[{"matrix":[0.009999999776482582,0,0,0,0,-1.3435885354592524e-9,0.009999999434197103,0,0,-0.009999999434197103,-1.3435885354592524e-9,0,-0.00091552734375,0.0004930281429551542,0.000254979298915714,1],"name":"网格.069_5","mesh":0}],"bufferViews":[{"buffer":0,"byteOffset":0,"byteLength":1152,"target":34962,"byteStride":12},{"buffer":0,"byteOffset":1152,"byteLength":1152,"target":34962,"byteStride":12},{"buffer":0,"byteOffset":2304,"byteLength":768,"target":34962,"byteStride":8},{"buffer":0,"byteOffset":3072,"byteLength":324,"target":34963}],"buffers":[{"byteLength":3396,"uri":"data:application/octet-stream;base64,"}],"accessors":[{"bufferView":0,"componentType":5126,"count":96,"max":[34961.82421875,14440.6435546875,-12.631729125976562],"min":[33687.4921875,12933.8115234375,-6797.080078125],"type":"VEC3"},{"bufferView":1,"componentType":5126,"count":96,"max":[0.9766117930412292,0.9766116738319397,0.0000113762234832393],"min":[-0.9766131043434143,-0.9766110777854919,-1],"type":"VEC3"},{"bufferView":2,"componentType":5126,"count":96,"max":[0.5864619016647339,0.9995039701461792],"min":[0.049744077026844025,-0.0001291036605834961],"type":"VEC2"},{"bufferView":3,"componentType":5123,"count":162,"max":[95],"min":[0],"type":"SCALAR"}],"materials":[{"pbrMetallicRoughness":{"baseColorFactor":[0.8549019607843137,0.8588235294117647,0.8588235294117647,1],"metallicFactor":0,"roughnessFactor":1}}],"meshes":[{"primitives":[{"mode":4,"attributes":{"POSITION":0,"NORMAL":1,"TEXCOORD_0":2},"indices":3,"material":0}]}]}