{"asset":{"version":"2.0","generator":"THREE.GLTFExporter"},"scenes":[{"nodes":[0]}],"scene":0,"nodes":[{"matrix":[0.009999999776482582,0,0,0,0,-1.3435885354592524e-9,0.009999999434197103,0,0,-0.009999999434197103,-1.3435885354592524e-9,0,-0.00011444091796875,-0.000033873562642838806,0.00018303212709724903,1],"name":"人行道护栏","extras":{"name":"人行道护栏"},"mesh":0}],"bufferViews":[{"buffer":0,"byteOffset":0,"byteLength":3264,"target":34962,"byteStride":12},{"buffer":0,"byteOffset":3264,"byteLength":3264,"target":34962,"byteStride":12},{"buffer":0,"byteOffset":6528,"byteLength":2176,"target":34962,"byteStride":8},{"buffer":0,"byteOffset":8704,"byteLength":1056,"target":34963}],"buffers":[{"byteLength":9760,"uri":"data:application/octet-stream;base64,"}],"accessors":[{"bufferView":0,"componentType":5126,"count":272,"max":[13984.6259765625,21949.41015625,-15.181365966796875],"min":[1006.7049560546875,5020.1845703125,-107.87550354003906],"type":"VEC3"},{"bufferView":1,"componentType":5126,"count":272,"max":[1,1,1],"min":[-1,-1,-1],"type":"VEC3"},{"bufferView":2,"componentType":5126,"count":272,"max":[0.5167453289031982,17.01416015625],"min":[0.06646423786878586,-16.02383041381836],"type":"VEC2"},{"bufferView":3,"componentType":5123,"count":528,"max":[271],"min":[0],"type":"SCALAR"}],"materials":[{"pbrMetallicRoughness":{"baseColorFactor":[0.21176470588235294,0.21176470588235294,0.2235294117647059,1],"metallicFactor":0,"roughnessFactor":1}}],"meshes":[{"primitives":[{"mode":4,"attributes":{"POSITION":0,"NORMAL":1,"TEXCOORD_0":2},"indices":3,"material":0}]}]}