{"asset":{"version":"2.0","generator":"THREE.GLTFExporter"},"scenes":[{"nodes":[0]}],"scene":0,"nodes":[{"matrix":[0.009999999776482582,0,0,0,0,-1.3435885354592524e-9,0.009999999434197103,0,0,-0.009999999434197103,-1.3435885354592524e-9,0,0.000034332275390625,0.0002360051148571074,-0.00006993444549152628,1],"name":"网格.051_2","mesh":0}],"bufferViews":[{"buffer":0,"byteOffset":0,"byteLength":6984,"target":34962,"byteStride":12},{"buffer":0,"byteOffset":6984,"byteLength":6984,"target":34962,"byteStride":12},{"buffer":0,"byteOffset":13968,"byteLength":4656,"target":34962,"byteStride":8},{"buffer":0,"byteOffset":18624,"byteLength":2052,"target":34963}],"buffers":[{"byteLength":20676,"uri":"data:application/octet-stream;base64,"}],"accessors":[{"bufferView":0,"componentType":5126,"count":582,"max":[4671.42138671875,30868.7578125,-800.310302734375],"min":[-666.166015625,25024.12109375,-5878.99609375],"type":"VEC3"},{"bufferView":1,"componentType":5126,"count":582,"max":[0.9999929070472717,0.999992847442627,0],"min":[-0.999992847442627,-0.999992847442627,-1],"type":"VEC3"},{"bufferView":2,"componentType":5126,"count":582,"max":[0.9822219610214233,0.8358019590377808],"min":[0.000746285542845726,0.000854790210723877],"type":"VEC2"},{"bufferView":3,"componentType":5123,"count":1026,"max":[581],"min":[0],"type":"SCALAR"}],"materials":[{"pbrMetallicRoughness":{"baseColorFactor":[0.38823529411764707,0.3803921568627451,0.36470588235294116,1],"metallicFactor":0,"roughnessFactor":1}}],"meshes":[{"primitives":[{"mode":4,"attributes":{"POSITION":0,"NORMAL":1,"TEXCOORD_0":2},"indices":3,"material":0}]}]}