{"asset":{"version":"2.0","generator":"THREE.GLTFExporter"},"scenes":[{"nodes":[0]}],"scene":0,"nodes":[{"matrix":[0.009999999776482582,0,0,0,0,-1.3435885354592524e-9,0.009999999434197103,0,0,-0.009999999434197103,-1.3435885354592524e-9,0,0.000034332275390625,0.0002360051148571074,-0.00006993444549152628,1],"name":"网格051","mesh":0}],"bufferViews":[{"buffer":0,"byteOffset":0,"byteLength":8328,"target":34962,"byteStride":12},{"buffer":0,"byteOffset":8328,"byteLength":8328,"target":34962,"byteStride":12},{"buffer":0,"byteOffset":16656,"byteLength":5552,"target":34962,"byteStride":8},{"buffer":0,"byteOffset":22208,"byteLength":1788,"target":34963}],"buffers":[{"byteLength":23996,"uri":"data:application/octet-stream;base64,"}],"accessors":[{"bufferView":0,"componentType":5126,"count":694,"max":[5220.10400390625,30907.978515625,-445.5670166015625],"min":[366.60662841796875,21193.24609375,-4819.4130859375],"type":"VEC3"},{"bufferView":1,"componentType":5126,"count":694,"max":[0.9999929070472717,0.9999934434890747,1],"min":[-0.9999929070472717,-0.9999932646751404,-1],"type":"VEC3"},{"bufferView":2,"componentType":5126,"count":694,"max":[0.9999141693115234,0.8232694864273071],"min":[0.000914150383323431,0.0003002285957336426],"type":"VEC2"},{"bufferView":3,"componentType":5123,"count":894,"max":[693],"min":[0],"type":"SCALAR"}],"materials":[{"pbrMetallicRoughness":{"baseColorFactor":[0.30196078431372547,0.2823529411764706,0.2980392156862745,1],"metallicFactor":0,"roughnessFactor":1}}],"meshes":[{"primitives":[{"mode":4,"attributes":{"POSITION":0,"NORMAL":1,"TEXCOORD_0":2},"indices":3,"material":0}]}]}