{"asset":{"version":"2.0","generator":"THREE.GLTFExporter"},"scenes":[{"nodes":[0]}],"scene":0,"nodes":[{"matrix":[0.009999999776482582,0,0,0,0,-1.3435885354592524e-9,0.009999999434197103,0,0,-0.009999999434197103,-1.3435885354592524e-9,0,-0.00000762939453125,-0.0008819981012493372,0.0000037980603337928187,1],"name":"网格.067_1","mesh":0}],"bufferViews":[{"buffer":0,"byteOffset":0,"byteLength":1368,"target":34962,"byteStride":12},{"buffer":0,"byteOffset":1368,"byteLength":1368,"target":34962,"byteStride":12},{"buffer":0,"byteOffset":2736,"byteLength":912,"target":34962,"byteStride":8},{"buffer":0,"byteOffset":3648,"byteLength":348,"target":34963}],"buffers":[{"byteLength":3996,"uri":"data:application/octet-stream;base64,"}],"accessors":[{"bufferView":0,"componentType":5126,"count":114,"max":[11228.140625,10285.060546875,-2.316162109375],"min":[6312.91845703125,8601.7119140625,-1402.3160400390625],"type":"VEC3"},{"bufferView":1,"componentType":5126,"count":114,"max":[1,1,1],"min":[-1,-1,-1],"type":"VEC3"},{"bufferView":2,"componentType":5126,"count":114,"max":[1.0010370016098022,0.9057909250259399],"min":[0.00008219480514526367,-0.00024771690368652344],"type":"VEC2"},{"bufferView":3,"componentType":5123,"count":174,"max":[113],"min":[0],"type":"SCALAR"}],"materials":[{"pbrMetallicRoughness":{"baseColorFactor":[0.49019607843137253,0.4823529411764706,0.47843137254901963,1],"metallicFactor":0,"roughnessFactor":1}}],"meshes":[{"primitives":[{"mode":4,"attributes":{"POSITION":0,"NORMAL":1,"TEXCOORD_0":2},"indices":3,"material":0}]}]}