{"asset":{"version":"2.0","generator":"THREE.GLTFExporter"},"scenes":[{"nodes":[0]}],"scene":0,"nodes":[{"matrix":[0.009999999776482582,0,0,0,0,-1.3435885354592524e-9,0.009999999434197103,0,0,-0.009999999434197103,-1.3435885354592524e-9,0,-0.00000762939453125,-0.00018427040777169168,-0.00027949202922172844,1],"name":"网格.062_1","mesh":0}],"bufferViews":[{"buffer":0,"byteOffset":0,"byteLength":648,"target":34962,"byteStride":12},{"buffer":0,"byteOffset":648,"byteLength":648,"target":34962,"byteStride":12},{"buffer":0,"byteOffset":1296,"byteLength":432,"target":34962,"byteStride":8},{"buffer":0,"byteOffset":1728,"byteLength":228,"target":34963}],"buffers":[{"byteLength":1956,"uri":"data:application/octet-stream;base64,"}],"accessors":[{"bufferView":0,"componentType":5126,"count":54,"max":[17705.69140625,42734.5390625,-13.86187744140625],"min":[6669.43994140625,38511.01953125,-974.6370849609375],"type":"VEC3"},{"bufferView":1,"componentType":5126,"count":54,"max":[1,1,0],"min":[-1,-1,-1],"type":"VEC3"},{"bufferView":2,"componentType":5126,"count":54,"max":[1.0011868476867676,0.9772397875785828],"min":[0.002168715000152588,0.0006647109985351562],"type":"VEC2"},{"bufferView":3,"componentType":5123,"count":114,"max":[53],"min":[0],"type":"SCALAR"}],"materials":[{"pbrMetallicRoughness":{"baseColorFactor":[0.6235294117647059,0.6078431372549019,0.6,1],"metallicFactor":0,"roughnessFactor":1}}],"meshes":[{"primitives":[{"mode":4,"attributes":{"POSITION":0,"NORMAL":1,"TEXCOORD_0":2},"indices":3,"material":0}]}]}