{"asset":{"version":"2.0","generator":"THREE.GLTFExporter"},"scenes":[{"nodes":[0]}],"scene":0,"nodes":[{"matrix":[0.009999999776482582,0,0,0,0,-1.3435885354592524e-9,0.009999999434197103,0,0,-0.009999999434197103,-1.3435885354592524e-9,0,0,0.000017441621821490116,-0.00038612502976320684,1],"name":"网格.057_1","mesh":0}],"bufferViews":[{"buffer":0,"byteOffset":0,"byteLength":3912,"target":34962,"byteStride":12},{"buffer":0,"byteOffset":3912,"byteLength":3912,"target":34962,"byteStride":12},{"buffer":0,"byteOffset":7824,"byteLength":2608,"target":34962,"byteStride":8},{"buffer":0,"byteOffset":10432,"byteLength":1224,"target":34963}],"buffers":[{"byteLength":11656,"uri":"data:application/octet-stream;base64,"}],"accessors":[{"bufferView":0,"componentType":5126,"count":326,"max":[17319.71875,21521.7109375,-13.862091064453125],"min":[13646.7421875,19543.681640625,-1520.5208740234375],"type":"VEC3"},{"bufferView":1,"componentType":5126,"count":326,"max":[0.9830840826034546,0.9830892086029053,0.000001911803337861784],"min":[-0.9830859303474426,-0.9830935597419739,-1],"type":"VEC3"},{"bufferView":2,"componentType":5126,"count":326,"max":[0.9086102843284607,0.9980079531669617],"min":[-0.9832935333251953,0.00199204683303833],"type":"VEC2"},{"bufferView":3,"componentType":5123,"count":612,"max":[325],"min":[0],"type":"SCALAR"}],"materials":[{"pbrMetallicRoughness":{"baseColorFactor":[0.615686274509804,0.611764705882353,0.6039215686274509,1],"metallicFactor":0,"roughnessFactor":1}}],"meshes":[{"primitives":[{"mode":4,"attributes":{"POSITION":0,"NORMAL":1,"TEXCOORD_0":2},"indices":3,"material":0}]}]}