{"asset":{"version":"2.0","generator":"THREE.GLTFExporter"},"scenes":[{"nodes":[0]}],"scene":0,"nodes":[{"matrix":[0.009999999776482582,0,0,0,0,-1.3435885354592524e-9,0.009999999434197103,0,0,-0.009999999434197103,-1.3435885354592524e-9,0,0,-0.00007557492062915117,0,1],"name":"网格.071_3","mesh":0}],"bufferViews":[{"buffer":0,"byteOffset":0,"byteLength":1428,"target":34962,"byteStride":12},{"buffer":0,"byteOffset":1428,"byteLength":1428,"target":34962,"byteStride":12},{"buffer":0,"byteOffset":2856,"byteLength":952,"target":34962,"byteStride":8},{"buffer":0,"byteOffset":3808,"byteLength":620,"target":34963}],"buffers":[{"byteLength":4428,"uri":"data:application/octet-stream;base64,"}],"accessors":[{"bufferView":0,"componentType":5126,"count":119,"max":[56065.1953125,46570.76171875,0.00005644187331199646],"min":[-23667.9609375,-12268.28515625,-0.0033190608955919743],"type":"VEC3"},{"bufferView":1,"componentType":5126,"count":119,"max":[0.0025819235015660524,0.003054057015106082,-0.9999919533729553],"min":[-0.00008705138316145167,-0.0001068267592927441,-1],"type":"VEC3"},{"bufferView":2,"componentType":5126,"count":119,"max":[4.9521965980529785,130.66786193847656],"min":[-1.9237046241760254,-67.19754791259766],"type":"VEC2"},{"bufferView":3,"componentType":5123,"count":309,"max":[118],"min":[0],"type":"SCALAR"}],"materials":[{"pbrMetallicRoughness":{"baseColorFactor":[0.2901960784313726,0.29411764705882354,0.23529411764705882,1],"metallicFactor":0,"roughnessFactor":1}}],"meshes":[{"primitives":[{"mode":4,"attributes":{"POSITION":0,"NORMAL":1,"TEXCOORD_0":2},"indices":3,"material":0}]}]}