{"asset":{"version":"2.0","generator":"THREE.GLTFExporter"},"scenes":[{"nodes":[0]}],"scene":0,"nodes":[{"matrix":[0.009999999776482582,0,0,0,0,-1.3435885354592524e-9,0.009999999434197103,0,0,-0.009999999434197103,-1.3435885354592524e-9,0,0.0004987716674804688,-0.00007878847100073472,-0.00020030514860991389,1],"name":"网格.047_1","mesh":0}],"bufferViews":[{"buffer":0,"byteOffset":0,"byteLength":2472,"target":34962,"byteStride":12},{"buffer":0,"byteOffset":2472,"byteLength":2472,"target":34962,"byteStride":12},{"buffer":0,"byteOffset":4944,"byteLength":1648,"target":34962,"byteStride":8},{"buffer":0,"byteOffset":6592,"byteLength":720,"target":34963}],"buffers":[{"byteLength":7312,"uri":"data:application/octet-stream;base64,"}],"accessors":[{"bufferView":0,"componentType":5126,"count":206,"max":[3688.041259765625,16072.185546875,-15.135498046875],"min":[2667.943115234375,11742.6982421875,-337.42401123046875],"type":"VEC3"},{"bufferView":1,"componentType":5126,"count":206,"max":[1,1,0.00019120062643196434],"min":[-1,-1,-0.9995697736740112],"type":"VEC3"},{"bufferView":2,"componentType":5126,"count":206,"max":[3.236863613128662,3.311730146408081],"min":[-2.259824275970459,-2.3117308616638184],"type":"VEC2"},{"bufferView":3,"componentType":5123,"count":360,"max":[205],"min":[0],"type":"SCALAR"}],"materials":[{"pbrMetallicRoughness":{"baseColorFactor":[0.5333333333333333,0.5333333333333333,0.5215686274509804,1],"metallicFactor":0,"roughnessFactor":1}}],"meshes":[{"primitives":[{"mode":4,"attributes":{"POSITION":0,"NORMAL":1,"TEXCOORD_0":2},"indices":3,"material":0}]}]}