{"asset":{"version":"2.0","generator":"THREE.GLTFExporter"},"scenes":[{"nodes":[0]}],"scene":0,"nodes":[{"matrix":[0.009999999776482582,0,0,0,0,-1.3435885354592524e-9,0.009999999434197103,0,0,-0.009999999434197103,-1.3435885354592524e-9,0,-0.00091552734375,0.0004930281429551542,0.000254979298915714,1],"name":"网格.069_9","mesh":0}],"bufferViews":[{"buffer":0,"byteOffset":0,"byteLength":12912,"target":34962,"byteStride":12},{"buffer":0,"byteOffset":12912,"byteLength":12912,"target":34962,"byteStride":12},{"buffer":0,"byteOffset":25824,"byteLength":8608,"target":34962,"byteStride":8},{"buffer":0,"byteOffset":34432,"byteLength":2784,"target":34963}],"buffers":[{"byteLength":37216,"uri":"data:application/octet-stream;base64,"}],"accessors":[{"bufferView":0,"componentType":5126,"count":1076,"max":[46048.5859375,17333.94140625,-270.7578125],"min":[25925.13671875,12775.46484375,-1492.8035888671875],"type":"VEC3"},{"bufferView":1,"componentType":5126,"count":1076,"max":[0.9982959032058716,0.9982949495315552,1],"min":[-0.9982959032058716,-0.9982949495315552,-1],"type":"VEC3"},{"bufferView":2,"componentType":5126,"count":1076,"max":[0.9926468133926392,0.8330569267272949],"min":[-0.0006535716820508242,0.00007385015487670898],"type":"VEC2"},{"bufferView":3,"componentType":5123,"count":1392,"max":[1075],"min":[0],"type":"SCALAR"}],"materials":[{"pbrMetallicRoughness":{"baseColorFactor":[0.6980392156862745,0.6862745098039216,0.6470588235294118,1],"metallicFactor":0,"roughnessFactor":1}}],"meshes":[{"primitives":[{"mode":4,"attributes":{"POSITION":0,"NORMAL":1,"TEXCOORD_0":2},"indices":3,"material":0}]}]}