{"asset":{"version":"2.0","generator":"THREE.GLTFExporter"},"scenes":[{"nodes":[0]}],"scene":0,"nodes":[{"matrix":[0.009999999776482582,0,0,0,0,-1.3435885354592524e-9,0.009999999434197103,0,0,-0.009999999434197103,-1.3435885354592524e-9,0,-0.0001678466796875,0.00002995081194967497,0.0004693303199019283,1],"name":"网格.064_1","mesh":0}],"bufferViews":[{"buffer":0,"byteOffset":0,"byteLength":1452,"target":34962,"byteStride":12},{"buffer":0,"byteOffset":1452,"byteLength":1452,"target":34962,"byteStride":12},{"buffer":0,"byteOffset":2904,"byteLength":968,"target":34962,"byteStride":8},{"buffer":0,"byteOffset":3872,"byteLength":396,"target":34963}],"buffers":[{"byteLength":4268,"uri":"data:application/octet-stream;base64,"}],"accessors":[{"bufferView":0,"componentType":5126,"count":121,"max":[9996.7080078125,26014.5390625,-13.8619384765625],"min":[6618.6435546875,20772.4375,-1320.10546875],"type":"VEC3"},{"bufferView":1,"componentType":5126,"count":121,"max":[0.9999844431877136,0.9999257922172546,1],"min":[-0.9999257922172546,-0.9829919338226318,-1],"type":"VEC3"},{"bufferView":2,"componentType":5126,"count":121,"max":[0.9970075488090515,0.9992650747299194],"min":[-1.040229320526123,0.00005239248275756836],"type":"VEC2"},{"bufferView":3,"componentType":5123,"count":198,"max":[120],"min":[0],"type":"SCALAR"}],"materials":[{"pbrMetallicRoughness":{"baseColorFactor":[0.4588235294117647,0.4745098039215686,0.48627450980392156,1],"metallicFactor":0,"roughnessFactor":1}}],"meshes":[{"primitives":[{"mode":4,"attributes":{"POSITION":0,"NORMAL":1,"TEXCOORD_0":2},"indices":3,"material":0}]}]}