{"asset":{"version":"2.0","generator":"THREE.GLTFExporter"},"scenes":[{"nodes":[0]}],"scene":0,"nodes":[{"matrix":[0.009999999776482582,0,0,0,0,-1.3435885354592524e-9,0.009999999434197103,0,0,-0.009999999434197103,-1.3435885354592524e-9,0,-0.00091552734375,0.0004930281429551542,0.000254979298915714,1],"name":"网格.069_6","mesh":0}],"bufferViews":[{"buffer":0,"byteOffset":0,"byteLength":2148,"target":34962,"byteStride":12},{"buffer":0,"byteOffset":2148,"byteLength":2148,"target":34962,"byteStride":12},{"buffer":0,"byteOffset":4296,"byteLength":1432,"target":34962,"byteStride":8},{"buffer":0,"byteOffset":5728,"byteLength":540,"target":34963}],"buffers":[{"byteLength":6268,"uri":"data:application/octet-stream;base64,"}],"accessors":[{"bufferView":0,"componentType":5126,"count":179,"max":[35234.328125,15755.455078125,-12.631454467773438],"min":[33809.32421875,13640.216796875,-5977.05126953125],"type":"VEC3"},{"bufferView":1,"componentType":5126,"count":179,"max":[0.9778224229812622,0.9776090383529663,0.000013734086678596213],"min":[-0.9776087999343872,-0.9776083827018738,-1],"type":"VEC3"},{"bufferView":2,"componentType":5126,"count":179,"max":[0.9879602789878845,0.9985257387161255],"min":[0.043560028076171875,0.0005727410316467285],"type":"VEC2"},{"bufferView":3,"componentType":5123,"count":270,"max":[178],"min":[0],"type":"SCALAR"}],"materials":[{"pbrMetallicRoughness":{"baseColorFactor":[0.5607843137254902,0.5764705882352941,0.5764705882352941,1],"metallicFactor":0,"roughnessFactor":1}}],"meshes":[{"primitives":[{"mode":4,"attributes":{"POSITION":0,"NORMAL":1,"TEXCOORD_0":2},"indices":3,"material":0}]}]}