{"asset":{"version":"2.0","generator":"THREE.GLTFExporter"},"scenes":[{"nodes":[0]}],"scene":0,"nodes":[{"matrix":[0.009999999776482582,0,0,0,0,-1.3435885354592524e-9,0.009999999434197103,0,0,-0.009999999434197103,-1.3435885354592524e-9,0,0.00005340576171875,0.00003609706982388161,0.00003022456257895101,1],"name":"网格.080_1","mesh":0}],"bufferViews":[{"buffer":0,"byteOffset":0,"byteLength":48,"target":34962,"byteStride":12},{"buffer":0,"byteOffset":48,"byteLength":48,"target":34962,"byteStride":12},{"buffer":0,"byteOffset":96,"byteLength":32,"target":34962,"byteStride":8},{"buffer":0,"byteOffset":128,"byteLength":12,"target":34963}],"buffers":[{"byteLength":140,"uri":"data:application/octet-stream;base64,"}],"accessors":[{"bufferView":0,"componentType":5126,"count":4,"max":[-177.203369140625,21113.17578125,-249.35562133789062],"min":[-24026.771484375,19044.77734375,-394.5021057128906],"type":"VEC3"},{"bufferView":1,"componentType":5126,"count":4,"max":[0.007407804019749165,0.15474151074886322,-0.987927258014679],"min":[0.007407804019749165,0.15474151074886322,-0.987927258014679],"type":"VEC3"},{"bufferView":2,"componentType":5126,"count":4,"max":[-3.412578582763672,8.355207443237305],"min":[-4.776360511779785,-7.355205535888672],"type":"VEC2"},{"bufferView":3,"componentType":5123,"count":6,"max":[3],"min":[0],"type":"SCALAR"}],"materials":[{"pbrMetallicRoughness":{"baseColorFactor":[0.3411764705882353,0.4745098039215686,0.12549019607843137,1],"metallicFactor":0,"roughnessFactor":1}}],"meshes":[{"primitives":[{"mode":4,"attributes":{"POSITION":0,"NORMAL":1,"TEXCOORD_0":2},"indices":3,"material":0}]}]}