{"asset":{"version":"2.0","generator":"THREE.GLTFExporter"},"scenes":[{"nodes":[0]}],"scene":0,"nodes":[{"matrix":[0.009999999776482582,0,0,0,0,-1.3435885354592524e-9,0.009999999434197103,0,0,-0.009999999434197103,-1.3435885354592524e-9,0,0.00000762939453125,-0.000019290171621832997,0,1],"name":"网格022","mesh":0}],"bufferViews":[{"buffer":0,"byteOffset":0,"byteLength":31200,"target":34962,"byteStride":12},{"buffer":0,"byteOffset":31200,"byteLength":31200,"target":34962,"byteStride":12},{"buffer":0,"byteOffset":62400,"byteLength":20800,"target":34962,"byteStride":8},{"buffer":0,"byteOffset":83200,"byteLength":20800,"target":34962,"byteStride":8},{"buffer":0,"byteOffset":104000,"byteLength":6552,"target":34963}],"buffers":[{"byteLength":110552,"uri":"data:application/octet-stream;base64,"}],"accessors":[{"bufferView":0,"componentType":5126,"count":2600,"max":[5202.8486328125,36256.2890625,1037.94873046875],"min":[5037.03466796875,17780.173828125,1029.912109375],"type":"VEC3"},{"bufferView":1,"componentType":5126,"count":2600,"max":[1,1,1],"min":[-1,-1,0],"type":"VEC3"},{"bufferView":2,"componentType":5126,"count":2600,"max":[0.15922772884368896,0.8862043619155884],"min":[0.018015088513493538,0.5032130479812622],"type":"VEC2"},{"bufferView":3,"componentType":5126,"count":2600,"max":[1,1],"min":[0,0],"type":"VEC2"},{"bufferView":4,"componentType":5123,"count":3276,"max":[2599],"min":[0],"type":"SCALAR"}],"materials":[{"pbrMetallicRoughness":{"baseColorFactor":[0.6235294117647059,0.6196078431372549,0.6196078431372549,1],"metallicFactor":0,"roughnessFactor":1}}],"meshes":[{"primitives":[{"mode":4,"attributes":{"POSITION":0,"NORMAL":1,"TEXCOORD_0":2,"TEXCOORD_1":3},"indices":4,"material":0}]}]}