{"asset":{"version":"2.0","generator":"THREE.GLTFExporter"},"scenes":[{"nodes":[0]}],"scene":0,"nodes":[{"matrix":[0.009999999776482582,0,0,0,0,-1.3435885354592524e-9,0.009999999434197103,0,0,-0.009999999434197103,-1.3435885354592524e-9,0,0.000003814697265625,0.00002325276000192389,0,1],"name":"网格.018_2","mesh":0}],"bufferViews":[{"buffer":0,"byteOffset":0,"byteLength":10164,"target":34962,"byteStride":12},{"buffer":0,"byteOffset":10164,"byteLength":10164,"target":34962,"byteStride":12},{"buffer":0,"byteOffset":20328,"byteLength":6776,"target":34962,"byteStride":8},{"buffer":0,"byteOffset":27104,"byteLength":1728,"target":34963}],"buffers":[{"byteLength":28832,"uri":"data:application/octet-stream;base64,"}],"accessors":[{"bufferView":0,"componentType":5126,"count":847,"max":[4042.462890625,35204.21484375,369.2030334472656],"min":[3739.00048828125,34037.5234375,-115.252197265625],"type":"VEC3"},{"bufferView":1,"componentType":5126,"count":847,"max":[1,0.0011873602634295821,0.0028830578085035086],"min":[-1,-0.9999999403953552,-1],"type":"VEC3"},{"bufferView":2,"componentType":5126,"count":847,"max":[2.325881242752075,2.5684807300567627],"min":[-1.4238941669464111,-0.37871479988098145],"type":"VEC2"},{"bufferView":3,"componentType":5123,"count":864,"max":[846],"min":[0],"type":"SCALAR"}],"materials":[{"pbrMetallicRoughness":{"baseColorFactor":[0.49411764705882355,0.5137254901960784,0.5254901960784314,1],"metallicFactor":0,"roughnessFactor":1}}],"meshes":[{"primitives":[{"mode":4,"attributes":{"POSITION":0,"NORMAL":1,"TEXCOORD_0":2},"indices":3,"material":0}]}]}