{"asset":{"version":"2.0","generator":"THREE.GLTFExporter"},"scenes":[{"nodes":[0]}],"scene":0,"nodes":[{"matrix":[1,0,0,0,0,1,0,0,0,0,1,0,57.63536834716797,-13.373854637145996,237.52389526367188,1],"name":"室内-一层-安全门25","extras":{"name":"室内-一层-安全门25"},"mesh":0}],"bufferViews":[{"buffer":0,"byteOffset":0,"byteLength":384,"target":34962,"byteStride":12},{"buffer":0,"byteOffset":384,"byteLength":384,"target":34962,"byteStride":12},{"buffer":0,"byteOffset":768,"byteLength":256,"target":34962,"byteStride":8},{"buffer":0,"byteOffset":1024,"byteLength":72,"target":34963}],"buffers":[{"byteLength":1096,"uri":"data:application/octet-stream;base64,"}],"accessors":[{"bufferView":0,"componentType":5126,"count":32,"max":[0.05805768072605133,2.0296859741210938,0.000030517578125],"min":[-0.000005668611720466288,0.000003814697265625,-1.0182342529296875],"type":"VEC3"},{"bufferView":1,"componentType":5126,"count":32,"max":[1,0.9999999403953552,1],"min":[-1,-1,-1],"type":"VEC3"},{"bufferView":2,"componentType":5126,"count":32,"max":[0.9995003938674927,0.9995003938674927],"min":[0.0004995763301849365,0.0004995465278625488],"type":"VEC2"},{"bufferView":3,"componentType":5123,"count":36,"max":[31],"min":[0],"type":"SCALAR"}],"materials":[{"pbrMetallicRoughness":{"baseColorFactor":[0.5176470588235295,0.5176470588235295,0.5058823529411764,1],"metallicFactor":0,"roughnessFactor":1}}],"meshes":[{"primitives":[{"mode":4,"attributes":{"POSITION":0,"NORMAL":1,"TEXCOORD_0":2},"indices":3,"material":0}]}]}