{"asset":{"version":"2.0","generator":"THREE.GLTFExporter"},"scenes":[{"nodes":[0]}],"scene":0,"nodes":[{"matrix":[0.009999999776482582,0,0,0,0,-1.3435885354592524e-9,0.009999999434197103,0,0,-0.009999999434197103,-1.3435885354592524e-9,0,0.00054931640625,0.000059214125940343365,-0.000462955329567194,1],"name":"网格050","mesh":0}],"bufferViews":[{"buffer":0,"byteOffset":0,"byteLength":1728,"target":34962,"byteStride":12},{"buffer":0,"byteOffset":1728,"byteLength":1728,"target":34962,"byteStride":12},{"buffer":0,"byteOffset":3456,"byteLength":1152,"target":34962,"byteStride":8},{"buffer":0,"byteOffset":4608,"byteLength":480,"target":34963}],"buffers":[{"byteLength":5088,"uri":"data:application/octet-stream;base64,"}],"accessors":[{"bufferView":0,"componentType":5126,"count":144,"max":[45047.57421875,17592.310546875,-13.862060546875],"min":[42845.9375,15938.865234375,-4472.6630859375],"type":"VEC3"},{"bufferView":1,"componentType":5126,"count":144,"max":[0.9760873913764954,0.9760898351669312,0],"min":[-0.9760928153991699,-0.976087749004364,-1],"type":"VEC3"},{"bufferView":2,"componentType":5126,"count":144,"max":[0.9978793263435364,0.9566889405250549],"min":[0.13806092739105225,0.01987677812576294],"type":"VEC2"},{"bufferView":3,"componentType":5123,"count":240,"max":[143],"min":[0],"type":"SCALAR"}],"materials":[{"pbrMetallicRoughness":{"baseColorFactor":[0.6823529411764706,0.6901960784313725,0.6509803921568628,1],"metallicFactor":0,"roughnessFactor":1}}],"meshes":[{"primitives":[{"mode":4,"attributes":{"POSITION":0,"NORMAL":1,"TEXCOORD_0":2},"indices":3,"material":0}]}]}