{"asset":{"version":"2.0","generator":"THREE.GLTFExporter"},"scenes":[{"nodes":[0]}],"scene":0,"nodes":[{"matrix":[0.009999999776482582,0,0,0,0,-1.3435885354592524e-9,0.009999999434197103,0,0,-0.009999999434197103,-1.3435885354592524e-9,0,-0.00012969970703125,0.00003678107532323338,0,1],"name":"网格.030_1","mesh":0}],"bufferViews":[{"buffer":0,"byteOffset":0,"byteLength":198528,"target":34962,"byteStride":12},{"buffer":0,"byteOffset":198528,"byteLength":198528,"target":34962,"byteStride":12},{"buffer":0,"byteOffset":397056,"byteLength":132352,"target":34962,"byteStride":8},{"buffer":0,"byteOffset":529408,"byteLength":132352,"target":34962,"byteStride":8},{"buffer":0,"byteOffset":661760,"byteLength":37440,"target":34963}],"buffers":[{"byteLength":699200,"uri":"data:application/octet-stream;base64,"}],"accessors":[{"bufferView":0,"componentType":5126,"count":16544,"max":[6043.8369140625,37507.95703125,509.9649658203125],"min":[4199.775390625,11400.4140625,504.87152099609375],"type":"VEC3"},{"bufferView":1,"componentType":5126,"count":16544,"max":[0.00007008013199083507,0.8663554787635803,1],"min":[-0.00007008013199083507,-0.86627197265625,-1],"type":"VEC3"},{"bufferView":2,"componentType":5126,"count":16544,"max":[0.625,0.6875],"min":[0.375,0.31156015396118164],"type":"VEC2"},{"bufferView":3,"componentType":5126,"count":16544,"max":[0,1],"min":[0,1],"type":"VEC2"},{"bufferView":4,"componentType":5123,"count":18720,"max":[16543],"min":[0],"type":"SCALAR"}],"materials":[{"pbrMetallicRoughness":{"baseColorFactor":[0.4000000059604645,0.4000000059604645,0.4000000059604645,1],"metallicFactor":1,"roughnessFactor":0.8964735269546509},"emissiveFactor":[1,1,1],"doubleSided":true,"name":"js:lambert6"}],"meshes":[{"primitives":[{"mode":4,"attributes":{"POSITION":0,"NORMAL":1,"TEXCOORD_0":2,"TEXCOORD_1":3},"indices":4,"material":0}]}]}