{"asset":{"version":"2.0","generator":"THREE.GLTFExporter"},"scenes":[{"nodes":[0]}],"scene":0,"nodes":[{"matrix":[0.009999999776482582,0,0,0,0,-1.3435885354592524e-9,0.009999999434197103,0,0,-0.009999999434197103,-1.3435885354592524e-9,0,0.00054931640625,0.000059214125940343365,-0.000462955329567194,1],"name":"网格.050_2","mesh":0}],"bufferViews":[{"buffer":0,"byteOffset":0,"byteLength":2736,"target":34962,"byteStride":12},{"buffer":0,"byteOffset":2736,"byteLength":2736,"target":34962,"byteStride":12},{"buffer":0,"byteOffset":5472,"byteLength":1824,"target":34962,"byteStride":8},{"buffer":0,"byteOffset":7296,"byteLength":744,"target":34963}],"buffers":[{"byteLength":8040,"uri":"data:application/octet-stream;base64,"}],"accessors":[{"bufferView":0,"componentType":5126,"count":228,"max":[43254.91796875,18931.615234375,-13.862060546875],"min":[38442.03125,16025.880859375,-6874.4306640625],"type":"VEC3"},{"bufferView":1,"componentType":5126,"count":228,"max":[0.9760887026786804,0.97608882188797,0.000003828186891041696],"min":[-0.9760875701904297,-0.9760891795158386,-1],"type":"VEC3"},{"bufferView":2,"componentType":5126,"count":228,"max":[0.9919819831848145,1.220444917678833],"min":[0.0006870925426483154,-0.07116305828094482],"type":"VEC2"},{"bufferView":3,"componentType":5123,"count":372,"max":[227],"min":[0],"type":"SCALAR"}],"materials":[{"pbrMetallicRoughness":{"baseColorFactor":[0.6588235294117647,0.6784313725490196,0.6509803921568628,1],"metallicFactor":0,"roughnessFactor":1}}],"meshes":[{"primitives":[{"mode":4,"attributes":{"POSITION":0,"NORMAL":1,"TEXCOORD_0":2},"indices":3,"material":0}]}]}