{"asset":{"version":"2.0","generator":"THREE.GLTFExporter"},"scenes":[{"nodes":[0]}],"scene":0,"nodes":[{"matrix":[0.009999999776482582,0,0,0,0,-1.3435885354592524e-9,0.009999999434197103,0,0,-0.009999999434197103,-1.3435885354592524e-9,0,0.00054931640625,0.000059214125940343365,-0.000462955329567194,1],"name":"网格.050_5","mesh":0}],"bufferViews":[{"buffer":0,"byteOffset":0,"byteLength":5508,"target":34962,"byteStride":12},{"buffer":0,"byteOffset":5508,"byteLength":5508,"target":34962,"byteStride":12},{"buffer":0,"byteOffset":11016,"byteLength":3672,"target":34962,"byteStride":8},{"buffer":0,"byteOffset":14688,"byteLength":1760,"target":34963}],"buffers":[{"byteLength":16448,"uri":"data:application/octet-stream;base64,"}],"accessors":[{"bufferView":0,"componentType":5126,"count":459,"max":[38935.9375,20683.43359375,-13.862060546875],"min":[29639.234375,16274.931640625,-4268.853515625],"type":"VEC3"},{"bufferView":1,"componentType":5126,"count":459,"max":[0.9760879278182983,0.9760897159576416,1],"min":[-0.9760884046554565,-0.9760898947715759,-1],"type":"VEC3"},{"bufferView":2,"componentType":5126,"count":459,"max":[0.9924054741859436,0.9950212836265564],"min":[0.0015306025743484497,0.0008447170257568359],"type":"VEC2"},{"bufferView":3,"componentType":5123,"count":879,"max":[458],"min":[0],"type":"SCALAR"}],"materials":[{"pbrMetallicRoughness":{"baseColorFactor":[0.6745098039215687,0.6666666666666666,0.6274509803921569,1],"metallicFactor":0,"roughnessFactor":1}}],"meshes":[{"primitives":[{"mode":4,"attributes":{"POSITION":0,"NORMAL":1,"TEXCOORD_0":2},"indices":3,"material":0}]}]}