{"asset":{"version":"2.0","generator":"THREE.GLTFExporter"},"scenes":[{"nodes":[0]}],"scene":0,"nodes":[{"matrix":[0.009999999776482582,0,0,0,0,-1.3435885354592524e-9,0.009999999434197103,0,0,-0.009999999434197103,-1.3435885354592524e-9,0,-0.0001678466796875,0.00002995081194967497,0.0004693303199019283,1],"name":"网格064","mesh":0}],"bufferViews":[{"buffer":0,"byteOffset":0,"byteLength":1920,"target":34962,"byteStride":12},{"buffer":0,"byteOffset":1920,"byteLength":1920,"target":34962,"byteStride":12},{"buffer":0,"byteOffset":3840,"byteLength":1280,"target":34962,"byteStride":8},{"buffer":0,"byteOffset":5120,"byteLength":552,"target":34963}],"buffers":[{"byteLength":5672,"uri":"data:application/octet-stream;base64,"}],"accessors":[{"bufferView":0,"componentType":5126,"count":160,"max":[9998.0087890625,22295.697265625,-637.3128662109375],"min":[6296.853515625,20734.6015625,-4486.779296875],"type":"VEC3"},{"bufferView":1,"componentType":5126,"count":160,"max":[0.9999780654907227,0.999993085861206,1],"min":[-0.9999790787696838,-0.9830943942070007,-1],"type":"VEC3"},{"bufferView":2,"componentType":5126,"count":160,"max":[1.503131628036499,0.9962178468704224],"min":[-0.5893105268478394,0.0017622709274291992],"type":"VEC2"},{"bufferView":3,"componentType":5123,"count":276,"max":[159],"min":[0],"type":"SCALAR"}],"materials":[{"pbrMetallicRoughness":{"baseColorFactor":[0.5176470588235295,0.5333333333333333,0.5215686274509804,1],"metallicFactor":0,"roughnessFactor":1}}],"meshes":[{"primitives":[{"mode":4,"attributes":{"POSITION":0,"NORMAL":1,"TEXCOORD_0":2},"indices":3,"material":0}]}]}