{"asset":{"version":"2.0","generator":"THREE.GLTFExporter"},"scenes":[{"nodes":[0]}],"scene":0,"nodes":[{"matrix":[0.009999999776482582,0,0,0,0,-1.3435885354592524e-9,0.009999999434197103,0,0,-0.009999999434197103,-1.3435885354592524e-9,0,-0.00000762939453125,-0.0008819981012493372,0.0000037980603337928187,1],"name":"网格.067_4","mesh":0}],"bufferViews":[{"buffer":0,"byteOffset":0,"byteLength":4560,"target":34962,"byteStride":12},{"buffer":0,"byteOffset":4560,"byteLength":4560,"target":34962,"byteStride":12},{"buffer":0,"byteOffset":9120,"byteLength":3040,"target":34962,"byteStride":8},{"buffer":0,"byteOffset":12160,"byteLength":1092,"target":34963}],"buffers":[{"byteLength":13252,"uri":"data:application/octet-stream;base64,"}],"accessors":[{"bufferView":0,"componentType":5126,"count":380,"max":[6651.4970703125,8778.517578125,-209.449462890625],"min":[6337.51806640625,3211.327392578125,-607.4415893554688],"type":"VEC3"},{"bufferView":1,"componentType":5126,"count":380,"max":[1,1,1],"min":[-1,-1,-1],"type":"VEC3"},{"bufferView":2,"componentType":5126,"count":380,"max":[0.9637044668197632,0.9912139773368835],"min":[0.02159491926431656,0.13034582138061523],"type":"VEC2"},{"bufferView":3,"componentType":5123,"count":546,"max":[379],"min":[0],"type":"SCALAR"}],"materials":[{"pbrMetallicRoughness":{"baseColorFactor":[0.6627450980392157,0.611764705882353,0.6196078431372549,1],"metallicFactor":0,"roughnessFactor":1}}],"meshes":[{"primitives":[{"mode":4,"attributes":{"POSITION":0,"NORMAL":1,"TEXCOORD_0":2},"indices":3,"material":0}]}]}