{"asset":{"version":"2.0","generator":"THREE.GLTFExporter"},"scenes":[{"nodes":[0]}],"scene":0,"nodes":[{"matrix":[0.009999999776482582,0,0,0,0,-1.3435885354592524e-9,0.009999999434197103,0,0,-0.009999999434197103,-1.3435885354592524e-9,0,-0.0002899169921875,0.00005001112731406465,-0.000007647434358659666,1],"name":"区域地块","extras":{"name":"区域地块"},"mesh":0}],"bufferViews":[{"buffer":0,"byteOffset":0,"byteLength":8724,"target":34962,"byteStride":12},{"buffer":0,"byteOffset":8724,"byteLength":8724,"target":34962,"byteStride":12},{"buffer":0,"byteOffset":17448,"byteLength":5816,"target":34962,"byteStride":8},{"buffer":0,"byteOffset":23264,"byteLength":4208,"target":34963}],"buffers":[{"byteLength":27472,"uri":"data:application/octet-stream;base64,"}],"accessors":[{"bufferView":0,"componentType":5126,"count":727,"max":[67582.1640625,65821.34375,-15.071502685546875],"min":[-46869.99609375,-52066.59375,-15.193572998046875],"type":"VEC3"},{"bufferView":1,"componentType":5126,"count":727,"max":[0.00027951656375080347,0.0003105962532572448,-0.9999998807907104],"min":[-0.0003567870589904487,-0.0002995144168380648,-1.0000001192092896],"type":"VEC3"},{"bufferView":2,"componentType":5126,"count":727,"max":[0.699791431427002,0.7354289293289185],"min":[0.3581312596797943,0.31185489892959595],"type":"VEC2"},{"bufferView":3,"componentType":5123,"count":2103,"max":[726],"min":[0],"type":"SCALAR"}],"materials":[{"pbrMetallicRoughness":{"baseColorFactor":[0.3333333333333333,0.43137254901960786,0.4196078431372549,1],"metallicFactor":0,"roughnessFactor":1}}],"meshes":[{"primitives":[{"mode":4,"attributes":{"POSITION":0,"NORMAL":1,"TEXCOORD_0":2},"indices":3,"material":0}]}]}