{"asset":{"version":"2.0","generator":"THREE.GLTFExporter"},"scenes":[{"nodes":[0]}],"scene":0,"nodes":[{"matrix":[0.009999999776482582,0,0,0,0,-1.3435885354592524e-9,0.009999999434197103,0,0,-0.009999999434197103,-1.3435885354592524e-9,0,0,0.00006755410868208855,0,1],"name":"网格.013_2","mesh":0}],"bufferViews":[{"buffer":0,"byteOffset":0,"byteLength":8280,"target":34962,"byteStride":12},{"buffer":0,"byteOffset":8280,"byteLength":8280,"target":34962,"byteStride":12},{"buffer":0,"byteOffset":16560,"byteLength":5520,"target":34962,"byteStride":8},{"buffer":0,"byteOffset":22080,"byteLength":2448,"target":34963}],"buffers":[{"byteLength":24528,"uri":"data:application/octet-stream;base64,"}],"accessors":[{"bufferView":0,"componentType":5126,"count":690,"max":[7876.78125,26754.544921875,832.07861328125],"min":[6490.4599609375,26577.630859375,262.665283203125],"type":"VEC3"},{"bufferView":1,"componentType":5126,"count":690,"max":[0.011477476917207241,1,0.005386366508901119],"min":[-0.01231324952095747,-1,-0.003798007033765316],"type":"VEC3"},{"bufferView":2,"componentType":5126,"count":690,"max":[0.9999998807907104,0.6836989521980286],"min":[1.1920928955078125e-7,0.20333528518676758],"type":"VEC2"},{"bufferView":3,"componentType":5123,"count":1224,"max":[689],"min":[0],"type":"SCALAR"}],"materials":[{"pbrMetallicRoughness":{"baseColorFactor":[0.4000000059604645,0.4000000059604645,0.4000000059604645,1],"metallicFactor":1,"roughnessFactor":0.7487671971321106},"doubleSided":true,"name":"DianTi_12_blinn15"}],"meshes":[{"primitives":[{"mode":4,"attributes":{"POSITION":0,"NORMAL":1,"TEXCOORD_0":2},"indices":3,"material":0}]}]}