{"asset":{"version":"2.0","generator":"THREE.GLTFExporter"},"scenes":[{"nodes":[0]}],"scene":0,"nodes":[{"matrix":[0.009999999776482582,0,0,0,0,-1.3435885354592524e-9,0.009999999434197103,0,0,-0.009999999434197103,-1.3435885354592524e-9,0,0.000034332275390625,0.0002360051148571074,-0.00006993444549152628,1],"name":"网格.051_3","mesh":0}],"bufferViews":[{"buffer":0,"byteOffset":0,"byteLength":4224,"target":34962,"byteStride":12},{"buffer":0,"byteOffset":4224,"byteLength":4224,"target":34962,"byteStride":12},{"buffer":0,"byteOffset":8448,"byteLength":2816,"target":34962,"byteStride":8},{"buffer":0,"byteOffset":11264,"byteLength":1056,"target":34963}],"buffers":[{"byteLength":12320,"uri":"data:application/octet-stream;base64,"}],"accessors":[{"bufferView":0,"componentType":5126,"count":352,"max":[4443.1376953125,41957.64453125,-13.86181640625],"min":[-644.0447387695312,30849.59765625,-14916.6650390625],"type":"VEC3"},{"bufferView":1,"componentType":5126,"count":352,"max":[0.999992847442627,0.999992847442627,1],"min":[-0.999992847442627,-0.999992847442627,-1],"type":"VEC3"},{"bufferView":2,"componentType":5126,"count":352,"max":[0.9988120794296265,0.9992996454238892],"min":[-0.0007801055908203125,-0.000072479248046875],"type":"VEC2"},{"bufferView":3,"componentType":5123,"count":528,"max":[351],"min":[0],"type":"SCALAR"}],"materials":[{"pbrMetallicRoughness":{"baseColorFactor":[0.47843137254901963,0.49411764705882355,0.49411764705882355,1],"metallicFactor":0,"roughnessFactor":1}}],"meshes":[{"primitives":[{"mode":4,"attributes":{"POSITION":0,"NORMAL":1,"TEXCOORD_0":2},"indices":3,"material":0}]}]}