{"asset":{"version":"2.0","generator":"THREE.GLTFExporter"},"scenes":[{"nodes":[0]}],"scene":0,"nodes":[{"matrix":[0.009999999776482582,0,0,0,0,-1.3435885354592524e-9,0.009999999434197103,0,0,-0.009999999434197103,-1.3435885354592524e-9,0,-0.000087738037109375,0.000016608022633590735,0.0001678399130469188,1],"name":"网格078","mesh":0}],"bufferViews":[{"buffer":0,"byteOffset":0,"byteLength":420,"target":34962,"byteStride":12},{"buffer":0,"byteOffset":420,"byteLength":420,"target":34962,"byteStride":12},{"buffer":0,"byteOffset":840,"byteLength":280,"target":34962,"byteStride":8},{"buffer":0,"byteOffset":1120,"byteLength":144,"target":34963}],"buffers":[{"byteLength":1264,"uri":"data:application/octet-stream;base64,"}],"accessors":[{"bufferView":0,"componentType":5126,"count":35,"max":[5658.48828125,23961.861328125,0.4331836700439453],"min":[5548.85302734375,22020.029296875,-11.775674819946289],"type":"VEC3"},{"bufferView":1,"componentType":5126,"count":35,"max":[1,1,0],"min":[-1,-1,-1],"type":"VEC3"},{"bufferView":2,"componentType":5126,"count":35,"max":[-7.494653701782227,1.4962695837020874],"min":[-41.59239959716797,-1.1198210716247559],"type":"VEC2"},{"bufferView":3,"componentType":5123,"count":72,"max":[34],"min":[0],"type":"SCALAR"}],"materials":[{"pbrMetallicRoughness":{"baseColorFactor":[0.6,0.6,0.6,1],"metallicFactor":0,"roughnessFactor":1}}],"meshes":[{"primitives":[{"mode":4,"attributes":{"POSITION":0,"NORMAL":1,"TEXCOORD_0":2},"indices":3,"material":0}]}]}