{"asset":{"version":"2.0","generator":"THREE.GLTFExporter"},"scenes":[{"nodes":[0]}],"scene":0,"nodes":[{"matrix":[0.009999999776482582,0,0,0,0,-1.3435885354592524e-9,0.009999999434197103,0,0,-0.009999999434197103,-1.3435885354592524e-9,0,0.0001373291015625,0.000026382700525573455,0.00031688474700786173,1],"name":"网格.054_3","mesh":0}],"bufferViews":[{"buffer":0,"byteOffset":0,"byteLength":552,"target":34962,"byteStride":12},{"buffer":0,"byteOffset":552,"byteLength":552,"target":34962,"byteStride":12},{"buffer":0,"byteOffset":1104,"byteLength":368,"target":34962,"byteStride":8},{"buffer":0,"byteOffset":1472,"byteLength":144,"target":34963}],"buffers":[{"byteLength":1616,"uri":"data:application/octet-stream;base64,"}],"accessors":[{"bufferView":0,"componentType":5126,"count":46,"max":[-13270.6259765625,24825.6875,-1374.962890625],"min":[-15866.17578125,23265.095703125,-4809.1572265625],"type":"VEC3"},{"bufferView":1,"componentType":5126,"count":46,"max":[0.9988593459129333,0.9988594055175781,0],"min":[-0.9988592863082886,-0.9988592863082886,-1],"type":"VEC3"},{"bufferView":2,"componentType":5126,"count":46,"max":[0.951648473739624,0.8638134598731995],"min":[0.019626930356025696,0.027366995811462402],"type":"VEC2"},{"bufferView":3,"componentType":5123,"count":72,"max":[45],"min":[0],"type":"SCALAR"}],"materials":[{"pbrMetallicRoughness":{"baseColorFactor":[0.807843137254902,0.8,0.7647058823529411,1],"metallicFactor":0,"roughnessFactor":1}}],"meshes":[{"primitives":[{"mode":4,"attributes":{"POSITION":0,"NORMAL":1,"TEXCOORD_0":2},"indices":3,"material":0}]}]}