{"asset":{"version":"2.0","generator":"THREE.GLTFExporter"},"scenes":[{"nodes":[0]}],"scene":0,"nodes":[{"matrix":[0.009999999776482582,0,0,0,0,-1.3435885354592524e-9,0.009999999434197103,0,0,-0.009999999434197103,-1.3435885354592524e-9,0,-0.0000762939453125,-0.00004203778371447697,-0.00018706865375861526,1],"name":"网格066","mesh":0}],"bufferViews":[{"buffer":0,"byteOffset":0,"byteLength":1056,"target":34962,"byteStride":12},{"buffer":0,"byteOffset":1056,"byteLength":1056,"target":34962,"byteStride":12},{"buffer":0,"byteOffset":2112,"byteLength":704,"target":34962,"byteStride":8},{"buffer":0,"byteOffset":2816,"byteLength":324,"target":34963}],"buffers":[{"byteLength":3140,"uri":"data:application/octet-stream;base64,"}],"accessors":[{"bufferView":0,"componentType":5126,"count":88,"max":[9590.9560546875,19162.732421875,-15.120330810546875],"min":[6351.24658203125,16038.86328125,-1900.70361328125],"type":"VEC3"},{"bufferView":1,"componentType":5126,"count":88,"max":[1,1,1],"min":[-1,-1,-1],"type":"VEC3"},{"bufferView":2,"componentType":5126,"count":88,"max":[0.9997541904449463,0.9645187854766846],"min":[-0.00014212727546691895,0.0006945133209228516],"type":"VEC2"},{"bufferView":3,"componentType":5123,"count":162,"max":[87],"min":[0],"type":"SCALAR"}],"materials":[{"pbrMetallicRoughness":{"baseColorFactor":[0.4666666666666667,0.44313725490196076,0.4196078431372549,1],"metallicFactor":0,"roughnessFactor":1}}],"meshes":[{"primitives":[{"mode":4,"attributes":{"POSITION":0,"NORMAL":1,"TEXCOORD_0":2},"indices":3,"material":0}]}]}