{"asset":{"version":"2.0","generator":"THREE.GLTFExporter"},"scenes":[{"nodes":[0]}],"scene":0,"nodes":[{"matrix":[0.009999999776482582,0,0,0,0,-1.3435885354592524e-9,0.009999999434197103,0,0,-0.009999999434197103,-1.3435885354592524e-9,0,-0.000225067138671875,-0.00007376463327091187,0.00003132781421300024,1],"name":"网格.045_2","mesh":0}],"bufferViews":[{"buffer":0,"byteOffset":0,"byteLength":3312,"target":34962,"byteStride":12},{"buffer":0,"byteOffset":3312,"byteLength":3312,"target":34962,"byteStride":12},{"buffer":0,"byteOffset":6624,"byteLength":2208,"target":34962,"byteStride":8},{"buffer":0,"byteOffset":8832,"byteLength":864,"target":34963}],"buffers":[{"byteLength":9696,"uri":"data:application/octet-stream;base64,"}],"accessors":[{"bufferView":0,"componentType":5126,"count":276,"max":[4609.88232421875,35932.203125,647.629638671875],"min":[4342.994140625,35511.2890625,605.5009155273438],"type":"VEC3"},{"bufferView":1,"componentType":5126,"count":276,"max":[0.9987918138504028,1.0000001192092896,1],"min":[-0.9987914562225342,-1.0000001192092896,-1],"type":"VEC3"},{"bufferView":2,"componentType":5126,"count":276,"max":[0.9210508465766907,0.5872998237609863],"min":[0.19759225845336914,0.48325031995773315],"type":"VEC2"},{"bufferView":3,"componentType":5123,"count":432,"max":[275],"min":[0],"type":"SCALAR"}],"materials":[{"pbrMetallicRoughness":{"baseColorFactor":[0.4000000059604645,0.4000000059604645,0.4000000059604645,1],"metallicFactor":1,"roughnessFactor":0.7487671971321106},"doubleSided":true,"name":"bolo"}],"meshes":[{"primitives":[{"mode":4,"attributes":{"POSITION":0,"NORMAL":1,"TEXCOORD_0":2},"indices":3,"material":0}]}]}