{"asset":{"version":"2.0","generator":"THREE.GLTFExporter"},"scenes":[{"nodes":[0]}],"scene":0,"nodes":[{"matrix":[0.009999999776482582,0,0,0,0,-1.3435885354592524e-9,0.009999999434197103,0,0,-0.009999999434197103,-1.3435885354592524e-9,0,0,0.00004174516652710736,0,1],"name":"室内-一层-指示牌","extras":{"name":"室内-一层-指示牌"},"mesh":0}],"bufferViews":[{"buffer":0,"byteOffset":0,"byteLength":13968,"target":34962,"byteStride":12},{"buffer":0,"byteOffset":13968,"byteLength":13968,"target":34962,"byteStride":12},{"buffer":0,"byteOffset":27936,"byteLength":9312,"target":34962,"byteStride":8},{"buffer":0,"byteOffset":37248,"byteLength":2592,"target":34963}],"buffers":[{"byteLength":39840,"uri":"data:application/octet-stream;base64,"}],"accessors":[{"bufferView":0,"componentType":5126,"count":1164,"max":[5649.3330078125,33601.66015625,1097.5997314453125],"min":[4564.53466796875,18835.109375,1030.43603515625],"type":"VEC3"},{"bufferView":1,"componentType":5126,"count":1164,"max":[0.9998220801353455,0.9998183846473694,1],"min":[-0.9998222589492798,-0.9998183846473694,-1],"type":"VEC3"},{"bufferView":2,"componentType":5126,"count":1164,"max":[0.9876514673233032,0.7250306010246277],"min":[0.5089305639266968,0.0069206953048706055],"type":"VEC2"},{"bufferView":3,"componentType":5123,"count":1296,"max":[1163],"min":[0],"type":"SCALAR"}],"materials":[{"pbrMetallicRoughness":{"baseColorFactor":[0.16862745098039217,0.2,0.17254901960784313,1],"metallicFactor":0,"roughnessFactor":1}}],"meshes":[{"primitives":[{"mode":4,"attributes":{"POSITION":0,"NORMAL":1,"TEXCOORD_0":2},"indices":3,"material":0}]}]}