{"asset":{"version":"2.0","generator":"THREE.GLTFExporter"},"scenes":[{"nodes":[0]}],"scene":0,"nodes":[{"matrix":[0.009999999776482582,0,0,0,0,-1.3435885354592524e-9,0.009999999434197103,0,0,-0.009999999434197103,-1.3435885354592524e-9,0,-0.000030517578125,-0.00005812479867017828,0.0002132382505806163,1],"name":"地铁路标02","extras":{"name":"地铁路标02"},"mesh":0}],"bufferViews":[{"buffer":0,"byteOffset":0,"byteLength":1776,"target":34962,"byteStride":12},{"buffer":0,"byteOffset":1776,"byteLength":1776,"target":34962,"byteStride":12},{"buffer":0,"byteOffset":3552,"byteLength":1184,"target":34962,"byteStride":8},{"buffer":0,"byteOffset":4736,"byteLength":360,"target":34963}],"buffers":[{"byteLength":5096,"uri":"data:application/octet-stream;base64,"}],"accessors":[{"bufferView":0,"componentType":5126,"count":148,"max":[9539.6396484375,20083.61328125,-15.827617645263672],"min":[9514.61328125,19999.15625,-629.7454223632812],"type":"VEC3"},{"bufferView":1,"componentType":5126,"count":148,"max":[1,1,1],"min":[-1,-1,-1],"type":"VEC3"},{"bufferView":2,"componentType":5126,"count":148,"max":[0.9748553037643433,0.9812279939651489],"min":[0.02323799580335617,0.015905380249023438],"type":"VEC2"},{"bufferView":3,"componentType":5123,"count":180,"max":[147],"min":[0],"type":"SCALAR"}],"materials":[{"pbrMetallicRoughness":{"baseColorFactor":[0.5254901960784314,0.5411764705882353,0.5254901960784314,1],"metallicFactor":0,"roughnessFactor":1}}],"meshes":[{"primitives":[{"mode":4,"attributes":{"POSITION":0,"NORMAL":1,"TEXCOORD_0":2},"indices":3,"material":0}]}]}