{"asset":{"version":"2.0","generator":"THREE.GLTFExporter"},"scenes":[{"nodes":[0]}],"scene":0,"nodes":[{"matrix":[0.009999999776482582,0,0,0,0,-1.3435885354592524e-9,0.009999999434197103,0,0,-0.009999999434197103,-1.3435885354592524e-9,0,-0.0001678466796875,0.00002995081194967497,0.0004693303199019283,1],"name":"网格.064_3","mesh":0}],"bufferViews":[{"buffer":0,"byteOffset":0,"byteLength":3168,"target":34962,"byteStride":12},{"buffer":0,"byteOffset":3168,"byteLength":3168,"target":34962,"byteStride":12},{"buffer":0,"byteOffset":6336,"byteLength":2112,"target":34962,"byteStride":8},{"buffer":0,"byteOffset":8448,"byteLength":792,"target":34963}],"buffers":[{"byteLength":9240,"uri":"data:application/octet-stream;base64,"}],"accessors":[{"bufferView":0,"componentType":5126,"count":264,"max":[9987.580078125,26094.939453125,-294.9989929199219],"min":[6450.52685546875,20898.046875,-415.5478820800781],"type":"VEC3"},{"bufferView":1,"componentType":5126,"count":264,"max":[1,1,1],"min":[-1,-1,-1],"type":"VEC3"},{"bufferView":2,"componentType":5126,"count":264,"max":[0.7762611508369446,0.5173419713973999],"min":[0.02114170230925083,0.013709068298339844],"type":"VEC2"},{"bufferView":3,"componentType":5123,"count":396,"max":[263],"min":[0],"type":"SCALAR"}],"materials":[{"pbrMetallicRoughness":{"baseColorFactor":[0.5882352941176471,0.5529411764705883,0.5607843137254902,1],"metallicFactor":0,"roughnessFactor":1}}],"meshes":[{"primitives":[{"mode":4,"attributes":{"POSITION":0,"NORMAL":1,"TEXCOORD_0":2},"indices":3,"material":0}]}]}