{"asset":{"version":"2.0","generator":"THREE.GLTFExporter"},"scenes":[{"nodes":[0]}],"scene":0,"nodes":[{"matrix":[0.009999999776482582,0,0,0,0,-1.3435885354592524e-9,0.009999999434197103,0,0,-0.009999999434197103,-1.3435885354592524e-9,0,-0.000194549560546875,-0.00003956793079851195,0,1],"name":"室内-二层-指示牌02","extras":{"name":"室内-二层-指示牌02"},"mesh":0}],"bufferViews":[{"buffer":0,"byteOffset":0,"byteLength":13512,"target":34962,"byteStride":12},{"buffer":0,"byteOffset":13512,"byteLength":13512,"target":34962,"byteStride":12},{"buffer":0,"byteOffset":27024,"byteLength":9008,"target":34962,"byteStride":8},{"buffer":0,"byteOffset":36032,"byteLength":2376,"target":34963}],"buffers":[{"byteLength":38408,"uri":"data:application/octet-stream;base64,"}],"accessors":[{"bufferView":0,"componentType":5126,"count":1126,"max":[5741.50439453125,37154.30078125,568.4541625976562],"min":[4353.26171875,18861.7265625,470.98443603515625],"type":"VEC3"},{"bufferView":1,"componentType":5126,"count":1126,"max":[1,1,1],"min":[-1,-1,-1],"type":"VEC3"},{"bufferView":2,"componentType":5126,"count":1126,"max":[0.9879705309867859,0.7250115275382996],"min":[0.01932273805141449,0.02369391918182373],"type":"VEC2"},{"bufferView":3,"componentType":5123,"count":1188,"max":[1125],"min":[0],"type":"SCALAR"}],"materials":[{"pbrMetallicRoughness":{"baseColorFactor":[0.16862745098039217,0.2,0.17254901960784313,1],"metallicFactor":0,"roughnessFactor":1}}],"meshes":[{"primitives":[{"mode":4,"attributes":{"POSITION":0,"NORMAL":1,"TEXCOORD_0":2},"indices":3,"material":0}]}]}