{"asset":{"version":"2.0","generator":"THREE.GLTFExporter"},"scenes":[{"nodes":[0]}],"scene":0,"nodes":[{"matrix":[0.009999999776482582,0,0,0,0,-1.3435885354592524e-9,0.009999999434197103,0,0,-0.009999999434197103,-1.3435885354592524e-9,0,0,0.000010365973139414564,0,1],"name":"网格.029_2","mesh":0}],"bufferViews":[{"buffer":0,"byteOffset":0,"byteLength":1008,"target":34962,"byteStride":12},{"buffer":0,"byteOffset":1008,"byteLength":1008,"target":34962,"byteStride":12},{"buffer":0,"byteOffset":2016,"byteLength":672,"target":34962,"byteStride":8},{"buffer":0,"byteOffset":2688,"byteLength":396,"target":34963}],"buffers":[{"byteLength":3084,"uri":"data:application/octet-stream;base64,"}],"accessors":[{"bufferView":0,"componentType":5126,"count":84,"max":[5469.337890625,33716.11328125,1339.7822265625],"min":[4770.54541015625,22479.01953125,989.995849609375],"type":"VEC3"},{"bufferView":1,"componentType":5126,"count":84,"max":[1,1,0.00006904127803863958],"min":[-1,-1,-0.00019837611762341112],"type":"VEC3"},{"bufferView":2,"componentType":5126,"count":84,"max":[0.9897489547729492,0.8229808211326599],"min":[0.015115410089492798,0.0112837553024292],"type":"VEC2"},{"bufferView":3,"componentType":5123,"count":198,"max":[83],"min":[0],"type":"SCALAR"}],"materials":[{"pbrMetallicRoughness":{"baseColorFactor":[0.2823529411764706,0.2823529411764706,0.24313725490196078,1],"metallicFactor":0,"roughnessFactor":1}}],"meshes":[{"primitives":[{"mode":4,"attributes":{"POSITION":0,"NORMAL":1,"TEXCOORD_0":2},"indices":3,"material":0}]}]}