{"asset":{"version":"2.0","generator":"THREE.GLTFExporter"},"scenes":[{"nodes":[0]}],"scene":0,"nodes":[{"matrix":[0.009999999776482582,0,0,0,0,-1.3435885354592524e-9,0.009999999434197103,0,0,-0.009999999434197103,-1.3435885354592524e-9,0,0,0.000021361116523621604,0.00003060508242924698,1],"name":"网格019","mesh":0}],"bufferViews":[{"buffer":0,"byteOffset":0,"byteLength":91536,"target":34962,"byteStride":12},{"buffer":0,"byteOffset":91536,"byteLength":91536,"target":34962,"byteStride":12},{"buffer":0,"byteOffset":183072,"byteLength":61024,"target":34962,"byteStride":8},{"buffer":0,"byteOffset":244096,"byteLength":44160,"target":34963}],"buffers":[{"byteLength":288256,"uri":"data:application/octet-stream;base64,"}],"accessors":[{"bufferView":0,"componentType":5126,"count":7628,"max":[4400.19775390625,33604.1796875,350.7783508300781],"min":[4107.6708984375,32523.7890625,-237.32333374023438],"type":"VEC3"},{"bufferView":1,"componentType":5126,"count":7628,"max":[1,1.0000001192092896,1],"min":[-1,-1,-1],"type":"VEC3"},{"bufferView":2,"componentType":5126,"count":7628,"max":[0.9844800233840942,0.9980079531669617],"min":[0.006978000048547983,0.017293989658355713],"type":"VEC2"},{"bufferView":3,"componentType":5123,"count":22080,"max":[7627],"min":[0],"type":"SCALAR"}],"materials":[{"pbrMetallicRoughness":{"baseColorFactor":[0.4000000059604645,0.4000000059604645,0.4000000059604645,1],"metallicFactor":1,"roughnessFactor":0.7487671971321106},"doubleSided":true,"name":"blinn405"}],"meshes":[{"primitives":[{"mode":4,"attributes":{"POSITION":0,"NORMAL":1,"TEXCOORD_0":2},"indices":3,"material":0}]}]}