{"asset":{"version":"2.0","generator":"THREE.GLTFExporter"},"scenes":[{"nodes":[0]}],"scene":0,"nodes":[{"matrix":[0.009999999776482582,0,0,0,0,-1.3435885354592524e-9,0.009999999434197103,0,0,-0.009999999434197103,-1.3435885354592524e-9,0,-0.000274658203125,0.000030318857170641422,0,1],"name":"网格.053_1","mesh":0}],"bufferViews":[{"buffer":0,"byteOffset":0,"byteLength":624,"target":34962,"byteStride":12},{"buffer":0,"byteOffset":624,"byteLength":624,"target":34962,"byteStride":12},{"buffer":0,"byteOffset":1248,"byteLength":416,"target":34962,"byteStride":8},{"buffer":0,"byteOffset":1664,"byteLength":168,"target":34963}],"buffers":[{"byteLength":1832,"uri":"data:application/octet-stream;base64,"}],"accessors":[{"bufferView":0,"componentType":5126,"count":52,"max":[-8172.11474609375,23859.529296875,-13.862060546875],"min":[-10230.6162109375,22548.984375,-600.454345703125],"type":"VEC3"},{"bufferView":1,"componentType":5126,"count":52,"max":[0.998688280582428,0.9986885786056519,0.000006426241270673927],"min":[-0.9986885190010071,-0.998688280582428,-1],"type":"VEC3"},{"bufferView":2,"componentType":5126,"count":52,"max":[0.9990942478179932,0.8744586706161499],"min":[0.0004786588251590729,0.03117048740386963],"type":"VEC2"},{"bufferView":3,"componentType":5123,"count":84,"max":[51],"min":[0],"type":"SCALAR"}],"materials":[{"pbrMetallicRoughness":{"baseColorFactor":[0.2549019607843137,0.25098039215686274,0.24313725490196078,1],"metallicFactor":0,"roughnessFactor":1}}],"meshes":[{"primitives":[{"mode":4,"attributes":{"POSITION":0,"NORMAL":1,"TEXCOORD_0":2},"indices":3,"material":0}]}]}