{"asset":{"version":"2.0","generator":"THREE.GLTFExporter"},"scenes":[{"nodes":[0]}],"scene":0,"nodes":[{"matrix":[0.009999999776482582,0,0,0,0,-1.3435885354592524e-9,0.009999999434197103,0,0,-0.009999999434197103,-1.3435885354592524e-9,0,0,-0.00007557492062915117,0,1],"name":"网格.071_4","mesh":0}],"bufferViews":[{"buffer":0,"byteOffset":0,"byteLength":1332,"target":34962,"byteStride":12},{"buffer":0,"byteOffset":1332,"byteLength":1332,"target":34962,"byteStride":12},{"buffer":0,"byteOffset":2664,"byteLength":888,"target":34962,"byteStride":8},{"buffer":0,"byteOffset":3552,"byteLength":404,"target":34963}],"buffers":[{"byteLength":3956,"uri":"data:application/octet-stream;base64,"}],"accessors":[{"bufferView":0,"componentType":5126,"count":111,"max":[25096.30859375,64997.43359375,0.0008606156334280968],"min":[-24147.93359375,-49300.6640625,-0.004135512746870518],"type":"VEC3"},{"bufferView":1,"componentType":5126,"count":111,"max":[0.000012853713997174054,0.00001358718509436585,-0.9999999403953552],"min":[-0.000013427705198409967,-0.000015477447959710844,-1],"type":"VEC3"},{"bufferView":2,"componentType":5126,"count":111,"max":[6.392653942108154,62.163108825683594],"min":[-4.848067760467529,-35.269344329833984],"type":"VEC2"},{"bufferView":3,"componentType":5123,"count":201,"max":[110],"min":[0],"type":"SCALAR"}],"materials":[{"pbrMetallicRoughness":{"baseColorFactor":[0.27450980392156865,0.27450980392156865,0.2235294117647059,1],"metallicFactor":0,"roughnessFactor":1}}],"meshes":[{"primitives":[{"mode":4,"attributes":{"POSITION":0,"NORMAL":1,"TEXCOORD_0":2},"indices":3,"material":0}]}]}