{"asset":{"version":"2.0","generator":"THREE.GLTFExporter"},"scenes":[{"nodes":[0]}],"scene":0,"nodes":[{"matrix":[0.009999999776482582,0,0,0,0,-1.3435885354592524e-9,0.009999999434197103,0,0,-0.009999999434197103,-1.3435885354592524e-9,0,-0.000213623046875,-0.00038560136454179883,-0.000024872411813703366,1],"name":"树木","extras":{"name":"树木"},"mesh":0}],"bufferViews":[{"buffer":0,"byteOffset":0,"byteLength":384,"target":34962,"byteStride":12},{"buffer":0,"byteOffset":384,"byteLength":384,"target":34962,"byteStride":12},{"buffer":0,"byteOffset":768,"byteLength":256,"target":34962,"byteStride":8},{"buffer":0,"byteOffset":1024,"byteLength":96,"target":34963}],"buffers":[{"byteLength":1120,"uri":"data:application/octet-stream;base64,"}],"accessors":[{"bufferView":0,"componentType":5126,"count":32,"max":[-2389.49169921875,17606.375,-15.095783233642578],"min":[-41845.62109375,-30938.109375,-3313.885986328125],"type":"VEC3"},{"bufferView":1,"componentType":5126,"count":32,"max":[1,1,0],"min":[-0.9452366232872009,-0.9741241931915283,0],"type":"VEC3"},{"bufferView":2,"componentType":5126,"count":32,"max":[5.889598846435547,0.9965533018112183],"min":[-4.873310089111328,0.009804725646972656],"type":"VEC2"},{"bufferView":3,"componentType":5123,"count":48,"max":[31],"min":[0],"type":"SCALAR"}],"materials":[{"pbrMetallicRoughness":{"baseColorFactor":[0.22745098039215686,0.3137254901960784,0.12941176470588237,1],"metallicFactor":0,"roughnessFactor":1}}],"meshes":[{"primitives":[{"mode":4,"attributes":{"POSITION":0,"NORMAL":1,"TEXCOORD_0":2},"indices":3,"material":0}]}]}