{"asset":{"version":"2.0","generator":"THREE.GLTFExporter"},"scenes":[{"nodes":[0]}],"scene":0,"nodes":[{"matrix":[0.009999999776482582,0,0,0,0,-1.3435885354592524e-9,0.009999999434197103,0,0,-0.009999999434197103,-1.3435885354592524e-9,0,-0.000194549560546875,-0.00006308632873697206,0,1],"name":"室内-二层-承重柱","extras":{"name":"室内-二层-承重柱"},"mesh":0}],"bufferViews":[{"buffer":0,"byteOffset":0,"byteLength":5784,"target":34962,"byteStride":12},{"buffer":0,"byteOffset":5784,"byteLength":5784,"target":34962,"byteStride":12},{"buffer":0,"byteOffset":11568,"byteLength":3856,"target":34962,"byteStride":8},{"buffer":0,"byteOffset":15424,"byteLength":2316,"target":34963}],"buffers":[{"byteLength":17740,"uri":"data:application/octet-stream;base64,"}],"accessors":[{"bufferView":0,"componentType":5126,"count":482,"max":[5469.4375,37110.41015625,853.6922607421875],"min":[4770.4453125,17048.296875,503.9058532714844],"type":"VEC3"},{"bufferView":1,"componentType":5126,"count":482,"max":[1,1,0.00006904127803863958],"min":[-1,-1,-0.00024168941308744252],"type":"VEC3"},{"bufferView":2,"componentType":5126,"count":482,"max":[0.9897489547729492,0.8229808211326599],"min":[0.015115410089492798,0.0112837553024292],"type":"VEC2"},{"bufferView":3,"componentType":5123,"count":1158,"max":[481],"min":[0],"type":"SCALAR"}],"materials":[{"pbrMetallicRoughness":{"baseColorFactor":[0.4980392156862745,0.4627450980392157,0.23921568627450981,1],"metallicFactor":0,"roughnessFactor":1}}],"meshes":[{"primitives":[{"mode":4,"attributes":{"POSITION":0,"NORMAL":1,"TEXCOORD_0":2},"indices":3,"material":0}]}]}