{"asset":{"version":"2.0","generator":"THREE.GLTFExporter"},"scenes":[{"nodes":[0]}],"scene":0,"nodes":[{"matrix":[0.009999999776482582,0,0,0,0,-1.3435885354592524e-9,0.009999999434197103,0,0,-0.009999999434197103,-1.3435885354592524e-9,0,-0.00091552734375,0.0004930281429551542,0.000254979298915714,1],"name":"网格.069_4","mesh":0}],"bufferViews":[{"buffer":0,"byteOffset":0,"byteLength":576,"target":34962,"byteStride":12},{"buffer":0,"byteOffset":576,"byteLength":576,"target":34962,"byteStride":12},{"buffer":0,"byteOffset":1152,"byteLength":384,"target":34962,"byteStride":8},{"buffer":0,"byteOffset":1536,"byteLength":120,"target":34963}],"buffers":[{"byteLength":1656,"uri":"data:application/octet-stream;base64,"}],"accessors":[{"bufferView":0,"componentType":5126,"count":48,"max":[34055.9140625,15397.669921875,-12.631668090820312],"min":[31094.23046875,13164.625,-7106.13037109375],"type":"VEC3"},{"bufferView":1,"componentType":5126,"count":48,"max":[0.977859616279602,0.9778595566749573,0.0000015602312259943574],"min":[-0.9778597354888916,-0.9778645634651184,-1],"type":"VEC3"},{"bufferView":2,"componentType":5126,"count":48,"max":[0.9728578925132751,0.9997115731239319],"min":[0.0025231402833014727,-0.0008342266082763672],"type":"VEC2"},{"bufferView":3,"componentType":5123,"count":60,"max":[47],"min":[0],"type":"SCALAR"}],"materials":[{"pbrMetallicRoughness":{"baseColorFactor":[0.6,0.5450980392156862,0.5215686274509804,1],"metallicFactor":0,"roughnessFactor":1}}],"meshes":[{"primitives":[{"mode":4,"attributes":{"POSITION":0,"NORMAL":1,"TEXCOORD_0":2},"indices":3,"material":0}]}]}