{"asset":{"version":"2.0","generator":"THREE.GLTFExporter"},"scenes":[{"nodes":[0]}],"scene":0,"nodes":[{"matrix":[0.009999999776482582,0,0,0,0,-1.3435885354592524e-9,0.009999999434197103,0,0,-0.009999999434197103,-1.3435885354592524e-9,0,-0.0000762939453125,0.000028959251721971668,0.000045929660700494424,1],"name":"网格.015_1","mesh":0}],"bufferViews":[{"buffer":0,"byteOffset":0,"byteLength":13464,"target":34962,"byteStride":12},{"buffer":0,"byteOffset":13464,"byteLength":13464,"target":34962,"byteStride":12},{"buffer":0,"byteOffset":26928,"byteLength":8976,"target":34962,"byteStride":8},{"buffer":0,"byteOffset":35904,"byteLength":7260,"target":34963}],"buffers":[{"byteLength":43164,"uri":"data:application/octet-stream;base64,"}],"accessors":[{"bufferView":0,"componentType":5126,"count":1122,"max":[9209.857421875,19747.240234375,369.06719970703125],"min":[7569.6513671875,19235.263671875,-171.9041748046875],"type":"VEC3"},{"bufferView":1,"componentType":5126,"count":1122,"max":[0.9995149374008179,0.9951887130737305,0.9984753131866455],"min":[-0.9999848008155823,-1,-1],"type":"VEC3"},{"bufferView":2,"componentType":5126,"count":1122,"max":[0.9982577562332153,0.9987003207206726],"min":[0.00016623735427856445,0.00011038780212402344],"type":"VEC2"},{"bufferView":3,"componentType":5123,"count":3630,"max":[1121],"min":[0],"type":"SCALAR"}],"materials":[{"pbrMetallicRoughness":{"baseColorFactor":[0.7333333333333333,0.6470588235294118,0.3568627450980392,1],"metallicFactor":0,"roughnessFactor":1}}],"meshes":[{"primitives":[{"mode":4,"attributes":{"POSITION":0,"NORMAL":1,"TEXCOORD_0":2},"indices":3,"material":0}]}]}