{"asset":{"version":"2.0","generator":"THREE.GLTFExporter"},"scenes":[{"nodes":[0]}],"scene":0,"nodes":[{"matrix":[0.009999999776482582,0,0,0,0,-1.3435885354592524e-9,0.009999999434197103,0,0,-0.009999999434197103,-1.3435885354592524e-9,0,0,0.00003808035035035573,0,1],"name":"室内-三层-天花板","extras":{"name":"室内-三层-天花板"},"mesh":0}],"bufferViews":[{"buffer":0,"byteOffset":0,"byteLength":2964,"target":34962,"byteStride":12},{"buffer":0,"byteOffset":2964,"byteLength":2964,"target":34962,"byteStride":12},{"buffer":0,"byteOffset":5928,"byteLength":1976,"target":34962,"byteStride":8},{"buffer":0,"byteOffset":7904,"byteLength":624,"target":34963}],"buffers":[{"byteLength":8528,"uri":"data:application/octet-stream;base64,"}],"accessors":[{"bufferView":0,"componentType":5126,"count":247,"max":[26205.75390625,53093.3125,503.9058837890625],"min":[-3926.427734375,10394.9150390625,-15.120330810546875],"type":"VEC3"},{"bufferView":1,"componentType":5126,"count":247,"max":[1,1,1],"min":[-1,-1,-1.4617302035446755e-8],"type":"VEC3"},{"bufferView":2,"componentType":5126,"count":247,"max":[65.10414123535156,111.47789001464844],"min":[-64.50636291503906,-110.45475769042969],"type":"VEC2"},{"bufferView":3,"componentType":5123,"count":312,"max":[246],"min":[0],"type":"SCALAR"}],"materials":[{"pbrMetallicRoughness":{"baseColorFactor":[0.9176470588235294,0.9333333333333333,0.9686274509803922,1],"metallicFactor":0,"roughnessFactor":1}}],"meshes":[{"primitives":[{"mode":4,"attributes":{"POSITION":0,"NORMAL":1,"TEXCOORD_0":2},"indices":3,"material":0}]}]}