{"asset":{"version":"2.0","generator":"THREE.GLTFExporter"},"scenes":[{"nodes":[0]}],"scene":0,"nodes":[{"matrix":[0.009999999776482582,0,0,0,0,-1.3435885354592524e-9,0.009999999434197103,0,0,-0.009999999434197103,-1.3435885354592524e-9,0,0.00054931640625,0.000059214125940343365,-0.000462955329567194,1],"name":"网格.050_4","mesh":0}],"bufferViews":[{"buffer":0,"byteOffset":0,"byteLength":1212,"target":34962,"byteStride":12},{"buffer":0,"byteOffset":1212,"byteLength":1212,"target":34962,"byteStride":12},{"buffer":0,"byteOffset":2424,"byteLength":808,"target":34962,"byteStride":8},{"buffer":0,"byteOffset":3232,"byteLength":284,"target":34963}],"buffers":[{"byteLength":3516,"uri":"data:application/octet-stream;base64,"}],"accessors":[{"bufferView":0,"componentType":5126,"count":101,"max":[42732.109375,20780.048828125,-13.8619384765625],"min":[29797.990234375,15514.7236328125,-413.8621826171875],"type":"VEC3"},{"bufferView":1,"componentType":5126,"count":101,"max":[0.9760872721672058,0.9997674226760864,1],"min":[-0.9760869145393372,-0.9760887026786804,-1],"type":"VEC3"},{"bufferView":2,"componentType":5126,"count":101,"max":[0.9989994764328003,0.9978748559951782],"min":[0.0008758306503295898,0.00041234493255615234],"type":"VEC2"},{"bufferView":3,"componentType":5123,"count":141,"max":[100],"min":[0],"type":"SCALAR"}],"materials":[{"pbrMetallicRoughness":{"baseColorFactor":[0.2901960784313726,0.24313725490196078,0.20392156862745098,1],"metallicFactor":0,"roughnessFactor":1}}],"meshes":[{"primitives":[{"mode":4,"attributes":{"POSITION":0,"NORMAL":1,"TEXCOORD_0":2},"indices":3,"material":0}]}]}