{"asset":{"version":"2.0","generator":"THREE.GLTFExporter"},"scenes":[{"nodes":[0]}],"scene":0,"nodes":[{"matrix":[0.009999999776482582,0,0,0,0,-1.3435885354592524e-9,0.009999999434197103,0,0,-0.009999999434197103,-1.3435885354592524e-9,0,0,0.00003645554534159601,0.00003176052268827334,1],"name":"网格.002_2","mesh":0}],"bufferViews":[{"buffer":0,"byteOffset":0,"byteLength":10080,"target":34962,"byteStride":12},{"buffer":0,"byteOffset":10080,"byteLength":10080,"target":34962,"byteStride":12},{"buffer":0,"byteOffset":20160,"byteLength":6720,"target":34962,"byteStride":8},{"buffer":0,"byteOffset":26880,"byteLength":1728,"target":34963}],"buffers":[{"byteLength":28608,"uri":"data:application/octet-stream;base64,"}],"accessors":[{"bufferView":0,"componentType":5126,"count":840,"max":[5155.3134765625,27149.43359375,1338.455810546875],"min":[4860.5439453125,25982.7421875,854.00048828125],"type":"VEC3"},{"bufferView":1,"componentType":5126,"count":840,"max":[1,0.9999999403953552,0.0033154215198010206],"min":[-1,-0.001198458718135953,-1],"type":"VEC3"},{"bufferView":2,"componentType":5126,"count":840,"max":[2.325881242752075,2.5684807300567627],"min":[-1.4238941669464111,-0.37871479988098145],"type":"VEC2"},{"bufferView":3,"componentType":5123,"count":864,"max":[839],"min":[0],"type":"SCALAR"}],"materials":[{"pbrMetallicRoughness":{"baseColorFactor":[0.49411764705882355,0.5137254901960784,0.5254901960784314,1],"metallicFactor":0,"roughnessFactor":1}}],"meshes":[{"primitives":[{"mode":4,"attributes":{"POSITION":0,"NORMAL":1,"TEXCOORD_0":2},"indices":3,"material":0}]}]}