{"asset":{"version":"2.0","generator":"THREE.GLTFExporter"},"scenes":[{"nodes":[0]}],"scene":0,"nodes":[{"matrix":[0.009999999776482582,0,0,0,0,-1.3435885354592524e-9,0.009999999434197103,0,0,-0.009999999434197103,-1.3435885354592524e-9,0,0.0000152587890625,0.00008063480345299467,0.00031878281151875854,1],"name":"网格059","mesh":0}],"bufferViews":[{"buffer":0,"byteOffset":0,"byteLength":528,"target":34962,"byteStride":12},{"buffer":0,"byteOffset":528,"byteLength":528,"target":34962,"byteStride":12},{"buffer":0,"byteOffset":1056,"byteLength":352,"target":34962,"byteStride":8},{"buffer":0,"byteOffset":1408,"byteLength":120,"target":34963}],"buffers":[{"byteLength":1528,"uri":"data:application/octet-stream;base64,"}],"accessors":[{"bufferView":0,"componentType":5126,"count":44,"max":[18304.783203125,26191.95703125,-13.86181640625],"min":[14365.6611328125,22604.349609375,-361.59173583984375],"type":"VEC3"},{"bufferView":1,"componentType":5126,"count":44,"max":[0.7692363858222961,0.7692521214485168,0],"min":[-0.9999257922172546,-0.9454183578491211,-0.000009083260920306202],"type":"VEC3"},{"bufferView":2,"componentType":5126,"count":44,"max":[0.9995366930961609,0.6827995777130127],"min":[0.013329962268471718,0.45934629440307617],"type":"VEC2"},{"bufferView":3,"componentType":5123,"count":60,"max":[43],"min":[0],"type":"SCALAR"}],"materials":[{"pbrMetallicRoughness":{"baseColorFactor":[0.47058823529411764,0.44313725490196076,0.4235294117647059,1],"metallicFactor":0,"roughnessFactor":1}}],"meshes":[{"primitives":[{"mode":4,"attributes":{"POSITION":0,"NORMAL":1,"TEXCOORD_0":2},"indices":3,"material":0}]}]}