{"asset":{"version":"2.0","generator":"THREE.GLTFExporter"},"scenes":[{"nodes":[0]}],"scene":0,"nodes":[{"matrix":[0.009999999776482582,0,0,0,0,-1.3435885354592524e-9,0.009999999434197103,0,0,-0.009999999434197103,-1.3435885354592524e-9,0,0.0004987716674804688,-0.00007878847100073472,-0.00020030514860991389,1],"name":"网格047","mesh":0}],"bufferViews":[{"buffer":0,"byteOffset":0,"byteLength":35940,"target":34962,"byteStride":12},{"buffer":0,"byteOffset":35940,"byteLength":35940,"target":34962,"byteStride":12},{"buffer":0,"byteOffset":71880,"byteLength":23960,"target":34962,"byteStride":8},{"buffer":0,"byteOffset":95840,"byteLength":13560,"target":34963}],"buffers":[{"byteLength":109400,"uri":"data:application/octet-stream;base64,"}],"accessors":[{"bufferView":0,"componentType":5126,"count":2995,"max":[3215.09326171875,16028.1708984375,-15.137158393859863],"min":[-1679.3519287109375,11824.998046875,-3241.133544921875],"type":"VEC3"},{"bufferView":1,"componentType":5126,"count":2995,"max":[1,1,1],"min":[-1,-1,-1],"type":"VEC3"},{"bufferView":2,"componentType":5126,"count":2995,"max":[3.3341612815856934,1.0955238342285156],"min":[-1.9261798858642578,0.0003654956817626953],"type":"VEC2"},{"bufferView":3,"componentType":5123,"count":6780,"max":[2994],"min":[0],"type":"SCALAR"}],"materials":[{"pbrMetallicRoughness":{"baseColorFactor":[0.6509803921568628,0.5647058823529412,0.5529411764705883,1],"metallicFactor":0,"roughnessFactor":1}}],"meshes":[{"primitives":[{"mode":4,"attributes":{"POSITION":0,"NORMAL":1,"TEXCOORD_0":2},"indices":3,"material":0}]}]}