{"asset":{"version":"2.0","generator":"THREE.GLTFExporter"},"scenes":[{"nodes":[0]}],"scene":0,"nodes":[{"matrix":[0.009999999776482582,0,0,0,0,-1.3435885354592524e-9,0.009999999434197103,0,0,-0.009999999434197103,-1.3435885354592524e-9,0,0,0.0009038832504302263,0.00000836012350191595,1],"name":"网格.012_2","mesh":0}],"bufferViews":[{"buffer":0,"byteOffset":0,"byteLength":20328,"target":34962,"byteStride":12},{"buffer":0,"byteOffset":20328,"byteLength":20328,"target":34962,"byteStride":12},{"buffer":0,"byteOffset":40656,"byteLength":13552,"target":34962,"byteStride":8},{"buffer":0,"byteOffset":54208,"byteLength":4896,"target":34963}],"buffers":[{"byteLength":59104,"uri":"data:application/octet-stream;base64,"}],"accessors":[{"bufferView":0,"componentType":5126,"count":1694,"max":[7734.484375,11663.82421875,832.07861328125],"min":[6348.162109375,11195.8623046875,262.665283203125],"type":"VEC3"},{"bufferView":1,"componentType":5126,"count":1694,"max":[0.01158377155661583,1,0.005594940390437841],"min":[-0.012086950242519379,-1,-0.003945834003388882],"type":"VEC3"},{"bufferView":2,"componentType":5126,"count":1694,"max":[0.9999998807907104,0.6836989521980286],"min":[1.1920928955078125e-7,0.20333528518676758],"type":"VEC2"},{"bufferView":3,"componentType":5123,"count":2448,"max":[1693],"min":[0],"type":"SCALAR"}],"materials":[{"pbrMetallicRoughness":{"baseColorFactor":[0.4000000059604645,0.4000000059604645,0.4000000059604645,1],"metallicFactor":1,"roughnessFactor":0.7487671971321106},"doubleSided":true,"name":"DianTi_12_blinn15"}],"meshes":[{"primitives":[{"mode":4,"attributes":{"POSITION":0,"NORMAL":1,"TEXCOORD_0":2},"indices":3,"material":0}]}]}