{"asset":{"version":"2.0","generator":"THREE.GLTFExporter"},"scenes":[{"nodes":[0]}],"scene":0,"nodes":[{"matrix":[0.009999999776482582,0,0,0,0,-1.3435885354592524e-9,0.009999999434197103,0,0,-0.009999999434197103,-1.3435885354592524e-9,0,0.0001201629638671875,-0.00006384645530488342,0,1],"name":"网格.008_2","mesh":0}],"bufferViews":[{"buffer":0,"byteOffset":0,"byteLength":19752,"target":34962,"byteStride":12},{"buffer":0,"byteOffset":19752,"byteLength":19752,"target":34962,"byteStride":12},{"buffer":0,"byteOffset":39504,"byteLength":13168,"target":34962,"byteStride":8},{"buffer":0,"byteOffset":52672,"byteLength":4896,"target":34963}],"buffers":[{"byteLength":57568,"uri":"data:application/octet-stream;base64,"}],"accessors":[{"bufferView":0,"componentType":5126,"count":1646,"max":[3524.9091796875,19078.095703125,832.07861328125],"min":[2138.587890625,18610.13671875,262.665283203125],"type":"VEC3"},{"bufferView":1,"componentType":5126,"count":1646,"max":[0.012196083553135395,1,0.005771977826952934],"min":[-0.01146330963820219,-1.0000001192092896,-0.004233389161527157],"type":"VEC3"},{"bufferView":2,"componentType":5126,"count":1646,"max":[0.9999998807907104,0.6836989521980286],"min":[1.1920928955078125e-7,0.20333528518676758],"type":"VEC2"},{"bufferView":3,"componentType":5123,"count":2448,"max":[1645],"min":[0],"type":"SCALAR"}],"materials":[{"pbrMetallicRoughness":{"baseColorFactor":[0.4000000059604645,0.4000000059604645,0.4000000059604645,1],"metallicFactor":1,"roughnessFactor":0.7487671971321106},"doubleSided":true,"name":"DianTi_12_blinn15"}],"meshes":[{"primitives":[{"mode":4,"attributes":{"POSITION":0,"NORMAL":1,"TEXCOORD_0":2},"indices":3,"material":0}]}]}