{"asset":{"version":"2.0","generator":"THREE.GLTFExporter"},"scenes":[{"nodes":[0]}],"scene":0,"nodes":[{"matrix":[0.009999999776482582,0,0,0,0,-1.3435885354592524e-9,0.009999999434197103,0,0,-0.009999999434197103,-1.3435885354592524e-9,0,0.0001373291015625,0.000026382700525573455,0.00031688474700786173,1],"name":"网格.054_5","mesh":0}],"bufferViews":[{"buffer":0,"byteOffset":0,"byteLength":948,"target":34962,"byteStride":12},{"buffer":0,"byteOffset":948,"byteLength":948,"target":34962,"byteStride":12},{"buffer":0,"byteOffset":1896,"byteLength":632,"target":34962,"byteStride":8},{"buffer":0,"byteOffset":2528,"byteLength":300,"target":34963}],"buffers":[{"byteLength":2828,"uri":"data:application/octet-stream;base64,"}],"accessors":[{"bufferView":0,"componentType":5126,"count":79,"max":[-10566.6025390625,24604.07421875,-600.454345703125],"min":[-11255.9111328125,22598.404296875,-1374.962646484375],"type":"VEC3"},{"bufferView":1,"componentType":5126,"count":79,"max":[0.998859703540802,0.9988596439361572,1],"min":[-0.9988594651222229,-0.9988596439361572,-1],"type":"VEC3"},{"bufferView":2,"componentType":5126,"count":79,"max":[0.9964739680290222,0.9890375733375549],"min":[0.0032266159541904926,0.003045201301574707],"type":"VEC2"},{"bufferView":3,"componentType":5123,"count":150,"max":[78],"min":[0],"type":"SCALAR"}],"materials":[{"pbrMetallicRoughness":{"baseColorFactor":[0.4549019607843137,0.4549019607843137,0.44313725490196076,1],"metallicFactor":0,"roughnessFactor":1}}],"meshes":[{"primitives":[{"mode":4,"attributes":{"POSITION":0,"NORMAL":1,"TEXCOORD_0":2},"indices":3,"material":0}]}]}