{"asset":{"version":"2.0","generator":"THREE.GLTFExporter"},"scenes":[{"nodes":[0]}],"scene":0,"nodes":[{"matrix":[0.009999999776482582,0,0,0,0,-1.3435885354592524e-9,0.009999999434197103,0,0,-0.009999999434197103,-1.3435885354592524e-9,0,0.0000152587890625,0.00008063480345299467,0.00031878281151875854,1],"name":"网格.059_2","mesh":0}],"bufferViews":[{"buffer":0,"byteOffset":0,"byteLength":1440,"target":34962,"byteStride":12},{"buffer":0,"byteOffset":1440,"byteLength":1440,"target":34962,"byteStride":12},{"buffer":0,"byteOffset":2880,"byteLength":960,"target":34962,"byteStride":8},{"buffer":0,"byteOffset":3840,"byteLength":456,"target":34963}],"buffers":[{"byteLength":4296,"uri":"data:application/octet-stream;base64,"}],"accessors":[{"bufferView":0,"componentType":5126,"count":120,"max":[18376.134765625,26278.40234375,-361.5679931640625],"min":[14365.66015625,22604.349609375,-2757.34375],"type":"VEC3"},{"bufferView":1,"componentType":5126,"count":120,"max":[0.9999533295631409,0.9416738748550415,1],"min":[-0.9999257326126099,-0.9454199075698853,-1],"type":"VEC3"},{"bufferView":2,"componentType":5126,"count":120,"max":[1.0710935592651367,0.7360910177230835],"min":[-0.15538808703422546,0.0023446083068847656],"type":"VEC2"},{"bufferView":3,"componentType":5123,"count":228,"max":[119],"min":[0],"type":"SCALAR"}],"materials":[{"pbrMetallicRoughness":{"baseColorFactor":[0.7137254901960784,0.7098039215686275,0.7176470588235294,1],"metallicFactor":0,"roughnessFactor":1}}],"meshes":[{"primitives":[{"mode":4,"attributes":{"POSITION":0,"NORMAL":1,"TEXCOORD_0":2},"indices":3,"material":0}]}]}