{"asset":{"version":"2.0","generator":"THREE.GLTFExporter"},"scenes":[{"nodes":[0]}],"scene":0,"nodes":[{"matrix":[0.009999999776482582,0,0,0,0,-1.3435885354592524e-9,0.009999999434197103,0,0,-0.009999999434197103,-1.3435885354592524e-9,0,0.000003814697265625,0.00009432120714336634,0,1],"name":"室内-一层-地面","extras":{"name":"室内-一层-地面"},"mesh":0}],"bufferViews":[{"buffer":0,"byteOffset":0,"byteLength":276,"target":34962,"byteStride":12},{"buffer":0,"byteOffset":276,"byteLength":276,"target":34962,"byteStride":12},{"buffer":0,"byteOffset":552,"byteLength":184,"target":34962,"byteStride":8},{"buffer":0,"byteOffset":736,"byteLength":72,"target":34963}],"buffers":[{"byteLength":808,"uri":"data:application/octet-stream;base64,"}],"accessors":[{"bufferView":0,"componentType":5126,"count":23,"max":[5782.064453125,37898.296875,1338.1409912109375],"min":[4457.81689453125,16346.4384765625,1338.1409912109375],"type":"VEC3"},{"bufferView":1,"componentType":5126,"count":23,"max":[0,1.477849842501655e-8,-1],"min":[0,-2.589677450259842e-8,-1],"type":"VEC3"},{"bufferView":2,"componentType":5126,"count":23,"max":[1.1419121026992798,12.298187255859375],"min":[-1.0490599870681763,-11.298188209533691],"type":"VEC2"},{"bufferView":3,"componentType":5123,"count":36,"max":[22],"min":[0],"type":"SCALAR"}],"materials":[{"pbrMetallicRoughness":{"baseColorFactor":[0.49411764705882355,0.5137254901960784,0.5254901960784314,1],"metallicFactor":0,"roughnessFactor":1}}],"meshes":[{"primitives":[{"mode":4,"attributes":{"POSITION":0,"NORMAL":1,"TEXCOORD_0":2},"indices":3,"material":0}]}]}