{"asset":{"version":"2.0","generator":"THREE.GLTFExporter"},"scenes":[{"nodes":[0]}],"scene":0,"nodes":[{"matrix":[0.009999999776482582,0,0,0,0,-1.3435885354592524e-9,0.009999999434197103,0,0,-0.009999999434197103,-1.3435885354592524e-9,0,-0.000213623046875,0.00012363967834971845,0.0001959400688065216,1],"name":"网格058","mesh":0}],"bufferViews":[{"buffer":0,"byteOffset":0,"byteLength":3024,"target":34962,"byteStride":12},{"buffer":0,"byteOffset":3024,"byteLength":3024,"target":34962,"byteStride":12},{"buffer":0,"byteOffset":6048,"byteLength":2016,"target":34962,"byteStride":8},{"buffer":0,"byteOffset":8064,"byteLength":672,"target":34963}],"buffers":[{"byteLength":8736,"uri":"data:application/octet-stream;base64,"}],"accessors":[{"bufferView":0,"componentType":5126,"count":252,"max":[20768.3046875,19540.4375,-226.12188720703125],"min":[17511.21484375,18794.787109375,-483.1650085449219],"type":"VEC3"},{"bufferView":1,"componentType":5126,"count":252,"max":[0.9789054989814758,0.9789050817489624,1],"min":[-0.978889524936676,-0.9789283275604248,-1],"type":"VEC3"},{"bufferView":2,"componentType":5126,"count":252,"max":[0.9932490587234497,0.9850630164146423],"min":[0.31684333086013794,0.20953941345214844],"type":"VEC2"},{"bufferView":3,"componentType":5123,"count":336,"max":[251],"min":[0],"type":"SCALAR"}],"materials":[{"pbrMetallicRoughness":{"baseColorFactor":[0.5882352941176471,0.5529411764705883,0.5607843137254902,1],"metallicFactor":0,"roughnessFactor":1}}],"meshes":[{"primitives":[{"mode":4,"attributes":{"POSITION":0,"NORMAL":1,"TEXCOORD_0":2},"indices":3,"material":0}]}]}