{"asset":{"version":"2.0","generator":"THREE.GLTFExporter"},"scenes":[{"nodes":[0]}],"scene":0,"nodes":[{"matrix":[0.009999999776482582,0,0,0,0,-1.3435885354592524e-9,0.009999999434197103,0,0,-0.009999999434197103,-1.3435885354592524e-9,0,-0.0000152587890625,0.0002145460748579353,0.00019326459732837975,1],"name":"网格.065_3","mesh":0}],"bufferViews":[{"buffer":0,"byteOffset":0,"byteLength":6216,"target":34962,"byteStride":12},{"buffer":0,"byteOffset":6216,"byteLength":6216,"target":34962,"byteStride":12},{"buffer":0,"byteOffset":12432,"byteLength":4144,"target":34962,"byteStride":8},{"buffer":0,"byteOffset":16576,"byteLength":1836,"target":34963}],"buffers":[{"byteLength":18412,"uri":"data:application/octet-stream;base64,"}],"accessors":[{"bufferView":0,"componentType":5126,"count":518,"max":[22355.9375,18015.576171875,-13.86175537109375],"min":[16489.1171875,14531.09765625,-8541.958984375],"type":"VEC3"},{"bufferView":1,"componentType":5126,"count":518,"max":[0.9990872144699097,0.9771104454994202,0.0000024780088097031694],"min":[-0.9985853433609009,-0.977107584476471,-1],"type":"VEC3"},{"bufferView":2,"componentType":5126,"count":518,"max":[0.9989020824432373,0.9963215589523315],"min":[0.0000059604644775390625,0.0014497637748718262],"type":"VEC2"},{"bufferView":3,"componentType":5123,"count":918,"max":[517],"min":[0],"type":"SCALAR"}],"materials":[{"pbrMetallicRoughness":{"baseColorFactor":[0.42745098039215684,0.4549019607843137,0.43529411764705883,1],"metallicFactor":0,"roughnessFactor":1}}],"meshes":[{"primitives":[{"mode":4,"attributes":{"POSITION":0,"NORMAL":1,"TEXCOORD_0":2},"indices":3,"material":0}]}]}