{"asset":{"version":"2.0","generator":"THREE.GLTFExporter"},"scenes":[{"nodes":[0]}],"scene":0,"nodes":[{"matrix":[1,0,0,0,0,1,0,0,0,0,1,0,57.63536834716797,-13.373854637145996,290.60809326171875,1],"name":"室内-一层-安全门50","extras":{"name":"室内-一层-安全门50"},"mesh":0}],"bufferViews":[{"buffer":0,"byteOffset":0,"byteLength":360,"target":34962,"byteStride":12},{"buffer":0,"byteOffset":360,"byteLength":360,"target":34962,"byteStride":12},{"buffer":0,"byteOffset":720,"byteLength":240,"target":34962,"byteStride":8},{"buffer":0,"byteOffset":960,"byteLength":72,"target":34963}],"buffers":[{"byteLength":1032,"uri":"data:application/octet-stream;base64,"}],"accessors":[{"bufferView":0,"componentType":5126,"count":30,"max":[0.05805784836411476,2.0296859741210938,1.0182647705078125],"min":[-0.000005502715339389397,0.000003814697265625,0],"type":"VEC3"},{"bufferView":1,"componentType":5126,"count":30,"max":[1,1,1],"min":[-1,-1,-1],"type":"VEC3"},{"bufferView":2,"componentType":5126,"count":30,"max":[0.9995005130767822,0.9995003938674927],"min":[0.0004995465278625488,0.0004996061325073242],"type":"VEC2"},{"bufferView":3,"componentType":5123,"count":36,"max":[29],"min":[0],"type":"SCALAR"}],"materials":[{"pbrMetallicRoughness":{"baseColorFactor":[0.5176470588235295,0.5176470588235295,0.5058823529411764,1],"metallicFactor":0,"roughnessFactor":1}}],"meshes":[{"primitives":[{"mode":4,"attributes":{"POSITION":0,"NORMAL":1,"TEXCOORD_0":2},"indices":3,"material":0}]}]}