{"asset":{"version":"2.0","generator":"THREE.GLTFExporter"},"scenes":[{"nodes":[0]}],"scene":0,"nodes":[{"matrix":[0.009999999776482582,0,0,0,0,-1.3435885354592524e-9,0.009999999434197103,0,0,-0.009999999434197103,-1.3435885354592524e-9,0,-0.00000762939453125,-0.00018427040777169168,-0.00027949202922172844,1],"name":"网格062","mesh":0}],"bufferViews":[{"buffer":0,"byteOffset":0,"byteLength":960,"target":34962,"byteStride":12},{"buffer":0,"byteOffset":960,"byteLength":960,"target":34962,"byteStride":12},{"buffer":0,"byteOffset":1920,"byteLength":640,"target":34962,"byteStride":8},{"buffer":0,"byteOffset":2560,"byteLength":264,"target":34963}],"buffers":[{"byteLength":2824,"uri":"data:application/octet-stream;base64,"}],"accessors":[{"bufferView":0,"componentType":5126,"count":80,"max":[18145.259765625,42542.7109375,-969.98486328125],"min":[6946.072265625,39062.125,-8095.95068359375],"type":"VEC3"},{"bufferView":1,"componentType":5126,"count":80,"max":[1,1,1],"min":[-1,-1,-1],"type":"VEC3"},{"bufferView":2,"componentType":5126,"count":80,"max":[1.45925772190094,0.9620716571807861],"min":[-0.48138654232025146,0.0020937323570251465],"type":"VEC2"},{"bufferView":3,"componentType":5123,"count":132,"max":[79],"min":[0],"type":"SCALAR"}],"materials":[{"pbrMetallicRoughness":{"baseColorFactor":[0.6627450980392157,0.6666666666666666,0.6666666666666666,1],"metallicFactor":0,"roughnessFactor":1}}],"meshes":[{"primitives":[{"mode":4,"attributes":{"POSITION":0,"NORMAL":1,"TEXCOORD_0":2},"indices":3,"material":0}]}]}