{"asset":{"version":"2.0","generator":"THREE.GLTFExporter"},"scenes":[{"nodes":[0]}],"scene":0,"nodes":[{"matrix":[0.009999999776482582,0,0,0,0,-1.3435885354592524e-9,0.009999999434197103,0,0,-0.009999999434197103,-1.3435885354592524e-9,0,0.00006866455078125,0.00003732365075848065,0,1],"name":"室内-二层-天花板","extras":{"name":"室内-二层-天花板"},"mesh":0}],"bufferViews":[{"buffer":0,"byteOffset":0,"byteLength":2352,"target":34962,"byteStride":12},{"buffer":0,"byteOffset":2352,"byteLength":2352,"target":34962,"byteStride":12},{"buffer":0,"byteOffset":4704,"byteLength":1568,"target":34962,"byteStride":8},{"buffer":0,"byteOffset":6272,"byteLength":480,"target":34963}],"buffers":[{"byteLength":6752,"uri":"data:application/octet-stream;base64,"}],"accessors":[{"bufferView":0,"componentType":5126,"count":196,"max":[6119.3291015625,52277.46875,503.9058837890625],"min":[4119.3291015625,11141.23046875,503.90582275390625],"type":"VEC3"},{"bufferView":1,"componentType":5126,"count":196,"max":[2.3437084450961265e-7,2.7218789000471588e-8,1],"min":[-2.3437003449089389e-7,-1.5704650024872535e-7,0.9999999403953552],"type":"VEC3"},{"bufferView":2,"componentType":5126,"count":196,"max":[0.6435471177101135,15.932026863098145],"min":[0.01370614767074585,-14.932026863098145],"type":"VEC2"},{"bufferView":3,"componentType":5123,"count":240,"max":[195],"min":[0],"type":"SCALAR"}],"materials":[{"pbrMetallicRoughness":{"baseColorFactor":[0.611764705882353,0.596078431372549,0.5568627450980392,1],"metallicFactor":0,"roughnessFactor":1}}],"meshes":[{"primitives":[{"mode":4,"attributes":{"POSITION":0,"NORMAL":1,"TEXCOORD_0":2},"indices":3,"material":0}]}]}