{"asset":{"version":"2.0","generator":"THREE.GLTFExporter"},"scenes":[{"nodes":[0]}],"scene":0,"nodes":[{"matrix":[0.009999999776482582,0,0,0,0,-1.3435885354592524e-9,0.009999999434197103,0,0,-0.009999999434197103,-1.3435885354592524e-9,0,0.00000762939453125,-0.000004764839104609564,0.00003192705844412558,1],"name":"网格.026_2","mesh":0}],"bufferViews":[{"buffer":0,"byteOffset":0,"byteLength":5448,"target":34962,"byteStride":12},{"buffer":0,"byteOffset":5448,"byteLength":5448,"target":34962,"byteStride":12},{"buffer":0,"byteOffset":10896,"byteLength":3632,"target":34962,"byteStride":8},{"buffer":0,"byteOffset":14528,"byteLength":972,"target":34963}],"buffers":[{"byteLength":15500,"uri":"data:application/octet-stream;base64,"}],"accessors":[{"bufferView":0,"componentType":5126,"count":454,"max":[5742.1591796875,36398.69140625,1107.560302734375],"min":[5741.1240234375,17792.52734375,1074.1993408203125],"type":"VEC3"},{"bufferView":1,"componentType":5126,"count":454,"max":[-0.999518632888794,0.00000503658338857349,0.03102288767695427],"min":[-0.9995202422142029,-0.0000021072412437206367,0.030973151326179504],"type":"VEC3"},{"bufferView":2,"componentType":5126,"count":454,"max":[0.8097255825996399,0.6399756669998169],"min":[0.016416609287261963,0.014319181442260742],"type":"VEC2"},{"bufferView":3,"componentType":5123,"count":486,"max":[453],"min":[0],"type":"SCALAR"}],"materials":[{"pbrMetallicRoughness":{"baseColorFactor":[0.8901960784313725,0.8862745098039215,0.8862745098039215,1],"metallicFactor":0,"roughnessFactor":1}}],"meshes":[{"primitives":[{"mode":4,"attributes":{"POSITION":0,"NORMAL":1,"TEXCOORD_0":2},"indices":3,"material":0}]}]}