{"asset":{"version":"2.0","generator":"THREE.GLTFExporter"},"scenes":[{"nodes":[0]}],"scene":0,"nodes":[{"matrix":[0.009999999776482582,0,0,0,0,-1.3435885354592524e-9,0.009999999434197103,0,0,-0.009999999434197103,-1.3435885354592524e-9,0,0.000213623046875,-0.000043975800508633256,0.00023953097115736455,1],"name":"网格048","mesh":0}],"bufferViews":[{"buffer":0,"byteOffset":0,"byteLength":2352,"target":34962,"byteStride":12},{"buffer":0,"byteOffset":2352,"byteLength":2352,"target":34962,"byteStride":12},{"buffer":0,"byteOffset":4704,"byteLength":1568,"target":34962,"byteStride":8},{"buffer":0,"byteOffset":6272,"byteLength":696,"target":34963}],"buffers":[{"byteLength":6968,"uri":"data:application/octet-stream;base64,"}],"accessors":[{"bufferView":0,"componentType":5126,"count":196,"max":[28111.6796875,22522.609375,-12.538818359375],"min":[23279.138671875,18946.88671875,-7721.16650390625],"type":"VEC3"},{"bufferView":1,"componentType":5126,"count":196,"max":[0.7500545978546143,0.9960269331932068,0.0000020837794636463514],"min":[-0.7500550746917725,-0.9962601065635681,-1],"type":"VEC3"},{"bufferView":2,"componentType":5126,"count":196,"max":[0.9992164373397827,0.9994522333145142],"min":[-0.0002473592758178711,0.0001819133758544922],"type":"VEC2"},{"bufferView":3,"componentType":5123,"count":348,"max":[195],"min":[0],"type":"SCALAR"}],"materials":[{"pbrMetallicRoughness":{"baseColorFactor":[0.45098039215686275,0.4627450980392157,0.47058823529411764,1],"metallicFactor":0,"roughnessFactor":1}}],"meshes":[{"primitives":[{"mode":4,"attributes":{"POSITION":0,"NORMAL":1,"TEXCOORD_0":2},"indices":3,"material":0}]}]}