{"asset":{"version":"2.0","generator":"THREE.GLTFExporter"},"scenes":[{"nodes":[0]}],"scene":0,"nodes":[{"matrix":[0.009999999776482582,0,0,0,0,-1.3435885354592524e-9,0.009999999434197103,0,0,-0.009999999434197103,-1.3435885354592524e-9,0,-0.000213623046875,0.00012363967834971845,0.0001959400688065216,1],"name":"网格.058_3","mesh":0}],"bufferViews":[{"buffer":0,"byteOffset":0,"byteLength":4488,"target":34962,"byteStride":12},{"buffer":0,"byteOffset":4488,"byteLength":4488,"target":34962,"byteStride":12},{"buffer":0,"byteOffset":8976,"byteLength":2992,"target":34962,"byteStride":8},{"buffer":0,"byteOffset":11968,"byteLength":1524,"target":34963}],"buffers":[{"byteLength":13492,"uri":"data:application/octet-stream;base64,"}],"accessors":[{"bufferView":0,"componentType":5126,"count":374,"max":[22408.099609375,22491.224609375,-361.5918884277344],"min":[17526.125,18559.009765625,-4053.2568359375],"type":"VEC3"},{"bufferView":1,"componentType":5126,"count":374,"max":[0.9823809862136841,0.9822198152542114,1],"min":[-0.9851664304733276,-0.9820261001586914,-1],"type":"VEC3"},{"bufferView":2,"componentType":5126,"count":374,"max":[0.9879330396652222,0.9784426689147949],"min":[0.031690359115600586,0.020743966102600098],"type":"VEC2"},{"bufferView":3,"componentType":5123,"count":762,"max":[373],"min":[0],"type":"SCALAR"}],"materials":[{"pbrMetallicRoughness":{"baseColorFactor":[0.6941176470588235,0.6941176470588235,0.6745098039215687,1],"metallicFactor":0,"roughnessFactor":1}}],"meshes":[{"primitives":[{"mode":4,"attributes":{"POSITION":0,"NORMAL":1,"TEXCOORD_0":2},"indices":3,"material":0}]}]}