{"asset":{"version":"2.0","generator":"THREE.GLTFExporter"},"scenes":[{"nodes":[0]}],"scene":0,"nodes":[{"matrix":[0.009999999776482582,0,0,0,0,-1.3435885354592524e-9,0.009999999434197103,0,0,-0.009999999434197103,-1.3435885354592524e-9,0,-0.00091552734375,0.0004930281429551542,0.000254979298915714,1],"name":"网格.069_7","mesh":0}],"bufferViews":[{"buffer":0,"byteOffset":0,"byteLength":2460,"target":34962,"byteStride":12},{"buffer":0,"byteOffset":2460,"byteLength":2460,"target":34962,"byteStride":12},{"buffer":0,"byteOffset":4920,"byteLength":1640,"target":34962,"byteStride":8},{"buffer":0,"byteOffset":6560,"byteLength":792,"target":34963}],"buffers":[{"byteLength":7352,"uri":"data:application/octet-stream;base64,"}],"accessors":[{"bufferView":0,"componentType":5126,"count":205,"max":[41574.98828125,13443.552734375,-12.631057739257812],"min":[39349.953125,10976.796875,-6797.076171875],"type":"VEC3"},{"bufferView":1,"componentType":5126,"count":205,"max":[0.9762726426124573,0.9762731790542603,0.000043620231735985726],"min":[-0.9762725830078125,-0.97627192735672,-1],"type":"VEC3"},{"bufferView":2,"componentType":5126,"count":205,"max":[0.8418009877204895,0.9851381778717041],"min":[0.0008402466773986816,0.013603568077087402],"type":"VEC2"},{"bufferView":3,"componentType":5123,"count":396,"max":[204],"min":[0],"type":"SCALAR"}],"materials":[{"pbrMetallicRoughness":{"baseColorFactor":[0.7529411764705882,0.7607843137254902,0.7529411764705882,1],"metallicFactor":0,"roughnessFactor":1}}],"meshes":[{"primitives":[{"mode":4,"attributes":{"POSITION":0,"NORMAL":1,"TEXCOORD_0":2},"indices":3,"material":0}]}]}