{"asset":{"version":"2.0","generator":"THREE.GLTFExporter"},"scenes":[{"nodes":[0]}],"scene":0,"nodes":[{"matrix":[0.009999999776482582,0,0,0,0,-1.3435885354592524e-9,0.009999999434197103,0,0,-0.009999999434197103,-1.3435885354592524e-9,0,-0.000194549560546875,0.000007624821591889486,0,1],"name":"室内-二层-电梯出口提示版","extras":{"name":"室内-二层-电梯出口提示版"},"mesh":0}],"bufferViews":[{"buffer":0,"byteOffset":0,"byteLength":576,"target":34962,"byteStride":12},{"buffer":0,"byteOffset":576,"byteLength":576,"target":34962,"byteStride":12},{"buffer":0,"byteOffset":1152,"byteLength":384,"target":34962,"byteStride":8},{"buffer":0,"byteOffset":1536,"byteLength":144,"target":34963}],"buffers":[{"byteLength":1680,"uri":"data:application/octet-stream;base64,"}],"accessors":[{"bufferView":0,"componentType":5126,"count":48,"max":[6117.33203125,40283.05078125,854.4578857421875],"min":[4122.55078125,11709.27734375,502.86175537109375],"type":"VEC3"},{"bufferView":1,"componentType":5126,"count":48,"max":[1,0,0],"min":[-1,-1,0],"type":"VEC3"},{"bufferView":2,"componentType":5126,"count":48,"max":[0.9938217997550964,0.6546722650527954],"min":[0.0015668384730815887,0.0037308931350708008],"type":"VEC2"},{"bufferView":3,"componentType":5123,"count":72,"max":[47],"min":[0],"type":"SCALAR"}],"materials":[{"pbrMetallicRoughness":{"baseColorFactor":[0.6862745098039216,0.7647058823529411,0.6549019607843137,1],"metallicFactor":0,"roughnessFactor":1}}],"meshes":[{"primitives":[{"mode":4,"attributes":{"POSITION":0,"NORMAL":1,"TEXCOORD_0":2},"indices":3,"material":0}]}]}