{"asset":{"version":"2.0","generator":"THREE.GLTFExporter"},"scenes":[{"nodes":[0]}],"scene":0,"nodes":[{"matrix":[0.009999999776482582,0,0,0,0,-1.3435885354592524e-9,0.009999999434197103,0,0,-0.009999999434197103,-1.3435885354592524e-9,0,-0.000217437744140625,-0.00009052271343534812,-0.00001444855206500506,1],"name":"网格046","mesh":0}],"bufferViews":[{"buffer":0,"byteOffset":0,"byteLength":3312,"target":34962,"byteStride":12},{"buffer":0,"byteOffset":3312,"byteLength":3312,"target":34962,"byteStride":12},{"buffer":0,"byteOffset":6624,"byteLength":2208,"target":34962,"byteStride":8},{"buffer":0,"byteOffset":8832,"byteLength":1080,"target":34963}],"buffers":[{"byteLength":9912,"uri":"data:application/octet-stream;base64,"}],"accessors":[{"bufferView":0,"componentType":5126,"count":276,"max":[5816.6142578125,21876.955078125,853.6553955078125],"min":[5546.6142578125,21451.13671875,531.997314453125],"type":"VEC3"},{"bufferView":1,"componentType":5126,"count":276,"max":[0.999178946018219,1.0000001192092896,1],"min":[-0.9991788864135742,-1.0000001192092896,-1],"type":"VEC3"},{"bufferView":2,"componentType":5126,"count":276,"max":[0.9900805354118347,0.5876968502998352],"min":[0.19759225845336914,0.3696187734603882],"type":"VEC2"},{"bufferView":3,"componentType":5123,"count":540,"max":[275],"min":[0],"type":"SCALAR"}],"materials":[{"pbrMetallicRoughness":{"baseColorFactor":[0.396078431372549,0.3686274509803922,0.2823529411764706,1],"metallicFactor":0,"roughnessFactor":1}}],"meshes":[{"primitives":[{"mode":4,"attributes":{"POSITION":0,"NORMAL":1,"TEXCOORD_0":2},"indices":3,"material":0}]}]}