{"asset":{"version":"2.0","generator":"THREE.GLTFExporter"},"scenes":[{"nodes":[0]}],"scene":0,"nodes":[{"matrix":[0.009999999776482582,0,0,0,0,-1.3435885354592524e-9,0.009999999434197103,0,0,-0.009999999434197103,-1.3435885354592524e-9,0,0,-0.00007557492062915117,0,1],"name":"网格.071_1","mesh":0}],"bufferViews":[{"buffer":0,"byteOffset":0,"byteLength":336,"target":34962,"byteStride":12},{"buffer":0,"byteOffset":336,"byteLength":336,"target":34962,"byteStride":12},{"buffer":0,"byteOffset":672,"byteLength":224,"target":34962,"byteStride":8},{"buffer":0,"byteOffset":896,"byteLength":120,"target":34963}],"buffers":[{"byteLength":1016,"uri":"data:application/octet-stream;base64,"}],"accessors":[{"bufferView":0,"componentType":5126,"count":28,"max":[6382.7734375,64168.18359375,0.0008220551535487175],"min":[4826.23828125,-48750.87890625,-0.00411148089915514],"type":"VEC3"},{"bufferView":1,"componentType":5126,"count":28,"max":[0.016107182949781418,7.08342042798904e-7,-0.9998703002929688],"min":[-0.000053551699238596484,-1.2562456674913847e-7,-1],"type":"VEC3"},{"bufferView":2,"componentType":5126,"count":28,"max":[0.9982299208641052,101.97127532958984],"min":[0.0006113648414611816,-9.045783042907715],"type":"VEC2"},{"bufferView":3,"componentType":5123,"count":60,"max":[27],"min":[0],"type":"SCALAR"}],"materials":[{"pbrMetallicRoughness":{"baseColorFactor":[0.22745098039215686,0.23529411764705882,0.21568627450980393,1],"metallicFactor":0,"roughnessFactor":1}}],"meshes":[{"primitives":[{"mode":4,"attributes":{"POSITION":0,"NORMAL":1,"TEXCOORD_0":2},"indices":3,"material":0}]}]}