{"asset":{"version":"2.0","generator":"THREE.GLTFExporter"},"scenes":[{"nodes":[0]}],"scene":0,"nodes":[{"matrix":[0.009999999776482582,0,0,0,0,-1.3435885354592524e-9,0.009999999434197103,0,0,-0.009999999434197103,-1.3435885354592524e-9,0,0,0.00006755410868208855,0,1],"name":"网格.013_1","mesh":0}],"bufferViews":[{"buffer":0,"byteOffset":0,"byteLength":6744,"target":34962,"byteStride":12},{"buffer":0,"byteOffset":6744,"byteLength":6744,"target":34962,"byteStride":12},{"buffer":0,"byteOffset":13488,"byteLength":4496,"target":34962,"byteStride":8},{"buffer":0,"byteOffset":17984,"byteLength":3636,"target":34963}],"buffers":[{"byteLength":21620,"uri":"data:application/octet-stream;base64,"}],"accessors":[{"bufferView":0,"componentType":5126,"count":562,"max":[8015.9521484375,26777.427734375,853.4551391601562],"min":[6375.7470703125,26556.5,312.4837646484375],"type":"VEC3"},{"bufferView":1,"componentType":5126,"count":562,"max":[0.9995511770248413,0.9950802326202393,0.9984756112098694],"min":[-0.9999901056289673,-1,-1],"type":"VEC3"},{"bufferView":2,"componentType":5126,"count":562,"max":[0.9982577562332153,0.9987003207206726],"min":[0.00016623735427856445,0.00011038780212402344],"type":"VEC2"},{"bufferView":3,"componentType":5123,"count":1818,"max":[561],"min":[0],"type":"SCALAR"}],"materials":[{"pbrMetallicRoughness":{"baseColorFactor":[0.7333333333333333,0.6470588235294118,0.3568627450980392,1],"metallicFactor":0,"roughnessFactor":1}}],"meshes":[{"primitives":[{"mode":4,"attributes":{"POSITION":0,"NORMAL":1,"TEXCOORD_0":2},"indices":3,"material":0}]}]}