{"asset":{"version":"2.0","generator":"THREE.GLTFExporter"},"scenes":[{"nodes":[0]}],"scene":0,"nodes":[{"matrix":[0.009999999776482582,0,0,0,0,-1.3435885354592524e-9,0.009999999434197103,0,0,-0.009999999434197103,-1.3435885354592524e-9,0,-0.00023651123046875,-0.00025849658413790166,-0.00021842661953996867,1],"name":"网格.061_1","mesh":0}],"bufferViews":[{"buffer":0,"byteOffset":0,"byteLength":240,"target":34962,"byteStride":12},{"buffer":0,"byteOffset":240,"byteLength":240,"target":34962,"byteStride":12},{"buffer":0,"byteOffset":480,"byteLength":160,"target":34962,"byteStride":8},{"buffer":0,"byteOffset":640,"byteLength":60,"target":34963}],"buffers":[{"byteLength":700,"uri":"data:application/octet-stream;base64,"}],"accessors":[{"bufferView":0,"componentType":5126,"count":20,"max":[9995.7099609375,47634.9765625,-13.8616943359375],"min":[6659.1162109375,43479.71875,-713.8618774414062],"type":"VEC3"},{"bufferView":1,"componentType":5126,"count":20,"max":[1,1,0],"min":[-1,-1,-1],"type":"VEC3"},{"bufferView":2,"componentType":5126,"count":20,"max":[0.848281741142273,0.7747935056686401],"min":[0.0006151497364044189,0.0849231481552124],"type":"VEC2"},{"bufferView":3,"componentType":5123,"count":30,"max":[19],"min":[0],"type":"SCALAR"}],"materials":[{"pbrMetallicRoughness":{"baseColorFactor":[0.6235294117647059,0.6078431372549019,0.6,1],"metallicFactor":0,"roughnessFactor":1}}],"meshes":[{"primitives":[{"mode":4,"attributes":{"POSITION":0,"NORMAL":1,"TEXCOORD_0":2},"indices":3,"material":0}]}]}