{"asset":{"version":"2.0","generator":"THREE.GLTFExporter"},"scenes":[{"nodes":[0]}],"scene":0,"nodes":[{"matrix":[0.009999999776482582,0,0,0,0,-1.3435885354592524e-9,0.009999999434197103,0,0,-0.009999999434197103,-1.3435885354592524e-9,0,0.000335693359375,-0.00009252235031453893,0,1],"name":"人行道","extras":{"name":"人行道"},"mesh":0}],"bufferViews":[{"buffer":0,"byteOffset":0,"byteLength":86652,"target":34962,"byteStride":12},{"buffer":0,"byteOffset":86652,"byteLength":86652,"target":34962,"byteStride":12},{"buffer":0,"byteOffset":173304,"byteLength":57768,"target":34962,"byteStride":8},{"buffer":0,"byteOffset":231072,"byteLength":27024,"target":34963}],"buffers":[{"byteLength":258096,"uri":"data:application/octet-stream;base64,"}],"accessors":[{"bufferView":0,"componentType":5126,"count":7221,"max":[67874.8671875,66271.234375,18.194650650024414],"min":[-47417.90234375,-52362.046875,-15.187469482421875],"type":"VEC3"},{"bufferView":1,"componentType":5126,"count":7221,"max":[1,1,0.0053615025244653225],"min":[-1,-0.9999998211860657,-1.0000001192092896],"type":"VEC3"},{"bufferView":2,"componentType":5126,"count":7221,"max":[252.07382202148438,239.8765106201172],"min":[-251.07382202148438,-238.8279266357422],"type":"VEC2"},{"bufferView":3,"componentType":5123,"count":13512,"max":[7220],"min":[0],"type":"SCALAR"}],"materials":[{"pbrMetallicRoughness":{"baseColorFactor":[0.6,0.6,0.6,1],"metallicFactor":0,"roughnessFactor":1}}],"meshes":[{"primitives":[{"mode":4,"attributes":{"POSITION":0,"NORMAL":1,"TEXCOORD_0":2},"indices":3,"material":0}]}]}