{"asset":{"version":"2.0","generator":"THREE.GLTFExporter"},"scenes":[{"nodes":[0]}],"scene":0,"nodes":[{"matrix":[0.009999999776482582,0,0,0,0,-1.3435885354592524e-9,0.009999999434197103,0,0,-0.009999999434197103,-1.3435885354592524e-9,0,0,0.000017441621821490116,-0.00038612502976320684,1],"name":"网格.057_4","mesh":0}],"bufferViews":[{"buffer":0,"byteOffset":0,"byteLength":7920,"target":34962,"byteStride":12},{"buffer":0,"byteOffset":7920,"byteLength":7920,"target":34962,"byteStride":12},{"buffer":0,"byteOffset":15840,"byteLength":5280,"target":34962,"byteStride":8},{"buffer":0,"byteOffset":21120,"byteLength":1824,"target":34963}],"buffers":[{"byteLength":22944,"uri":"data:application/octet-stream;base64,"}],"accessors":[{"bufferView":0,"componentType":5126,"count":660,"max":[17177.087890625,21081.33984375,-190.9408416748047],"min":[10581.1572265625,19208.87109375,-1481.4329833984375],"type":"VEC3"},{"bufferView":1,"componentType":5126,"count":660,"max":[0.9865265488624573,0.9865151047706604,1],"min":[-0.9865222573280334,-0.9865626692771912,-1],"type":"VEC3"},{"bufferView":2,"componentType":5126,"count":660,"max":[0.9932490587234497,0.9632077217102051],"min":[0.008737391792237759,0.009489476680755615],"type":"VEC2"},{"bufferView":3,"componentType":5123,"count":912,"max":[659],"min":[0],"type":"SCALAR"}],"materials":[{"pbrMetallicRoughness":{"baseColorFactor":[0.5882352941176471,0.5529411764705883,0.5607843137254902,1],"metallicFactor":0,"roughnessFactor":1}}],"meshes":[{"primitives":[{"mode":4,"attributes":{"POSITION":0,"NORMAL":1,"TEXCOORD_0":2},"indices":3,"material":0}]}]}