{"asset":{"version":"2.0","generator":"THREE.GLTFExporter"},"scenes":[{"nodes":[0]}],"scene":0,"nodes":[{"matrix":[0.009999999776482582,0,0,0,0,-1.3435885354592524e-9,0.009999999434197103,0,0,-0.009999999434197103,-1.3435885354592524e-9,0,-0.00018310546875,0.000054436797654489055,0,1],"name":"室内-一层-扶梯墙壁","extras":{"name":"室内-一层-扶梯墙壁"},"mesh":0}],"bufferViews":[{"buffer":0,"byteOffset":0,"byteLength":9984,"target":34962,"byteStride":12},{"buffer":0,"byteOffset":9984,"byteLength":9984,"target":34962,"byteStride":12},{"buffer":0,"byteOffset":19968,"byteLength":6656,"target":34962,"byteStride":8},{"buffer":0,"byteOffset":26624,"byteLength":2100,"target":34963}],"buffers":[{"byteLength":28724,"uri":"data:application/octet-stream;base64,"}],"accessors":[{"bufferView":0,"componentType":5126,"count":832,"max":[5399.337890625,35197.2890625,1030.26220703125],"min":[4840.54296875,19332.50390625,741.2265014648438],"type":"VEC3"},{"bufferView":1,"componentType":5126,"count":832,"max":[1,1,1],"min":[-1,-1,-1],"type":"VEC3"},{"bufferView":2,"componentType":5126,"count":832,"max":[4.846592903137207,4.492098331451416],"min":[-3.8465912342071533,-3.3999404907226562],"type":"VEC2"},{"bufferView":3,"componentType":5123,"count":1050,"max":[831],"min":[0],"type":"SCALAR"}],"materials":[{"pbrMetallicRoughness":{"baseColorFactor":[0.30980392156862746,0.30980392156862746,0.27058823529411763,1],"metallicFactor":0,"roughnessFactor":1}}],"meshes":[{"primitives":[{"mode":4,"attributes":{"POSITION":0,"NORMAL":1,"TEXCOORD_0":2},"indices":3,"material":0}]}]}