{"asset":{"version":"2.0","generator":"THREE.GLTFExporter"},"scenes":[{"nodes":[0]}],"scene":0,"nodes":[{"matrix":[0.009999999776482582,0,0,0,0,-1.3435885354592524e-9,0.009999999434197103,0,0,-0.009999999434197103,-1.3435885354592524e-9,0,0.000095367431640625,0.000036613026168197393,0.00003060543167521246,1],"name":"网格.016_2","mesh":0}],"bufferViews":[{"buffer":0,"byteOffset":0,"byteLength":8940,"target":34962,"byteStride":12},{"buffer":0,"byteOffset":8940,"byteLength":8940,"target":34962,"byteStride":12},{"buffer":0,"byteOffset":17880,"byteLength":5960,"target":34962,"byteStride":8},{"buffer":0,"byteOffset":23840,"byteLength":1728,"target":34963}],"buffers":[{"byteLength":25568,"uri":"data:application/octet-stream;base64,"}],"accessors":[{"bufferView":0,"componentType":5126,"count":745,"max":[3108.7041015625,19310.5703125,369.4961242675781],"min":[1942.01123046875,19115.896484375,-114.9591064453125],"type":"VEC3"},{"bufferView":1,"componentType":5126,"count":745,"max":[0.0011874331394210458,1,0.0033253019209951162],"min":[-0.9999996423721313,-1,-1],"type":"VEC3"},{"bufferView":2,"componentType":5126,"count":745,"max":[2.325881242752075,2.5684807300567627],"min":[-1.4238941669464111,-0.37871479988098145],"type":"VEC2"},{"bufferView":3,"componentType":5123,"count":864,"max":[744],"min":[0],"type":"SCALAR"}],"materials":[{"pbrMetallicRoughness":{"baseColorFactor":[0.49411764705882355,0.5137254901960784,0.5254901960784314,1],"metallicFactor":0,"roughnessFactor":1}}],"meshes":[{"primitives":[{"mode":4,"attributes":{"POSITION":0,"NORMAL":1,"TEXCOORD_0":2},"indices":3,"material":0}]}]}