{"asset":{"version":"2.0","generator":"THREE.GLTFExporter"},"scenes":[{"nodes":[0]}],"scene":0,"nodes":[{"matrix":[0.009999999776482582,0,0,0,0,-1.3435885354592524e-9,0.009999999434197103,0,0,-0.009999999434197103,-1.3435885354592524e-9,0,0.0001373291015625,0.000026382700525573455,0.00031688474700786173,1],"name":"网格.054_1","mesh":0}],"bufferViews":[{"buffer":0,"byteOffset":0,"byteLength":1752,"target":34962,"byteStride":12},{"buffer":0,"byteOffset":1752,"byteLength":1752,"target":34962,"byteStride":12},{"buffer":0,"byteOffset":3504,"byteLength":1168,"target":34962,"byteStride":8},{"buffer":0,"byteOffset":4672,"byteLength":444,"target":34963}],"buffers":[{"byteLength":5116,"uri":"data:application/octet-stream;base64,"}],"accessors":[{"bufferView":0,"componentType":5126,"count":146,"max":[-10566.5986328125,24946.48046875,-13.862060546875],"min":[-18413.896484375,22626.8359375,-1374.962646484375],"type":"VEC3"},{"bufferView":1,"componentType":5126,"count":146,"max":[0.9988594055175781,0.9988594651222229,1],"min":[-0.9988593459129333,-0.9988593459129333,-1],"type":"VEC3"},{"bufferView":2,"componentType":5126,"count":146,"max":[0.9995368719100952,0.8114898204803467],"min":[-0.002660095691680908,0.0014830231666564941],"type":"VEC2"},{"bufferView":3,"componentType":5123,"count":222,"max":[145],"min":[0],"type":"SCALAR"}],"materials":[{"pbrMetallicRoughness":{"baseColorFactor":[0.33725490196078434,0.3254901960784314,0.30196078431372547,1],"metallicFactor":0,"roughnessFactor":1}}],"meshes":[{"primitives":[{"mode":4,"attributes":{"POSITION":0,"NORMAL":1,"TEXCOORD_0":2},"indices":3,"material":0}]}]}