{"asset":{"version":"2.0","generator":"THREE.GLTFExporter"},"scenes":[{"nodes":[0]}],"scene":0,"nodes":[{"matrix":[0.009999999776482582,0,0,0,0,-1.3435885354592524e-9,0.009999999434197103,0,0,-0.009999999434197103,-1.3435885354592524e-9,0,-0.00012969970703125,0.000035037315683439374,-0.00023126951418817043,1],"name":"网格.052_1","mesh":0}],"bufferViews":[{"buffer":0,"byteOffset":0,"byteLength":9648,"target":34962,"byteStride":12},{"buffer":0,"byteOffset":9648,"byteLength":9648,"target":34962,"byteStride":12},{"buffer":0,"byteOffset":19296,"byteLength":6432,"target":34962,"byteStride":8},{"buffer":0,"byteOffset":25728,"byteLength":2856,"target":34963}],"buffers":[{"byteLength":28584,"uri":"data:application/octet-stream;base64,"}],"accessors":[{"bufferView":0,"componentType":5126,"count":804,"max":[-2361.72021484375,24121.494140625,-300.310546875],"min":[-7478.8798828125,22010.390625,-3992.008056640625],"type":"VEC3"},{"bufferView":1,"componentType":5126,"count":804,"max":[0.9991119503974915,0.9991127252578735,1],"min":[-0.9991120100021362,-0.9998001456260681,-1],"type":"VEC3"},{"bufferView":2,"componentType":5126,"count":804,"max":[0.9998199343681335,0.9997366666793823],"min":[0.0013360305456444621,0.0006369948387145996],"type":"VEC2"},{"bufferView":3,"componentType":5123,"count":1428,"max":[803],"min":[0],"type":"SCALAR"}],"materials":[{"pbrMetallicRoughness":{"baseColorFactor":[0.5450980392156862,0.5490196078431373,0.5411764705882353,1],"metallicFactor":0,"roughnessFactor":1}}],"meshes":[{"primitives":[{"mode":4,"attributes":{"POSITION":0,"NORMAL":1,"TEXCOORD_0":2},"indices":3,"material":0}]}]}