{"asset":{"version":"2.0","generator":"THREE.GLTFExporter"},"scenes":[{"nodes":[0]}],"scene":0,"nodes":[{"matrix":[0.009999999776482582,0,0,0,0,-1.3435885354592524e-9,0.009999999434197103,0,0,-0.009999999434197103,-1.3435885354592524e-9,0,-0.000003814697265625,0.000009416158718522638,0.00003192925578332506,1],"name":"室内-一层-无障碍电梯01","extras":{"name":"室内-一层-无障碍电梯01"},"mesh":0}],"bufferViews":[{"buffer":0,"byteOffset":0,"byteLength":552,"target":34962,"byteStride":12},{"buffer":0,"byteOffset":552,"byteLength":552,"target":34962,"byteStride":12},{"buffer":0,"byteOffset":1104,"byteLength":368,"target":34962,"byteStride":8},{"buffer":0,"byteOffset":1472,"byteLength":312,"target":34963}],"buffers":[{"byteLength":1784,"uri":"data:application/octet-stream;base64,"}],"accessors":[{"bufferView":0,"componentType":5126,"count":46,"max":[4992.6630859375,28838.755859375,1338.1409912109375],"min":[4660.34033203125,28558.94140625,1030.26220703125],"type":"VEC3"},{"bufferView":1,"componentType":5126,"count":46,"max":[1,1,0.9992920756340027],"min":[-1,-1,-0.9992923736572266],"type":"VEC3"},{"bufferView":2,"componentType":5126,"count":46,"max":[0.9790364503860474,0.9885711073875427],"min":[0.0017479319358244538,0.2479216456413269],"type":"VEC2"},{"bufferView":3,"componentType":5123,"count":156,"max":[45],"min":[0],"type":"SCALAR"}],"materials":[{"pbrMetallicRoughness":{"baseColorFactor":[0.396078431372549,0.3686274509803922,0.2823529411764706,1],"metallicFactor":0,"roughnessFactor":1}}],"meshes":[{"primitives":[{"mode":4,"attributes":{"POSITION":0,"NORMAL":1,"TEXCOORD_0":2},"indices":3,"material":0}]}]}