{"asset":{"version":"2.0","generator":"THREE.GLTFExporter"},"scenes":[{"nodes":[0]}],"scene":0,"nodes":[{"matrix":[0.009999999776482582,0,0,0,0,-1.3435885354592524e-9,0.009999999434197103,0,0,-0.009999999434197103,-1.3435885354592524e-9,0,0,-0.00007557492062915117,0,1],"name":"网格071","mesh":0}],"bufferViews":[{"buffer":0,"byteOffset":0,"byteLength":6552,"target":34962,"byteStride":12},{"buffer":0,"byteOffset":6552,"byteLength":6552,"target":34962,"byteStride":12},{"buffer":0,"byteOffset":13104,"byteLength":4368,"target":34962,"byteStride":8},{"buffer":0,"byteOffset":17472,"byteLength":3020,"target":34963}],"buffers":[{"byteLength":20492,"uri":"data:application/octet-stream;base64,"}],"accessors":[{"bufferView":0,"componentType":5126,"count":546,"max":[63673.9765625,65203.51953125,0.0008674627169966698],"min":[-24637.205078125,-51524.06640625,-0.006271049380302429],"type":"VEC3"},{"bufferView":1,"componentType":5126,"count":546,"max":[0.004213315900415182,0.003054057015106082,-0.9999911785125732],"min":[-0.0031377123668789864,-0.002876260317862034,-1],"type":"VEC3"},{"bufferView":2,"componentType":5126,"count":546,"max":[48.566070556640625,78.64230346679688],"min":[-17.00200080871582,-9.658759117126465],"type":"VEC2"},{"bufferView":3,"componentType":5123,"count":1509,"max":[545],"min":[0],"type":"SCALAR"}],"materials":[{"pbrMetallicRoughness":{"baseColorFactor":[0.22745098039215686,0.23529411764705882,0.21568627450980393,1],"metallicFactor":0,"roughnessFactor":1}}],"meshes":[{"primitives":[{"mode":4,"attributes":{"POSITION":0,"NORMAL":1,"TEXCOORD_0":2},"indices":3,"material":0}]}]}