{"asset":{"version":"2.0","generator":"THREE.GLTFExporter"},"scenes":[{"nodes":[0]}],"scene":0,"nodes":[{"matrix":[0.009999999776482582,0,0,0,0,-1.3435885354592524e-9,0.009999999434197103,0,0,-0.009999999434197103,-1.3435885354592524e-9,0,0,-0.00004279718268662691,0,1],"name":"网格.004_1","mesh":0}],"bufferViews":[{"buffer":0,"byteOffset":0,"byteLength":6696,"target":34962,"byteStride":12},{"buffer":0,"byteOffset":6696,"byteLength":6696,"target":34962,"byteStride":12},{"buffer":0,"byteOffset":13392,"byteLength":4464,"target":34962,"byteStride":8},{"buffer":0,"byteOffset":17856,"byteLength":3636,"target":34963}],"buffers":[{"byteLength":21492,"uri":"data:application/octet-stream;base64,"}],"accessors":[{"bufferView":0,"componentType":5126,"count":558,"max":[5375.5810546875,24119.224609375,1338.02685546875],"min":[5154.65234375,22479.01953125,797.0555419921875],"type":"VEC3"},{"bufferView":1,"componentType":5126,"count":558,"max":[0.9999999403953552,0.9995665550231934,0.998475193977356],"min":[-0.9952029585838318,-0.9999927282333374,-1],"type":"VEC3"},{"bufferView":2,"componentType":5126,"count":558,"max":[0.9982577562332153,0.9987003207206726],"min":[0.00016623735427856445,0.00011038780212402344],"type":"VEC2"},{"bufferView":3,"componentType":5123,"count":1818,"max":[557],"min":[0],"type":"SCALAR"}],"materials":[{"pbrMetallicRoughness":{"baseColorFactor":[0.7333333333333333,0.6470588235294118,0.3568627450980392,1],"metallicFactor":0,"roughnessFactor":1}}],"meshes":[{"primitives":[{"mode":4,"attributes":{"POSITION":0,"NORMAL":1,"TEXCOORD_0":2},"indices":3,"material":0}]}]}