{"asset":{"version":"2.0","generator":"THREE.GLTFExporter"},"scenes":[{"nodes":[0]}],"scene":0,"nodes":[{"matrix":[0.009999999776482582,0,0,0,0,-1.3435885354592524e-9,0.009999999434197103,0,0,-0.009999999434197103,-1.3435885354592524e-9,0,0,0.00003808082692557946,0,1],"name":"室内-二层-墙壁","extras":{"name":"室内-二层-墙壁"},"mesh":0}],"bufferViews":[{"buffer":0,"byteOffset":0,"byteLength":4776,"target":34962,"byteStride":12},{"buffer":0,"byteOffset":4776,"byteLength":4776,"target":34962,"byteStride":12},{"buffer":0,"byteOffset":9552,"byteLength":3184,"target":34962,"byteStride":8},{"buffer":0,"byteOffset":12736,"byteLength":1076,"target":34963}],"buffers":[{"byteLength":13812,"uri":"data:application/octet-stream;base64,"}],"accessors":[{"bufferView":0,"componentType":5126,"count":398,"max":[26205.75390625,53093.3125,854.4578857421875],"min":[-3926.4296875,10395.7158203125,-476.47845458984375],"type":"VEC3"},{"bufferView":1,"componentType":5126,"count":398,"max":[1,1,0.000009349770152766723],"min":[-1,-1,-0.00004542607712210156],"type":"VEC3"},{"bufferView":2,"componentType":5126,"count":398,"max":[162.45947265625,1108.90234375],"min":[-161.61019897460938,-1112.9677734375],"type":"VEC2"},{"bufferView":3,"componentType":5123,"count":537,"max":[397],"min":[0],"type":"SCALAR"}],"materials":[{"pbrMetallicRoughness":{"baseColorFactor":[0.788235294117647,0.788235294117647,0.788235294117647,1],"metallicFactor":0,"roughnessFactor":1}}],"meshes":[{"primitives":[{"mode":4,"attributes":{"POSITION":0,"NORMAL":1,"TEXCOORD_0":2},"indices":3,"material":0}]}]}