{"asset":{"version":"2.0","generator":"THREE.GLTFExporter"},"scenes":[{"nodes":[0]}],"scene":0,"nodes":[{"matrix":[0.009999999776482582,0,0,0,0,-1.3435885354592524e-9,0.009999999434197103,0,0,-0.009999999434197103,-1.3435885354592524e-9,0,-0.00000762939453125,0.00002251533260277938,-0.00023271673126146197,1],"name":"网格.060_3","mesh":0}],"bufferViews":[{"buffer":0,"byteOffset":0,"byteLength":1296,"target":34962,"byteStride":12},{"buffer":0,"byteOffset":1296,"byteLength":1296,"target":34962,"byteStride":12},{"buffer":0,"byteOffset":2592,"byteLength":864,"target":34962,"byteStride":8},{"buffer":0,"byteOffset":3456,"byteLength":420,"target":34963}],"buffers":[{"byteLength":3876,"uri":"data:application/octet-stream;base64,"}],"accessors":[{"bufferView":0,"componentType":5126,"count":108,"max":[14227.6103515625,25423.484375,-13.862129211425781],"min":[12495.951171875,23446.087890625,-6420.0263671875],"type":"VEC3"},{"bufferView":1,"componentType":5126,"count":108,"max":[0.9999257922172546,0.9999258518218994,0.000010316452971892431],"min":[-0.9999257326126099,-0.9999258518218994,-1],"type":"VEC3"},{"bufferView":2,"componentType":5126,"count":108,"max":[0.9606316685676575,0.7698702812194824],"min":[0.07611691951751709,0.001984834671020508],"type":"VEC2"},{"bufferView":3,"componentType":5123,"count":210,"max":[107],"min":[0],"type":"SCALAR"}],"materials":[{"pbrMetallicRoughness":{"baseColorFactor":[0.6784313725490196,0.6745098039215687,0.6705882352941176,1],"metallicFactor":0,"roughnessFactor":1}}],"meshes":[{"primitives":[{"mode":4,"attributes":{"POSITION":0,"NORMAL":1,"TEXCOORD_0":2},"indices":3,"material":0}]}]}