{"asset":{"version":"2.0","generator":"THREE.GLTFExporter"},"scenes":[{"nodes":[0]}],"scene":0,"nodes":[{"matrix":[0.009999999776482582,0,0,0,0,-1.3435885354592524e-9,0.009999999434197103,0,0,-0.009999999434197103,-1.3435885354592524e-9,0,-0.000274658203125,-0.0004639452963601798,0.0000075927837315248325,1],"name":"网格.074_1","mesh":0}],"bufferViews":[{"buffer":0,"byteOffset":0,"byteLength":19200,"target":34962,"byteStride":12},{"buffer":0,"byteOffset":19200,"byteLength":19200,"target":34962,"byteStride":12},{"buffer":0,"byteOffset":38400,"byteLength":12800,"target":34962,"byteStride":8},{"buffer":0,"byteOffset":51200,"byteLength":5760,"target":34963}],"buffers":[{"byteLength":56960,"uri":"data:application/octet-stream;base64,"}],"accessors":[{"bufferView":0,"componentType":5126,"count":1600,"max":[5656.14453125,64816.96875,0.4331762492656708],"min":[5550.2314453125,-49538.1484375,-64.52664947509766],"type":"VEC3"},{"bufferView":1,"componentType":5126,"count":1600,"max":[1,1,3.675279174331081e-7],"min":[-1,-1,-1],"type":"VEC3"},{"bufferView":2,"componentType":5126,"count":1600,"max":[-29.84749412536621,102.2920913696289],"min":[-98.70784759521484,-101.29017639160156],"type":"VEC2"},{"bufferView":3,"componentType":5123,"count":2880,"max":[1599],"min":[0],"type":"SCALAR"}],"materials":[{"pbrMetallicRoughness":{"baseColorFactor":[0.5333333333333333,0.5333333333333333,0.5215686274509804,1],"metallicFactor":0,"roughnessFactor":1}}],"meshes":[{"primitives":[{"mode":4,"attributes":{"POSITION":0,"NORMAL":1,"TEXCOORD_0":2},"indices":3,"material":0}]}]}