{"asset":{"version":"2.0","generator":"THREE.GLTFExporter"},"scenes":[{"nodes":[0]}],"scene":0,"nodes":[{"matrix":[0.009999999776482582,0,0,0,0,-1.3435885354592524e-9,0.009999999434197103,0,0,-0.009999999434197103,-1.3435885354592524e-9,0,0.00000762939453125,-0.000004764839104609564,0.00003192705844412558,1],"name":"网格.026_1","mesh":0}],"bufferViews":[{"buffer":0,"byteOffset":0,"byteLength":291936,"target":34962,"byteStride":12},{"buffer":0,"byteOffset":291936,"byteLength":291936,"target":34962,"byteStride":12},{"buffer":0,"byteOffset":583872,"byteLength":194624,"target":34962,"byteStride":8},{"buffer":0,"byteOffset":778496,"byteLength":72432,"target":34963}],"buffers":[{"byteLength":850928,"uri":"data:application/octet-stream;base64,"}],"accessors":[{"bufferView":0,"componentType":5126,"count":24328,"max":[5800.5322265625,36869.58984375,1338.574951171875],"min":[5569.205078125,17536.341796875,1026.1392822265625],"type":"VEC3"},{"bufferView":1,"componentType":5126,"count":24328,"max":[1,1,1.0000001192092896],"min":[-1,-1.0000001192092896,-1],"type":"VEC3"},{"bufferView":2,"componentType":5126,"count":24328,"max":[0.995907187461853,0.9980635643005371],"min":[0.09191599488258362,0.06173741817474365],"type":"VEC2"},{"bufferView":3,"componentType":5123,"count":36216,"max":[24327],"min":[0],"type":"SCALAR"}],"materials":[{"pbrMetallicRoughness":{"baseColorFactor":[0.38823529411764707,0.3607843137254902,0.34901960784313724,1],"metallicFactor":0,"roughnessFactor":1}}],"meshes":[{"primitives":[{"mode":4,"attributes":{"POSITION":0,"NORMAL":1,"TEXCOORD_0":2},"indices":3,"material":0}]}]}