{"asset":{"version":"2.0","generator":"THREE.GLTFExporter"},"scenes":[{"nodes":[0]}],"scene":0,"nodes":[{"matrix":[0.009999999776482582,0,0,0,0,-1.3435885354592524e-9,0.009999999434197103,0,0,-0.009999999434197103,-1.3435885354592524e-9,0,0.000213623046875,-0.000043975800508633256,0.00023953097115736455,1],"name":"网格.048_1","mesh":0}],"bufferViews":[{"buffer":0,"byteOffset":0,"byteLength":816,"target":34962,"byteStride":12},{"buffer":0,"byteOffset":816,"byteLength":816,"target":34962,"byteStride":12},{"buffer":0,"byteOffset":1632,"byteLength":544,"target":34962,"byteStride":8},{"buffer":0,"byteOffset":2176,"byteLength":240,"target":34963}],"buffers":[{"byteLength":2416,"uri":"data:application/octet-stream;base64,"}],"accessors":[{"bufferView":0,"componentType":5126,"count":68,"max":[28236.12109375,22628.84765625,-12.538818359375],"min":[23065.203125,18792.001953125,-447.981201171875],"type":"VEC3"},{"bufferView":1,"componentType":5126,"count":68,"max":[0.704551100730896,0.7500665187835693,1],"min":[-0.7040795683860779,-0.9963892698287964,-1],"type":"VEC3"},{"bufferView":2,"componentType":5126,"count":68,"max":[0.9937306642532349,0.3890618085861206],"min":[0.0016865730285644531,-0.00036776065826416016],"type":"VEC2"},{"bufferView":3,"componentType":5123,"count":120,"max":[67],"min":[0],"type":"SCALAR"}],"materials":[{"pbrMetallicRoughness":{"baseColorFactor":[0.403921568627451,0.4,0.3843137254901961,1],"metallicFactor":0,"roughnessFactor":1}}],"meshes":[{"primitives":[{"mode":4,"attributes":{"POSITION":0,"NORMAL":1,"TEXCOORD_0":2},"indices":3,"material":0}]}]}