{"asset":{"version":"2.0","generator":"THREE.GLTFExporter"},"scenes":[{"nodes":[0]}],"scene":0,"nodes":[{"matrix":[0.009999999776482582,0,0,0,0,-1.3435885354592524e-9,0.009999999434197103,0,0,-0.009999999434197103,-1.3435885354592524e-9,0,-0.00091552734375,0.0004930281429551542,0.000254979298915714,1],"name":"网格.069_11","mesh":0}],"bufferViews":[{"buffer":0,"byteOffset":0,"byteLength":3120,"target":34962,"byteStride":12},{"buffer":0,"byteOffset":3120,"byteLength":3120,"target":34962,"byteStride":12},{"buffer":0,"byteOffset":6240,"byteLength":2080,"target":34962,"byteStride":8},{"buffer":0,"byteOffset":8320,"byteLength":960,"target":34963}],"buffers":[{"byteLength":9280,"uri":"data:application/octet-stream;base64,"}],"accessors":[{"bufferView":0,"componentType":5126,"count":260,"max":[47280.12890625,12682.3671875,-12.631240844726562],"min":[41248.14453125,9830.068359375,-6797.0771484375],"type":"VEC3"},{"bufferView":1,"componentType":5126,"count":260,"max":[0.976282000541687,0.9762802720069885,0.00004805229400517419],"min":[-0.9762819409370422,-0.9762803316116333,-1.0000001192092896],"type":"VEC3"},{"bufferView":2,"componentType":5126,"count":260,"max":[0.9904987812042236,1.0033633708953857],"min":[-0.013857603073120117,0.020211637020111084],"type":"VEC2"},{"bufferView":3,"componentType":5123,"count":480,"max":[259],"min":[0],"type":"SCALAR"}],"materials":[{"pbrMetallicRoughness":{"baseColorFactor":[0.7725490196078432,0.788235294117647,0.7490196078431373,1],"metallicFactor":0,"roughnessFactor":1}}],"meshes":[{"primitives":[{"mode":4,"attributes":{"POSITION":0,"NORMAL":1,"TEXCOORD_0":2},"indices":3,"material":0}]}]}