{"asset":{"version":"2.0","generator":"THREE.GLTFExporter"},"scenes":[{"nodes":[0]}],"scene":0,"nodes":[{"matrix":[0.009999999776482582,0,0,0,0,-1.3435885354592524e-9,0.009999999434197103,0,0,-0.009999999434197103,-1.3435885354592524e-9,0,0.000019073486328125,-0.00043694564374163747,-0.000029852439183741808,1],"name":"网格.009_2","mesh":0}],"bufferViews":[{"buffer":0,"byteOffset":0,"byteLength":10248,"target":34962,"byteStride":12},{"buffer":0,"byteOffset":10248,"byteLength":10248,"target":34962,"byteStride":12},{"buffer":0,"byteOffset":20496,"byteLength":6832,"target":34962,"byteStride":8},{"buffer":0,"byteOffset":27328,"byteLength":1740,"target":34963}],"buffers":[{"byteLength":29068,"uri":"data:application/octet-stream;base64,"}],"accessors":[{"bufferView":0,"componentType":5126,"count":854,"max":[4707.177734375,45897.046875,853.756591796875],"min":[4483.63330078125,44259.91015625,369.3013610839844],"type":"VEC3"},{"bufferView":1,"componentType":5126,"count":854,"max":[1,0.0011868136934936047,0.003553427755832672],"min":[-1,-0.9999997615814209,-1],"type":"VEC3"},{"bufferView":2,"componentType":5126,"count":854,"max":[2.3109006881713867,2.9470653533935547],"min":[-1.4592585563659668,-0.6365453004837036],"type":"VEC2"},{"bufferView":3,"componentType":5123,"count":870,"max":[853],"min":[0],"type":"SCALAR"}],"materials":[{"pbrMetallicRoughness":{"baseColorFactor":[0.49411764705882355,0.5137254901960784,0.5254901960784314,1],"metallicFactor":0,"roughnessFactor":1}}],"meshes":[{"primitives":[{"mode":4,"attributes":{"POSITION":0,"NORMAL":1,"TEXCOORD_0":2},"indices":3,"material":0}]}]}