{"asset":{"version":"2.0","generator":"THREE.GLTFExporter"},"scenes":[{"nodes":[0]}],"scene":0,"nodes":[{"matrix":[0.009999999776482582,0,0,0,0,-1.3435885354592524e-9,0.009999999434197103,0,0,-0.009999999434197103,-1.3435885354592524e-9,0,0.0001373291015625,0.000026382700525573455,0.00031688474700786173,1],"name":"网格.054_2","mesh":0}],"bufferViews":[{"buffer":0,"byteOffset":0,"byteLength":960,"target":34962,"byteStride":12},{"buffer":0,"byteOffset":960,"byteLength":960,"target":34962,"byteStride":12},{"buffer":0,"byteOffset":1920,"byteLength":640,"target":34962,"byteStride":8},{"buffer":0,"byteOffset":2560,"byteLength":264,"target":34963}],"buffers":[{"byteLength":2824,"uri":"data:application/octet-stream;base64,"}],"accessors":[{"bufferView":0,"componentType":5126,"count":80,"max":[-15797.3466796875,24946.482421875,-1374.962890625],"min":[-18392.8984375,23385.888671875,-5941.765625],"type":"VEC3"},{"bufferView":1,"componentType":5126,"count":80,"max":[0.9988594055175781,0.9988595843315125,0],"min":[-0.9988594055175781,-0.9988596439361572,-1],"type":"VEC3"},{"bufferView":2,"componentType":5126,"count":80,"max":[0.9909085631370544,0.8339222073554993],"min":[0.020598575472831726,0.015057563781738281],"type":"VEC2"},{"bufferView":3,"componentType":5123,"count":132,"max":[79],"min":[0],"type":"SCALAR"}],"materials":[{"pbrMetallicRoughness":{"baseColorFactor":[0.7372549019607844,0.7176470588235294,0.6862745098039216,1],"metallicFactor":0,"roughnessFactor":1}}],"meshes":[{"primitives":[{"mode":4,"attributes":{"POSITION":0,"NORMAL":1,"TEXCOORD_0":2},"indices":3,"material":0}]}]}