{"asset":{"version":"2.0","generator":"THREE.GLTFExporter"},"scenes":[{"nodes":[0]}],"scene":0,"nodes":[{"matrix":[0.009999999776482582,0,0,0,0,-1.3435885354592524e-9,0.009999999434197103,0,0,-0.009999999434197103,-1.3435885354592524e-9,0,0.000003814697265625,0.000022277272364590317,0,1],"name":"网格003","mesh":0}],"bufferViews":[{"buffer":0,"byteOffset":0,"byteLength":19308,"target":34962,"byteStride":12},{"buffer":0,"byteOffset":19308,"byteLength":19308,"target":34962,"byteStride":12},{"buffer":0,"byteOffset":38616,"byteLength":12872,"target":34962,"byteStride":8},{"buffer":0,"byteOffset":51488,"byteLength":5832,"target":34963}],"buffers":[{"byteLength":57320,"uri":"data:application/octet-stream;base64,"}],"accessors":[{"bufferView":0,"componentType":5126,"count":1609,"max":[5378.04052734375,27465.00390625,1450.725341796875],"min":[5154.560546875,25910.0546875,750.8529052734375],"type":"VEC3"},{"bufferView":1,"componentType":5126,"count":1609,"max":[1,1,0.9999859929084778],"min":[-1,-1,-1],"type":"VEC3"},{"bufferView":2,"componentType":5126,"count":1609,"max":[0.9980080127716064,0.9980446696281433],"min":[0.0019920903723686934,0.005939066410064697],"type":"VEC2"},{"bufferView":3,"componentType":5123,"count":2916,"max":[1608],"min":[0],"type":"SCALAR"}],"materials":[{"pbrMetallicRoughness":{"baseColorFactor":[0.5137254901960784,0.5215686274509804,0.5372549019607843,1],"metallicFactor":0,"roughnessFactor":1}}],"meshes":[{"primitives":[{"mode":4,"attributes":{"POSITION":0,"NORMAL":1,"TEXCOORD_0":2},"indices":3,"material":0}]}]}