{"asset":{"version":"2.0","generator":"THREE.GLTFExporter"},"scenes":[{"nodes":[0]}],"scene":0,"nodes":[{"matrix":[0.009999999776482582,0,0,0,0,-1.3435885354592524e-9,0.009999999434197103,0,0,-0.009999999434197103,-1.3435885354592524e-9,0,0,-0.00003393051156308502,0,1],"name":"网格001","mesh":0}],"bufferViews":[{"buffer":0,"byteOffset":0,"byteLength":39180,"target":34962,"byteStride":12},{"buffer":0,"byteOffset":39180,"byteLength":39180,"target":34962,"byteStride":12},{"buffer":0,"byteOffset":78360,"byteLength":26120,"target":34962,"byteStride":8},{"buffer":0,"byteOffset":104480,"byteLength":12036,"target":34963}],"buffers":[{"byteLength":116516,"uri":"data:application/octet-stream;base64,"}],"accessors":[{"bufferView":0,"componentType":5126,"count":3265,"max":[5375.07177734375,31514.5,1450.725341796875],"min":[4860.54541015625,29959.548828125,750.8529052734375],"type":"VEC3"},{"bufferView":1,"componentType":5126,"count":3265,"max":[1,1,0.9999851584434509],"min":[-1.0000001192092896,-1,-1],"type":"VEC3"},{"bufferView":2,"componentType":5126,"count":3265,"max":[0.9980080127716064,0.9980446696281433],"min":[0.0019920903723686934,0.005939066410064697],"type":"VEC2"},{"bufferView":3,"componentType":5123,"count":6018,"max":[3264],"min":[0],"type":"SCALAR"}],"materials":[{"pbrMetallicRoughness":{"baseColorFactor":[0.5137254901960784,0.5215686274509804,0.5372549019607843,1],"metallicFactor":0,"roughnessFactor":1}}],"meshes":[{"primitives":[{"mode":4,"attributes":{"POSITION":0,"NORMAL":1,"TEXCOORD_0":2},"indices":3,"material":0}]}]}