{"asset":{"version":"2.0","generator":"THREE.GLTFExporter"},"scenes":[{"nodes":[0]}],"scene":0,"nodes":[{"matrix":[0.009999999776482582,0,0,0,0,-1.3435885354592524e-9,0.009999999434197103,0,0,-0.009999999434197103,-1.3435885354592524e-9,0,-0.00048828125,-0.00008157232514349744,-0.00008212398097384721,1],"name":"E_Qu2","extras":{"name":"E_Qu2"},"mesh":0}],"bufferViews":[{"buffer":0,"byteOffset":0,"byteLength":4320,"target":34962,"byteStride":12},{"buffer":0,"byteOffset":4320,"byteLength":4320,"target":34962,"byteStride":12},{"buffer":0,"byteOffset":8640,"byteLength":2880,"target":34962,"byteStride":8},{"buffer":0,"byteOffset":11520,"byteLength":1452,"target":34963}],"buffers":[{"byteLength":12972,"uri":"data:application/octet-stream;base64,"}],"accessors":[{"bufferView":0,"componentType":5126,"count":360,"max":[49739.85546875,21355.49609375,-13.862060546875],"min":[46209.46484375,14588.8544921875,-9767.310546875],"type":"VEC3"},{"bufferView":1,"componentType":5126,"count":360,"max":[0.9998906254768372,0.9998905658721924,1],"min":[-0.9958024621009827,-0.9994128346443176,-1],"type":"VEC3"},{"bufferView":2,"componentType":5126,"count":360,"max":[2.4070777893066406,0.9986838102340698],"min":[0.0012485980987548828,0.0004836916923522949],"type":"VEC2"},{"bufferView":3,"componentType":5123,"count":726,"max":[359],"min":[0],"type":"SCALAR"}],"materials":[{"pbrMetallicRoughness":{"baseColorFactor":[0.5137254901960784,0.5215686274509804,0.5333333333333333,1],"metallicFactor":0,"roughnessFactor":1}}],"meshes":[{"primitives":[{"mode":4,"attributes":{"POSITION":0,"NORMAL":1,"TEXCOORD_0":2},"indices":3,"material":0}]}]}