{"asset":{"version":"2.0","generator":"THREE.GLTFExporter"},"scenes":[{"nodes":[0]}],"scene":0,"nodes":[{"matrix":[0.009999999776482582,0,0,0,0,-1.3435885354592524e-9,0.009999999434197103,0,0,-0.009999999434197103,-1.3435885354592524e-9,0,0.000030517578125,0.000030555849662050605,0.00024359520466532558,1],"name":"A_Qu1","extras":{"name":"A_Qu1"},"mesh":0}],"bufferViews":[{"buffer":0,"byteOffset":0,"byteLength":1152,"target":34962,"byteStride":12},{"buffer":0,"byteOffset":1152,"byteLength":1152,"target":34962,"byteStride":12},{"buffer":0,"byteOffset":2304,"byteLength":768,"target":34962,"byteStride":8},{"buffer":0,"byteOffset":3072,"byteLength":288,"target":34963}],"buffers":[{"byteLength":3360,"uri":"data:application/octet-stream;base64,"}],"accessors":[{"bufferView":0,"componentType":5126,"count":96,"max":[-20223.609375,24108.392578125,-13.862060546875],"min":[-23013.900390625,23155.81640625,-901.20703125],"type":"VEC3"},{"bufferView":1,"componentType":5126,"count":96,"max":[0.9988594055175781,0.9988593459129333,0],"min":[-0.9988592863082886,-0.9988593459129333,-1],"type":"VEC3"},{"bufferView":2,"componentType":5126,"count":96,"max":[0.9984232783317566,0.9988228678703308],"min":[0.0018053650856018066,0.26881712675094604],"type":"VEC2"},{"bufferView":3,"componentType":5123,"count":144,"max":[95],"min":[0],"type":"SCALAR"}],"materials":[{"pbrMetallicRoughness":{"baseColorFactor":[0.33725490196078434,0.3254901960784314,0.30196078431372547,1],"metallicFactor":0,"roughnessFactor":1}}],"meshes":[{"primitives":[{"mode":4,"attributes":{"POSITION":0,"NORMAL":1,"TEXCOORD_0":2},"indices":3,"material":0}]}]}