{"asset":{"version":"2.0","generator":"THREE.GLTFExporter"},"scenes":[{"nodes":[0]}],"scene":0,"nodes":[{"matrix":[0.009999999776482582,0,0,0,0,-1.3435885354592524e-9,0.009999999434197103,0,0,-0.009999999434197103,-1.3435885354592524e-9,0,0.00000762939453125,-0.000019290171621832997,0,1],"name":"网格.022_1","mesh":0}],"bufferViews":[{"buffer":0,"byteOffset":0,"byteLength":20952,"target":34962,"byteStride":12},{"buffer":0,"byteOffset":20952,"byteLength":20952,"target":34962,"byteStride":12},{"buffer":0,"byteOffset":41904,"byteLength":13968,"target":34962,"byteStride":8},{"buffer":0,"byteOffset":55872,"byteLength":13968,"target":34962,"byteStride":8},{"buffer":0,"byteOffset":69840,"byteLength":3744,"target":34963}],"buffers":[{"byteLength":73584,"uri":"data:application/octet-stream;base64,"}],"accessors":[{"bufferView":0,"componentType":5126,"count":1746,"max":[5196.138671875,36241.95703125,1036.6192626953125],"min":[5044.458984375,17794.4765625,1031.5257568359375],"type":"VEC3"},{"bufferView":1,"componentType":5126,"count":1746,"max":[0.00007007588283158839,0.8662780523300171,1],"min":[-0.000049020734877558425,-0.8662780523300171,-1],"type":"VEC3"},{"bufferView":2,"componentType":5126,"count":1746,"max":[0.625,0.6875],"min":[0.375,0.31156015396118164],"type":"VEC2"},{"bufferView":3,"componentType":5126,"count":1746,"max":[0,1],"min":[0,1],"type":"VEC2"},{"bufferView":4,"componentType":5123,"count":1872,"max":[1745],"min":[0],"type":"SCALAR"}],"materials":[{"pbrMetallicRoughness":{"baseColorFactor":[0.4000000059604645,0.4000000059604645,0.4000000059604645,1],"metallicFactor":1,"roughnessFactor":0.8964735269546509},"emissiveFactor":[1,1,1],"doubleSided":true,"name":"js:lambert6"}],"meshes":[{"primitives":[{"mode":4,"attributes":{"POSITION":0,"NORMAL":1,"TEXCOORD_0":2,"TEXCOORD_1":3},"indices":4,"material":0}]}]}