{"asset":{"version":"2.0","generator":"THREE.GLTFExporter"},"scenes":[{"nodes":[0]}],"scene":0,"nodes":[{"matrix":[0.009999999776482582,0,0,0,0,-1.3435885354592524e-9,0.009999999434197103,0,0,-0.009999999434197103,-1.3435885354592524e-9,0,-0.0000762939453125,-0.00004203778371447697,-0.00018706865375861526,1],"name":"网格.066_2","mesh":0}],"bufferViews":[{"buffer":0,"byteOffset":0,"byteLength":1500,"target":34962,"byteStride":12},{"buffer":0,"byteOffset":1500,"byteLength":1500,"target":34962,"byteStride":12},{"buffer":0,"byteOffset":3000,"byteLength":1000,"target":34962,"byteStride":8},{"buffer":0,"byteOffset":4000,"byteLength":480,"target":34963}],"buffers":[{"byteLength":4480,"uri":"data:application/octet-stream;base64,"}],"accessors":[{"bufferView":0,"componentType":5126,"count":125,"max":[9238.6435546875,18807.23046875,-1810.2235107421875],"min":[6952.0986328125,16038.8603515625,-6635.05810546875],"type":"VEC3"},{"bufferView":1,"componentType":5126,"count":125,"max":[1,1,2.2518821651829057e-7],"min":[-1,-1,-1],"type":"VEC3"},{"bufferView":2,"componentType":5126,"count":125,"max":[0.9922072887420654,0.9103451371192932],"min":[0.0022618770599365234,0.00865548849105835],"type":"VEC2"},{"bufferView":3,"componentType":5123,"count":240,"max":[124],"min":[0],"type":"SCALAR"}],"materials":[{"pbrMetallicRoughness":{"baseColorFactor":[0.7568627450980392,0.7607843137254902,0.7568627450980392,1],"metallicFactor":0,"roughnessFactor":1}}],"meshes":[{"primitives":[{"mode":4,"attributes":{"POSITION":0,"NORMAL":1,"TEXCOORD_0":2},"indices":3,"material":0}]}]}