{"asset":{"version":"2.0","generator":"THREE.GLTFExporter"},"scenes":[{"nodes":[0]}],"scene":0,"nodes":[{"matrix":[0.009999999776482582,0,0,0,0,-1.3435885354592524e-9,0.009999999434197103,0,0,-0.009999999434197103,-1.3435885354592524e-9,0,0.00054931640625,0.000059214125940343365,-0.000462955329567194,1],"name":"网格.050_6","mesh":0}],"bufferViews":[{"buffer":0,"byteOffset":0,"byteLength":1392,"target":34962,"byteStride":12},{"buffer":0,"byteOffset":1392,"byteLength":1392,"target":34962,"byteStride":12},{"buffer":0,"byteOffset":2784,"byteLength":928,"target":34962,"byteStride":8},{"buffer":0,"byteOffset":3712,"byteLength":384,"target":34963}],"buffers":[{"byteLength":4096,"uri":"data:application/octet-stream;base64,"}],"accessors":[{"bufferView":0,"componentType":5126,"count":116,"max":[37360.61328125,19391.818359375,-13.862060546875],"min":[35391.57421875,17073.857421875,-7860.568359375],"type":"VEC3"},{"bufferView":1,"componentType":5126,"count":116,"max":[0.9760875105857849,0.9760898351669312,0],"min":[-0.9760875105857849,-0.9760903120040894,-1],"type":"VEC3"},{"bufferView":2,"componentType":5126,"count":116,"max":[0.991272509098053,1.6968923807144165],"min":[0.0012485682964324951,-0.6624560356140137],"type":"VEC2"},{"bufferView":3,"componentType":5123,"count":192,"max":[115],"min":[0],"type":"SCALAR"}],"materials":[{"pbrMetallicRoughness":{"baseColorFactor":[0.6588235294117647,0.6627450980392157,0.6509803921568628,1],"metallicFactor":0,"roughnessFactor":1}}],"meshes":[{"primitives":[{"mode":4,"attributes":{"POSITION":0,"NORMAL":1,"TEXCOORD_0":2},"indices":3,"material":0}]}]}