{"asset":{"version":"2.0","generator":"THREE.GLTFExporter"},"scenes":[{"nodes":[0]}],"scene":0,"nodes":[{"matrix":[0.009999999776482582,0,0,0,0,-1.3435885354592524e-9,0.009999999434197103,0,0,-0.009999999434197103,-1.3435885354592524e-9,0,-0.00103759765625,-0.0002404973638476804,-0.00035494312760420144,1],"name":"网格068","mesh":0}],"bufferViews":[{"buffer":0,"byteOffset":0,"byteLength":1860,"target":34962,"byteStride":12},{"buffer":0,"byteOffset":1860,"byteLength":1860,"target":34962,"byteStride":12},{"buffer":0,"byteOffset":3720,"byteLength":1240,"target":34962,"byteStride":8},{"buffer":0,"byteOffset":4960,"byteLength":584,"target":34963}],"buffers":[{"byteLength":5544,"uri":"data:application/octet-stream;base64,"}],"accessors":[{"bufferView":0,"componentType":5126,"count":155,"max":[51008.94140625,12134.0361328125,-744.76953125],"min":[48351.69140625,6845.60693359375,-6683.12158203125],"type":"VEC3"},{"bufferView":1,"componentType":5126,"count":155,"max":[0.991391658782959,0.9913914799690247,0.000008276477274193894],"min":[-0.9913914799690247,-0.9913913011550903,-1],"type":"VEC3"},{"bufferView":2,"componentType":5126,"count":155,"max":[0.9954133033752441,0.8924609422683716],"min":[0.0008341670036315918,0.0003725290298461914],"type":"VEC2"},{"bufferView":3,"componentType":5123,"count":291,"max":[154],"min":[0],"type":"SCALAR"}],"materials":[{"pbrMetallicRoughness":{"baseColorFactor":[0.5215686274509804,0.5254901960784314,0.5254901960784314,1],"metallicFactor":0,"roughnessFactor":1}}],"meshes":[{"primitives":[{"mode":4,"attributes":{"POSITION":0,"NORMAL":1,"TEXCOORD_0":2},"indices":3,"material":0}]}]}