{"asset":{"version":"2.0","generator":"THREE.GLTFExporter"},"scenes":[{"nodes":[0]}],"scene":0,"nodes":[{"matrix":[0.009999999776482582,0,0,0,0,-1.3435885354592524e-9,0.009999999434197103,0,0,-0.009999999434197103,-1.3435885354592524e-9,0,-0.00000762939453125,-0.0008819981012493372,0.0000037980603337928187,1],"name":"网格.067_2","mesh":0}],"bufferViews":[{"buffer":0,"byteOffset":0,"byteLength":4584,"target":34962,"byteStride":12},{"buffer":0,"byteOffset":4584,"byteLength":4584,"target":34962,"byteStride":12},{"buffer":0,"byteOffset":9168,"byteLength":3056,"target":34962,"byteStride":8},{"buffer":0,"byteOffset":12224,"byteLength":1424,"target":34963}],"buffers":[{"byteLength":13648,"uri":"data:application/octet-stream;base64,"}],"accessors":[{"bufferView":0,"componentType":5126,"count":382,"max":[9404.9169921875,6522.6181640625,-1.494195818901062],"min":[6270.884765625,1167.672607421875,-6114.6669921875],"type":"VEC3"},{"bufferView":1,"componentType":5126,"count":382,"max":[1,1,1],"min":[-1,-1,-1],"type":"VEC3"},{"bufferView":2,"componentType":5126,"count":382,"max":[1.4992947578430176,0.9599660634994507],"min":[-0.4352755546569824,-0.00025200843811035156],"type":"VEC2"},{"bufferView":3,"componentType":5123,"count":711,"max":[381],"min":[0],"type":"SCALAR"}],"materials":[{"pbrMetallicRoughness":{"baseColorFactor":[0.6352941176470588,0.6039215686274509,0.5803921568627451,1],"metallicFactor":0,"roughnessFactor":1}}],"meshes":[{"primitives":[{"mode":4,"attributes":{"POSITION":0,"NORMAL":1,"TEXCOORD_0":2},"indices":3,"material":0}]}]}