{"asset":{"version":"2.0","generator":"THREE.GLTFExporter"},"scenes":[{"nodes":[0]}],"scene":0,"nodes":[{"matrix":[0.009999999776482582,0,0,0,0,-1.3435885354592524e-9,0.009999999434197103,0,0,-0.009999999434197103,-1.3435885354592524e-9,0,0,-0.00007557492062915117,0,1],"name":"网格.071_2","mesh":0}],"bufferViews":[{"buffer":0,"byteOffset":0,"byteLength":324,"target":34962,"byteStride":12},{"buffer":0,"byteOffset":324,"byteLength":324,"target":34962,"byteStride":12},{"buffer":0,"byteOffset":648,"byteLength":216,"target":34962,"byteStride":8},{"buffer":0,"byteOffset":864,"byteLength":140,"target":34963}],"buffers":[{"byteLength":1004,"uri":"data:application/octet-stream;base64,"}],"accessors":[{"bufferView":0,"componentType":5126,"count":27,"max":[6678.447265625,65262.55859375,0.0008720243349671364],"min":[4531.86328125,19619.68359375,-0.003165781032294035],"type":"VEC3"},{"bufferView":1,"componentType":5126,"count":27,"max":[0.00007102249946910888,0.0003088710072916001,-0.9999999403953552],"min":[-0.000053551699238596484,-0.00014056710642762482,-1],"type":"VEC3"},{"bufferView":2,"componentType":5126,"count":27,"max":[1.001712679862976,0.9991227388381958],"min":[0.0015777053777128458,-0.0004298686981201172],"type":"VEC2"},{"bufferView":3,"componentType":5123,"count":69,"max":[26],"min":[0],"type":"SCALAR"}],"materials":[{"pbrMetallicRoughness":{"baseColorFactor":[0.403921568627451,0.38823529411764707,0.24705882352941178,1],"metallicFactor":0,"roughnessFactor":1}}],"meshes":[{"primitives":[{"mode":4,"attributes":{"POSITION":0,"NORMAL":1,"TEXCOORD_0":2},"indices":3,"material":0}]}]}