{"asset":{"version":"2.0","generator":"THREE.GLTFExporter"},"scenes":[{"nodes":[0]}],"scene":0,"nodes":[{"matrix":[0.009999999776482582,0,0,0,0,-1.3435885354592524e-9,0.009999999434197103,0,0,-0.009999999434197103,-1.3435885354592524e-9,0,0.000019073486328125,-0.00043694564374163747,-0.000029852439183741808,1],"name":"网格.009_1","mesh":0}],"bufferViews":[{"buffer":0,"byteOffset":0,"byteLength":6024,"target":34962,"byteStride":12},{"buffer":0,"byteOffset":6024,"byteLength":6024,"target":34962,"byteStride":12},{"buffer":0,"byteOffset":12048,"byteLength":4016,"target":34962,"byteStride":8},{"buffer":0,"byteOffset":16064,"byteLength":1296,"target":34963}],"buffers":[{"byteLength":17360,"uri":"data:application/octet-stream;base64,"}],"accessors":[{"bufferView":0,"componentType":5126,"count":502,"max":[4696.6923828125,45307.9609375,826.004638671875],"min":[4492.19140625,44258.59375,269.19573974609375],"type":"VEC3"},{"bufferView":1,"componentType":5126,"count":502,"max":[1,1,1],"min":[-1,-1,-1],"type":"VEC3"},{"bufferView":2,"componentType":5126,"count":502,"max":[0.9776319861412048,0.9884719848632812],"min":[0.02015499956905842,0.010442972183227539],"type":"VEC2"},{"bufferView":3,"componentType":5123,"count":648,"max":[501],"min":[0],"type":"SCALAR"}],"materials":[{"pbrMetallicRoughness":{"baseColorFactor":[0.4000000059604645,0.4000000059604645,0.4000000059604645,1],"metallicFactor":1,"roughnessFactor":0.7487671971321106},"doubleSided":true,"name":"blinn242"}],"meshes":[{"primitives":[{"mode":4,"attributes":{"POSITION":0,"NORMAL":1,"TEXCOORD_0":2},"indices":3,"material":0}]}]}