{"asset":{"version":"2.0","generator":"THREE.GLTFExporter"},"scenes":[{"nodes":[0]}],"scene":0,"nodes":[{"matrix":[0.009999999776482582,0,0,0,0,-1.3435885354592524e-9,0.009999999434197103,0,0,-0.009999999434197103,-1.3435885354592524e-9,0,-0.000019073486328125,-0.000004764839104609564,0.00003192705844412558,1],"name":"网格.021_2","mesh":0}],"bufferViews":[{"buffer":0,"byteOffset":0,"byteLength":5688,"target":34962,"byteStride":12},{"buffer":0,"byteOffset":5688,"byteLength":5688,"target":34962,"byteStride":12},{"buffer":0,"byteOffset":11376,"byteLength":3792,"target":34962,"byteStride":8},{"buffer":0,"byteOffset":15168,"byteLength":972,"target":34963}],"buffers":[{"byteLength":16140,"uri":"data:application/octet-stream;base64,"}],"accessors":[{"bufferView":0,"componentType":5126,"count":474,"max":[4498.7587890625,36398.69140625,1107.560302734375],"min":[4497.72265625,17792.52734375,1074.1993408203125],"type":"VEC3"},{"bufferView":1,"componentType":5126,"count":474,"max":[0.999519944190979,0.000002083377694361843,0.03102288767695427],"min":[0.999518632888794,-0.000005051930656918557,0.030981382355093956],"type":"VEC3"},{"bufferView":2,"componentType":5126,"count":474,"max":[0.8097255825996399,0.38823485374450684],"min":[0.016416581347584724,0.014319181442260742],"type":"VEC2"},{"bufferView":3,"componentType":5123,"count":486,"max":[473],"min":[0],"type":"SCALAR"}],"materials":[{"pbrMetallicRoughness":{"baseColorFactor":[0.8901960784313725,0.8862745098039215,0.8862745098039215,1],"metallicFactor":0,"roughnessFactor":1}}],"meshes":[{"primitives":[{"mode":4,"attributes":{"POSITION":0,"NORMAL":1,"TEXCOORD_0":2},"indices":3,"material":0}]}]}