{"asset":{"version":"2.0","generator":"THREE.GLTFExporter"},"scenes":[{"nodes":[0]}],"scene":0,"nodes":[{"matrix":[0.009999999776482582,0,0,0,0,-1.3435885354592524e-9,0.009999999434197103,0,0,-0.009999999434197103,-1.3435885354592524e-9,0,-0.00000762939453125,0.00002251533260277938,-0.00023271673126146197,1],"name":"网格.060_2","mesh":0}],"bufferViews":[{"buffer":0,"byteOffset":0,"byteLength":3096,"target":34962,"byteStride":12},{"buffer":0,"byteOffset":3096,"byteLength":3096,"target":34962,"byteStride":12},{"buffer":0,"byteOffset":6192,"byteLength":2064,"target":34962,"byteStride":8},{"buffer":0,"byteOffset":8256,"byteLength":792,"target":34963}],"buffers":[{"byteLength":9048,"uri":"data:application/octet-stream;base64,"}],"accessors":[{"bufferView":0,"componentType":5126,"count":258,"max":[14202.083984375,27128.375,-629.8381958007812],"min":[10779.140625,26093.01171875,-2162.73974609375],"type":"VEC3"},{"bufferView":1,"componentType":5126,"count":258,"max":[1,1,1],"min":[-1,-1,-1],"type":"VEC3"},{"bufferView":2,"componentType":5126,"count":258,"max":[0.968148946762085,0.47053951025009155],"min":[0.023042261600494385,0.021690845489501953],"type":"VEC2"},{"bufferView":3,"componentType":5123,"count":396,"max":[257],"min":[0],"type":"SCALAR"}],"materials":[{"pbrMetallicRoughness":{"baseColorFactor":[0.7254901960784313,0.7058823529411765,0.7058823529411765,1],"metallicFactor":0,"roughnessFactor":1}}],"meshes":[{"primitives":[{"mode":4,"attributes":{"POSITION":0,"NORMAL":1,"TEXCOORD_0":2},"indices":3,"material":0}]}]}