{"asset":{"version":"2.0","generator":"THREE.GLTFExporter"},"scenes":[{"nodes":[0]}],"scene":0,"nodes":[{"matrix":[0.009999999776482582,0,0,0,0,-1.3435885354592524e-9,0.009999999434197103,0,0,-0.009999999434197103,-1.3435885354592524e-9,0,-0.000274658203125,0.000030318857170641422,0,1],"name":"网格053","mesh":0}],"bufferViews":[{"buffer":0,"byteOffset":0,"byteLength":4968,"target":34962,"byteStride":12},{"buffer":0,"byteOffset":4968,"byteLength":4968,"target":34962,"byteStride":12},{"buffer":0,"byteOffset":9936,"byteLength":3312,"target":34962,"byteStride":8},{"buffer":0,"byteOffset":13248,"byteLength":1356,"target":34963}],"buffers":[{"byteLength":14604,"uri":"data:application/octet-stream;base64,"}],"accessors":[{"bufferView":0,"componentType":5126,"count":414,"max":[-8107.61083984375,25117.6171875,-13.8619384765625],"min":[-10222.0009765625,22548.984375,-2955.223388671875],"type":"VEC3"},{"bufferView":1,"componentType":5126,"count":414,"max":[0.9986883997917175,0.9986891746520996,0.0000032965688205877086],"min":[-0.9986887574195862,-0.9986891150474548,-1],"type":"VEC3"},{"bufferView":2,"componentType":5126,"count":414,"max":[0.7658456563949585,0.994657039642334],"min":[0.0027799606323242188,0.0006488561630249023],"type":"VEC2"},{"bufferView":3,"componentType":5123,"count":678,"max":[413],"min":[0],"type":"SCALAR"}],"materials":[{"pbrMetallicRoughness":{"baseColorFactor":[0.4549019607843137,0.4549019607843137,0.44313725490196076,1],"metallicFactor":0,"roughnessFactor":1}}],"meshes":[{"primitives":[{"mode":4,"attributes":{"POSITION":0,"NORMAL":1,"TEXCOORD_0":2},"indices":3,"material":0}]}]}