{"asset":{"version":"2.0","generator":"THREE.GLTFExporter"},"scenes":[{"nodes":[0]}],"scene":0,"nodes":[{"matrix":[0.009999999776482582,0,0,0,0,-1.3435885354592524e-9,0.009999999434197103,0,0,-0.009999999434197103,-1.3435885354592524e-9,0,0.00005340576171875,0.00003609706982388161,0.00003022456257895101,1],"name":"网格080","mesh":0}],"bufferViews":[{"buffer":0,"byteOffset":0,"byteLength":480,"target":34962,"byteStride":12},{"buffer":0,"byteOffset":480,"byteLength":480,"target":34962,"byteStride":12},{"buffer":0,"byteOffset":960,"byteLength":320,"target":34962,"byteStride":8},{"buffer":0,"byteOffset":1280,"byteLength":144,"target":34963}],"buffers":[{"byteLength":1424,"uri":"data:application/octet-stream;base64,"}],"accessors":[{"bufferView":0,"componentType":5126,"count":40,"max":[-89.025634765625,21163.634765625,-15.12054443359375],"min":[-24107.470703125,18997.203125,-476.47857666015625],"type":"VEC3"},{"bufferView":1,"componentType":5126,"count":40,"max":[1,0.9988561272621155,0],"min":[-1,-0.9988560080528259,-0.9887418150901794],"type":"VEC3"},{"bufferView":2,"componentType":5126,"count":40,"max":[8.11219310760498,34.38361358642578],"min":[-7.876274585723877,-33.383575439453125],"type":"VEC2"},{"bufferView":3,"componentType":5123,"count":72,"max":[39],"min":[0],"type":"SCALAR"}],"materials":[{"pbrMetallicRoughness":{"baseColorFactor":[0.5490196078431373,0.5294117647058824,0.5098039215686274,1],"metallicFactor":0,"roughnessFactor":1}}],"meshes":[{"primitives":[{"mode":4,"attributes":{"POSITION":0,"NORMAL":1,"TEXCOORD_0":2},"indices":3,"material":0}]}]}