{"asset":{"version":"2.0","generator":"THREE.GLTFExporter"},"scenes":[{"nodes":[0]}],"scene":0,"nodes":[{"matrix":[0.009999999776482582,0,0,0,0,-1.3435885354592524e-9,0.009999999434197103,0,0,-0.009999999434197103,-1.3435885354592524e-9,0,-0.00000762939453125,0.0000045006181608187035,0,1],"name":"室内-一层-无障碍电梯02","extras":{"name":"室内-一层-无障碍电梯02"},"mesh":0}],"bufferViews":[{"buffer":0,"byteOffset":0,"byteLength":240,"target":34962,"byteStride":12},{"buffer":0,"byteOffset":240,"byteLength":240,"target":34962,"byteStride":12},{"buffer":0,"byteOffset":480,"byteLength":160,"target":34962,"byteStride":8},{"buffer":0,"byteOffset":640,"byteLength":48,"target":34963}],"buffers":[{"byteLength":688,"uri":"data:application/octet-stream;base64,"}],"accessors":[{"bufferView":0,"componentType":5126,"count":20,"max":[5260.8271484375,24783.23828125,1338.1409912109375],"min":[4860.54541015625,24367.546875,1030.26220703125],"type":"VEC3"},{"bufferView":1,"componentType":5126,"count":20,"max":[1,1,0],"min":[-1,-1,0],"type":"VEC3"},{"bufferView":2,"componentType":5126,"count":20,"max":[0.5043914318084717,0.24728864431381226],"min":[0.0036813041660934687,0.0013996362686157227],"type":"VEC2"},{"bufferView":3,"componentType":5123,"count":24,"max":[19],"min":[0],"type":"SCALAR"}],"materials":[{"pbrMetallicRoughness":{"baseColorFactor":[0.396078431372549,0.3686274509803922,0.2823529411764706,1],"metallicFactor":0,"roughnessFactor":1}}],"meshes":[{"primitives":[{"mode":4,"attributes":{"POSITION":0,"NORMAL":1,"TEXCOORD_0":2},"indices":3,"material":0}]}]}