{"asset":{"version":"2.0","generator":"THREE.GLTFExporter"},"scenes":[{"nodes":[0]}],"scene":0,"nodes":[{"matrix":[0.009999999776482582,0,0,0,0,-1.3435885354592524e-9,0.009999999434197103,0,0,-0.009999999434197103,-1.3435885354592524e-9,0,0.000019073486328125,-0.00043694564374163747,-0.000029852439183741808,1],"name":"网格009","mesh":0}],"bufferViews":[{"buffer":0,"byteOffset":0,"byteLength":91728,"target":34962,"byteStride":12},{"buffer":0,"byteOffset":91728,"byteLength":91728,"target":34962,"byteStride":12},{"buffer":0,"byteOffset":183456,"byteLength":61152,"target":34962,"byteStride":8},{"buffer":0,"byteOffset":244608,"byteLength":44160,"target":34963}],"buffers":[{"byteLength":288768,"uri":"data:application/octet-stream;base64,"}],"accessors":[{"bufferView":0,"componentType":5126,"count":7644,"max":[4701.6513671875,45323.4296875,835.3319091796875],"min":[4489.04248046875,44243.0390625,247.230224609375],"type":"VEC3"},{"bufferView":1,"componentType":5126,"count":7644,"max":[1,1.0000001192092896,1],"min":[-1.0000001192092896,-1.0000001192092896,-1],"type":"VEC3"},{"bufferView":2,"componentType":5126,"count":7644,"max":[0.9844800233840942,0.9980079531669617],"min":[0.006978000048547983,0.017293989658355713],"type":"VEC2"},{"bufferView":3,"componentType":5123,"count":22080,"max":[7643],"min":[0],"type":"SCALAR"}],"materials":[{"pbrMetallicRoughness":{"baseColorFactor":[0.4000000059604645,0.4000000059604645,0.4000000059604645,1],"metallicFactor":1,"roughnessFactor":0.7487671971321106},"doubleSided":true,"name":"blinn405"}],"meshes":[{"primitives":[{"mode":4,"attributes":{"POSITION":0,"NORMAL":1,"TEXCOORD_0":2},"indices":3,"material":0}]}]}