{"asset":{"version":"2.0","generator":"THREE.GLTFExporter"},"scenes":[{"nodes":[0]}],"scene":0,"nodes":[{"matrix":[0.009999999776482582,0,0,0,0,-1.3435885354592524e-9,0.009999999434197103,0,0,-0.009999999434197103,-1.3435885354592524e-9,0,0,0.00003645554534159601,0.00003176052268827334,1],"name":"网格.002_1","mesh":0}],"bufferViews":[{"buffer":0,"byteOffset":0,"byteLength":6048,"target":34962,"byteStride":12},{"buffer":0,"byteOffset":6048,"byteLength":6048,"target":34962,"byteStride":12},{"buffer":0,"byteOffset":12096,"byteLength":4032,"target":34962,"byteStride":8},{"buffer":0,"byteOffset":16128,"byteLength":1296,"target":34963}],"buffers":[{"byteLength":17424,"uri":"data:application/octet-stream;base64,"}],"accessors":[{"bufferView":0,"componentType":5126,"count":504,"max":[5146.755859375,27150.74609375,1310.703857421875],"min":[4871.029296875,26101.3828125,753.8948974609375],"type":"VEC3"},{"bufferView":1,"componentType":5126,"count":504,"max":[1,1,1],"min":[-1,-1,-1],"type":"VEC3"},{"bufferView":2,"componentType":5126,"count":504,"max":[0.9776319861412048,0.9884719848632812],"min":[0.02015499956905842,0.010442972183227539],"type":"VEC2"},{"bufferView":3,"componentType":5123,"count":648,"max":[503],"min":[0],"type":"SCALAR"}],"materials":[{"pbrMetallicRoughness":{"baseColorFactor":[0.4000000059604645,0.4000000059604645,0.4000000059604645,1],"metallicFactor":1,"roughnessFactor":0.7487671971321106},"doubleSided":true,"name":"blinn242"}],"meshes":[{"primitives":[{"mode":4,"attributes":{"POSITION":0,"NORMAL":1,"TEXCOORD_0":2},"indices":3,"material":0}]}]}