{"asset":{"version":"2.0","generator":"THREE.GLTFExporter"},"scenes":[{"nodes":[0]}],"scene":0,"nodes":[{"matrix":[0.009999999776482582,0,0,0,0,-1.3435885354592524e-9,0.009999999434197103,0,0,-0.009999999434197103,-1.3435885354592524e-9,0,0.000034332275390625,0.00003932585968868807,0.00003118271706625819,1],"name":"网格.010_2","mesh":0}],"bufferViews":[{"buffer":0,"byteOffset":0,"byteLength":10116,"target":34962,"byteStride":12},{"buffer":0,"byteOffset":10116,"byteLength":10116,"target":34962,"byteStride":12},{"buffer":0,"byteOffset":20232,"byteLength":6744,"target":34962,"byteStride":8},{"buffer":0,"byteOffset":26976,"byteLength":1728,"target":34963}],"buffers":[{"byteLength":28704,"uri":"data:application/octet-stream;base64,"}],"accessors":[{"bufferView":0,"componentType":5126,"count":843,"max":[4042.462890625,33587.30859375,853.7568359375],"min":[3739.00048828125,32420.62109375,369.3016052246094],"type":"VEC3"},{"bufferView":1,"componentType":5126,"count":843,"max":[1.0000001192092896,0.0011875120690092444,0.0028830410446971655],"min":[-1,-0.9999998807907104,-1],"type":"VEC3"},{"bufferView":2,"componentType":5126,"count":843,"max":[2.325881242752075,2.5684807300567627],"min":[-1.4238941669464111,-0.37871479988098145],"type":"VEC2"},{"bufferView":3,"componentType":5123,"count":864,"max":[842],"min":[0],"type":"SCALAR"}],"materials":[{"pbrMetallicRoughness":{"baseColorFactor":[0.49411764705882355,0.5137254901960784,0.5254901960784314,1],"metallicFactor":0,"roughnessFactor":1}}],"meshes":[{"primitives":[{"mode":4,"attributes":{"POSITION":0,"NORMAL":1,"TEXCOORD_0":2},"indices":3,"material":0}]}]}