{"asset":{"version":"2.0","generator":"THREE.GLTFExporter"},"scenes":[{"nodes":[0]}],"scene":0,"nodes":[{"matrix":[0.009999999776482582,0,0,0,0,-1.3435885354592524e-9,0.009999999434197103,0,0,-0.009999999434197103,-1.3435885354592524e-9,0,-0.0000152587890625,0.00008408095163758844,0.00003118286986136809,1],"name":"网格.011_2","mesh":0}],"bufferViews":[{"buffer":0,"byteOffset":0,"byteLength":9408,"target":34962,"byteStride":12},{"buffer":0,"byteOffset":9408,"byteLength":9408,"target":34962,"byteStride":12},{"buffer":0,"byteOffset":18816,"byteLength":6272,"target":34962,"byteStride":8},{"buffer":0,"byteOffset":25088,"byteLength":1728,"target":34963}],"buffers":[{"byteLength":26816,"uri":"data:application/octet-stream;base64,"}],"accessors":[{"bufferView":0,"componentType":5126,"count":784,"max":[7935.2041015625,27083.947265625,853.8840942382812],"min":[6768.51220703125,26780.484375,369.4288635253906],"type":"VEC3"},{"bufferView":1,"componentType":5126,"count":784,"max":[0.0011874160263687372,1,0.003404978197067976],"min":[-0.9999999403953552,-1,-1],"type":"VEC3"},{"bufferView":2,"componentType":5126,"count":784,"max":[2.325881242752075,2.5684807300567627],"min":[-1.4238941669464111,-0.37871479988098145],"type":"VEC2"},{"bufferView":3,"componentType":5123,"count":864,"max":[783],"min":[0],"type":"SCALAR"}],"materials":[{"pbrMetallicRoughness":{"baseColorFactor":[0.49411764705882355,0.5137254901960784,0.5254901960784314,1],"metallicFactor":0,"roughnessFactor":1}}],"meshes":[{"primitives":[{"mode":4,"attributes":{"POSITION":0,"NORMAL":1,"TEXCOORD_0":2},"indices":3,"material":0}]}]}