{"asset":{"version":"2.0","generator":"THREE.GLTFExporter"},"scenes":[{"nodes":[0]}],"scene":0,"nodes":[{"matrix":[0.009999999776482582,0,0,0,0,-1.3435885354592524e-9,0.009999999434197103,0,0,-0.009999999434197103,-1.3435885354592524e-9,0,0.0004987716674804688,-0.00007878847100073472,-0.00020030514860991389,1],"name":"网格.047_2","mesh":0}],"bufferViews":[{"buffer":0,"byteOffset":0,"byteLength":240,"target":34962,"byteStride":12},{"buffer":0,"byteOffset":240,"byteLength":240,"target":34962,"byteStride":12},{"buffer":0,"byteOffset":480,"byteLength":160,"target":34962,"byteStride":8},{"buffer":0,"byteOffset":640,"byteLength":84,"target":34963}],"buffers":[{"byteLength":724,"uri":"data:application/octet-stream;base64,"}],"accessors":[{"bufferView":0,"componentType":5126,"count":20,"max":[3673.041259765625,16057.1865234375,-42.860084533691406],"min":[2682.943115234375,11757.697265625,-313.9381103515625],"type":"VEC3"},{"bufferView":1,"componentType":5126,"count":20,"max":[0.44032323360443115,6.122518669826604e-8,-0.8978393077850342],"min":[0.24157556891441345,-6.12251440657019e-8,-0.9703819155693054],"type":"VEC3"},{"bufferView":2,"componentType":5126,"count":20,"max":[5.42336368560791,8.355230331420898],"min":[-4.760247230529785,-7.355227470397949],"type":"VEC2"},{"bufferView":3,"componentType":5123,"count":42,"max":[19],"min":[0],"type":"SCALAR"}],"materials":[{"pbrMetallicRoughness":{"baseColorFactor":[0.3411764705882353,0.4745098039215686,0.12549019607843137,1],"metallicFactor":0,"roughnessFactor":1}}],"meshes":[{"primitives":[{"mode":4,"attributes":{"POSITION":0,"NORMAL":1,"TEXCOORD_0":2},"indices":3,"material":0}]}]}