{"asset":{"version":"2.0","generator":"THREE.GLTFExporter"},"scenes":[{"nodes":[0]}],"scene":0,"nodes":[{"matrix":[0.009999999776482582,0,0,0,0,-1.3435885354592524e-9,0.009999999434197103,0,0,-0.009999999434197103,-1.3435885354592524e-9,0,0.000034332275390625,0.0002360051148571074,-0.00006993444549152628,1],"name":"网格.051_4","mesh":0}],"bufferViews":[{"buffer":0,"byteOffset":0,"byteLength":1128,"target":34962,"byteStride":12},{"buffer":0,"byteOffset":1128,"byteLength":1128,"target":34962,"byteStride":12},{"buffer":0,"byteOffset":2256,"byteLength":752,"target":34962,"byteStride":8},{"buffer":0,"byteOffset":3008,"byteLength":324,"target":34963}],"buffers":[{"byteLength":3332,"uri":"data:application/octet-stream;base64,"}],"accessors":[{"bufferView":0,"componentType":5126,"count":94,"max":[4671.4208984375,30868.755859375,-13.862060546875],"min":[-677.9234619140625,21746.357421875,-800.310302734375],"type":"VEC3"},{"bufferView":1,"componentType":5126,"count":94,"max":[0.999992847442627,0.999992847442627,1],"min":[-0.999992847442627,-0.9999929070472717,-1],"type":"VEC3"},{"bufferView":2,"componentType":5126,"count":94,"max":[2.0017471313476562,0.9992207884788513],"min":[0.0005137920379638672,0.002341628074645996],"type":"VEC2"},{"bufferView":3,"componentType":5123,"count":162,"max":[93],"min":[0],"type":"SCALAR"}],"materials":[{"pbrMetallicRoughness":{"baseColorFactor":[0.22745098039215686,0.21176470588235294,0.19607843137254902,1],"metallicFactor":0,"roughnessFactor":1}}],"meshes":[{"primitives":[{"mode":4,"attributes":{"POSITION":0,"NORMAL":1,"TEXCOORD_0":2},"indices":3,"material":0}]}]}