{"asset":{"version":"2.0","generator":"THREE.GLTFExporter"},"scenes":[{"nodes":[0]}],"scene":0,"nodes":[{"matrix":[0.009999999776482582,0,0,0,0,-1.3435885354592524e-9,0.009999999434197103,0,0,-0.009999999434197103,-1.3435885354592524e-9,0,0,0.000010365973139414564,0,1],"name":"网格.029_1","mesh":0}],"bufferViews":[{"buffer":0,"byteOffset":0,"byteLength":3144,"target":34962,"byteStride":12},{"buffer":0,"byteOffset":3144,"byteLength":3144,"target":34962,"byteStride":12},{"buffer":0,"byteOffset":6288,"byteLength":2096,"target":34962,"byteStride":8},{"buffer":0,"byteOffset":8384,"byteLength":612,"target":34963}],"buffers":[{"byteLength":8996,"uri":"data:application/octet-stream;base64,"}],"accessors":[{"bufferView":0,"componentType":5126,"count":262,"max":[5688.390625,36622.00390625,1338.1409912109375],"min":[4551.4912109375,17569.21484375,1027.772216796875],"type":"VEC3"},{"bufferView":1,"componentType":5126,"count":262,"max":[1,1,1],"min":[-1,-1,-1],"type":"VEC3"},{"bufferView":2,"componentType":5126,"count":262,"max":[0.9144901633262634,0.47965043783187866],"min":[0.5060319304466248,0.00029909610748291016],"type":"VEC2"},{"bufferView":3,"componentType":5123,"count":306,"max":[261],"min":[0],"type":"SCALAR"}],"materials":[{"pbrMetallicRoughness":{"baseColorFactor":[0.396078431372549,0.3686274509803922,0.2823529411764706,1],"metallicFactor":0,"roughnessFactor":1}}],"meshes":[{"primitives":[{"mode":4,"attributes":{"POSITION":0,"NORMAL":1,"TEXCOORD_0":2},"indices":3,"material":0}]}]}