{"asset":{"version":"2.0","generator":"THREE.GLTFExporter"},"scenes":[{"nodes":[0]}],"scene":0,"nodes":[{"matrix":[0.009999999776482582,0,0,0,0,-1.3435885354592524e-9,0.009999999434197103,0,0,-0.009999999434197103,-1.3435885354592524e-9,0,0,0.000017441621821490116,-0.00038612502976320684,1],"name":"网格.057_5","mesh":0}],"bufferViews":[{"buffer":0,"byteOffset":0,"byteLength":1320,"target":34962,"byteStride":12},{"buffer":0,"byteOffset":1320,"byteLength":1320,"target":34962,"byteStride":12},{"buffer":0,"byteOffset":2640,"byteLength":880,"target":34962,"byteStride":8},{"buffer":0,"byteOffset":3520,"byteLength":348,"target":34963}],"buffers":[{"byteLength":3868,"uri":"data:application/octet-stream;base64,"}],"accessors":[{"bufferView":0,"componentType":5126,"count":110,"max":[14021.6279296875,22853.318359375,-13.862274169921875],"min":[10525.9443359375,20204.650390625,-1919.739501953125],"type":"VEC3"},{"bufferView":1,"componentType":5126,"count":110,"max":[0.9827343225479126,0.9835420250892639,1],"min":[-0.9995307326316833,-0.9827348589897156,-1],"type":"VEC3"},{"bufferView":2,"componentType":5126,"count":110,"max":[1.4083255529403687,0.9980079531669617],"min":[-0.6897759437561035,0.0008352994918823242],"type":"VEC2"},{"bufferView":3,"componentType":5123,"count":174,"max":[109],"min":[0],"type":"SCALAR"}],"materials":[{"pbrMetallicRoughness":{"baseColorFactor":[0.5372549019607843,0.5725490196078431,0.6313725490196078,1],"metallicFactor":0,"roughnessFactor":1}}],"meshes":[{"primitives":[{"mode":4,"attributes":{"POSITION":0,"NORMAL":1,"TEXCOORD_0":2},"indices":3,"material":0}]}]}