{"asset":{"version":"2.0","generator":"THREE.GLTFExporter"},"scenes":[{"nodes":[0]}],"scene":0,"nodes":[{"matrix":[0.009999999776482582,0,0,0,0,-1.3435885354592524e-9,0.009999999434197103,0,0,-0.009999999434197103,-1.3435885354592524e-9,0,-0.001251220703125,0.000011323070793878287,-0.0004288299533072859,1],"name":"网格055","mesh":0}],"bufferViews":[{"buffer":0,"byteOffset":0,"byteLength":1728,"target":34962,"byteStride":12},{"buffer":0,"byteOffset":1728,"byteLength":1728,"target":34962,"byteStride":12},{"buffer":0,"byteOffset":3456,"byteLength":1152,"target":34962,"byteStride":8},{"buffer":0,"byteOffset":4608,"byteLength":552,"target":34963}],"buffers":[{"byteLength":5160,"uri":"data:application/octet-stream;base64,"}],"accessors":[{"bufferView":0,"componentType":5126,"count":144,"max":[-18368.138671875,24827.712890625,-716.20947265625],"min":[-19922.6171875,22969.248046875,-2643.428955078125],"type":"VEC3"},{"bufferView":1,"componentType":5126,"count":144,"max":[0.9988594651222229,0.9988598227500916,1],"min":[-0.9988594055175781,-0.9988597631454468,-1],"type":"VEC3"},{"bufferView":2,"componentType":5126,"count":144,"max":[0.9955328106880188,0.9948621392250061],"min":[0.013929009437561035,0.0046579837799072266],"type":"VEC2"},{"bufferView":3,"componentType":5123,"count":276,"max":[143],"min":[0],"type":"SCALAR"}],"materials":[{"pbrMetallicRoughness":{"baseColorFactor":[0.5372549019607843,0.5019607843137255,0.5137254901960784,1],"metallicFactor":0,"roughnessFactor":1}}],"meshes":[{"primitives":[{"mode":4,"attributes":{"POSITION":0,"NORMAL":1,"TEXCOORD_0":2},"indices":3,"material":0}]}]}