{"asset":{"version":"2.0","generator":"THREE.GLTFExporter"},"scenes":[{"nodes":[0]}],"scene":0,"nodes":[{"matrix":[0.009999999776482582,0,0,0,0,-1.3435885354592524e-9,0.009999999434197103,0,0,-0.009999999434197103,-1.3435885354592524e-9,0,-0.00012969970703125,0.000035037315683439374,-0.00023126951418817043,1],"name":"网格.052_2","mesh":0}],"bufferViews":[{"buffer":0,"byteOffset":0,"byteLength":864,"target":34962,"byteStride":12},{"buffer":0,"byteOffset":864,"byteLength":864,"target":34962,"byteStride":12},{"buffer":0,"byteOffset":1728,"byteLength":576,"target":34962,"byteStride":8},{"buffer":0,"byteOffset":2304,"byteLength":228,"target":34963}],"buffers":[{"byteLength":2532,"uri":"data:application/octet-stream;base64,"}],"accessors":[{"bufferView":0,"componentType":5126,"count":72,"max":[-2572.074951171875,24138.00390625,-13.862060546875],"min":[-7244.63330078125,22254.806640625,-747.621826171875],"type":"VEC3"},{"bufferView":1,"componentType":5126,"count":72,"max":[0.9991119503974915,0.9991120100021362,0],"min":[-0.9991118907928467,-0.9991119503974915,-1],"type":"VEC3"},{"bufferView":2,"componentType":5126,"count":72,"max":[0.9996482133865356,0.6708249449729919],"min":[0.0014339685440063477,0.0008861422538757324],"type":"VEC2"},{"bufferView":3,"componentType":5123,"count":114,"max":[71],"min":[0],"type":"SCALAR"}],"materials":[{"pbrMetallicRoughness":{"baseColorFactor":[0.2549019607843137,0.25098039215686274,0.24313725490196078,1],"metallicFactor":0,"roughnessFactor":1}}],"meshes":[{"primitives":[{"mode":4,"attributes":{"POSITION":0,"NORMAL":1,"TEXCOORD_0":2},"indices":3,"material":0}]}]}