{"asset":{"version":"2.0","generator":"THREE.GLTFExporter"},"scenes":[{"nodes":[0]}],"scene":0,"nodes":[{"matrix":[0.009999999776482582,0,0,0,0,-1.3435885354592524e-9,0.009999999434197103,0,0,-0.009999999434197103,-1.3435885354592524e-9,0,-0.0000762939453125,-0.00004203778371447697,-0.00018706865375861526,1],"name":"网格.066_1","mesh":0}],"bufferViews":[{"buffer":0,"byteOffset":0,"byteLength":3552,"target":34962,"byteStride":12},{"buffer":0,"byteOffset":3552,"byteLength":3552,"target":34962,"byteStride":12},{"buffer":0,"byteOffset":7104,"byteLength":2368,"target":34962,"byteStride":8},{"buffer":0,"byteOffset":9472,"byteLength":768,"target":34963}],"buffers":[{"byteLength":10240,"uri":"data:application/octet-stream;base64,"}],"accessors":[{"bufferView":0,"componentType":5126,"count":296,"max":[9387.6337890625,19566.08203125,-340.0205993652344],"min":[6458.04345703125,12484.640625,-1768.220458984375],"type":"VEC3"},{"bufferView":1,"componentType":5126,"count":296,"max":[1,1,1],"min":[-1,-1,-1],"type":"VEC3"},{"bufferView":2,"componentType":5126,"count":296,"max":[0.6205312013626099,0.3645685911178589],"min":[0.0333399772644043,0.01082313060760498],"type":"VEC2"},{"bufferView":3,"componentType":5123,"count":384,"max":[295],"min":[0],"type":"SCALAR"}],"materials":[{"pbrMetallicRoughness":{"baseColorFactor":[0.6627450980392157,0.611764705882353,0.6196078431372549,1],"metallicFactor":0,"roughnessFactor":1}}],"meshes":[{"primitives":[{"mode":4,"attributes":{"POSITION":0,"NORMAL":1,"TEXCOORD_0":2},"indices":3,"material":0}]}]}