{"asset":{"version":"2.0","generator":"THREE.GLTFExporter"},"scenes":[{"nodes":[0]}],"scene":0,"nodes":[{"matrix":[0.009999999776482582,0,0,0,0,-1.3435885354592524e-9,0.009999999434197103,0,0,-0.009999999434197103,-1.3435885354592524e-9,0,0,0.000010365973139414564,0,1],"name":"网格.029_3","mesh":0}],"bufferViews":[{"buffer":0,"byteOffset":0,"byteLength":2448,"target":34962,"byteStride":12},{"buffer":0,"byteOffset":2448,"byteLength":2448,"target":34962,"byteStride":12},{"buffer":0,"byteOffset":4896,"byteLength":1632,"target":34962,"byteStride":8},{"buffer":0,"byteOffset":6528,"byteLength":492,"target":34963}],"buffers":[{"byteLength":7020,"uri":"data:application/octet-stream;base64,"}],"accessors":[{"bufferView":0,"componentType":5126,"count":204,"max":[5515.5673828125,36622.00390625,1323.42724609375],"min":[4724.314453125,17569.21484375,886.1409912109375],"type":"VEC3"},{"bufferView":1,"componentType":5126,"count":204,"max":[1,1,8.944924662079856e-11],"min":[-1,-1,-0.000013212190424383152],"type":"VEC3"},{"bufferView":2,"componentType":5126,"count":204,"max":[2.1979153156280518,5.5687360763549805],"min":[-1.2596781253814697,-4.299881935119629],"type":"VEC2"},{"bufferView":3,"componentType":5123,"count":246,"max":[203],"min":[0],"type":"SCALAR"}],"materials":[{"pbrMetallicRoughness":{"baseColorFactor":[0.30980392156862746,0.30980392156862746,0.27058823529411763,1],"metallicFactor":0,"roughnessFactor":1}}],"meshes":[{"primitives":[{"mode":4,"attributes":{"POSITION":0,"NORMAL":1,"TEXCOORD_0":2},"indices":3,"material":0}]}]}