{"asset":{"version":"2.0","generator":"THREE.GLTFExporter"},"scenes":[{"nodes":[0]}],"scene":0,"nodes":[{"matrix":[0.009999999776482582,0,0,0,0,-1.3435885354592524e-9,0.009999999434197103,0,0,-0.009999999434197103,-1.3435885354592524e-9,0,0,0.000017441621821490116,-0.00038612502976320684,1],"name":"网格.057_3","mesh":0}],"bufferViews":[{"buffer":0,"byteOffset":0,"byteLength":1272,"target":34962,"byteStride":12},{"buffer":0,"byteOffset":1272,"byteLength":1272,"target":34962,"byteStride":12},{"buffer":0,"byteOffset":2544,"byteLength":848,"target":34962,"byteStride":8},{"buffer":0,"byteOffset":3392,"byteLength":420,"target":34963}],"buffers":[{"byteLength":3812,"uri":"data:application/octet-stream;base64,"}],"accessors":[{"bufferView":0,"componentType":5126,"count":106,"max":[16214.0703125,21521.7109375,-435.46319580078125],"min":[14841.958984375,19753.712890625,-2678.479248046875],"type":"VEC3"},{"bufferView":1,"componentType":5126,"count":106,"max":[0.9827534556388855,0.9827548265457153,0],"min":[-0.9827533960342407,-0.9827536344528198,-1],"type":"VEC3"},{"bufferView":2,"componentType":5126,"count":106,"max":[0.9849622249603271,0.6469624638557434],"min":[0.06602215021848679,0.00009119510650634766],"type":"VEC2"},{"bufferView":3,"componentType":5123,"count":210,"max":[105],"min":[0],"type":"SCALAR"}],"materials":[{"pbrMetallicRoughness":{"baseColorFactor":[0.8117647058823529,0.792156862745098,0.788235294117647,1],"metallicFactor":0,"roughnessFactor":1}}],"meshes":[{"primitives":[{"mode":4,"attributes":{"POSITION":0,"NORMAL":1,"TEXCOORD_0":2},"indices":3,"material":0}]}]}