{"asset":{"version":"2.0","generator":"THREE.GLTFExporter"},"scenes":[{"nodes":[0]}],"scene":0,"nodes":[{"matrix":[0.009999999776482582,0,0,0,0,-1.3435885354592524e-9,0.009999999434197103,0,0,-0.009999999434197103,-1.3435885354592524e-9,0,0.000003814697265625,-0.000047174355131573975,0.000016567171769565903,1],"name":"网格.006_3","mesh":0}],"bufferViews":[{"buffer":0,"byteOffset":0,"byteLength":21312,"target":34962,"byteStride":12},{"buffer":0,"byteOffset":21312,"byteLength":21312,"target":34962,"byteStride":12},{"buffer":0,"byteOffset":42624,"byteLength":14208,"target":34962,"byteStride":8},{"buffer":0,"byteOffset":56832,"byteLength":17136,"target":34963}],"buffers":[{"byteLength":73968,"uri":"data:application/octet-stream;base64,"}],"accessors":[{"bufferView":0,"componentType":5126,"count":1776,"max":[5355.171875,20311.66015625,1318.933349609375],"min":[4880.44482421875,18918.2109375,744.3775634765625],"type":"VEC3"},{"bufferView":1,"componentType":5126,"count":1776,"max":[0.9845895767211914,0.997244119644165,0.9962412118911743],"min":[-0.9845914840698242,-0.9972600340843201,-0.9978631734848022],"type":"VEC3"},{"bufferView":2,"componentType":5126,"count":1776,"max":[0.6868558526039124,0.5464829802513123],"min":[0.22838318347930908,0.022661924362182617],"type":"VEC2"},{"bufferView":3,"componentType":5123,"count":8568,"max":[1775],"min":[0],"type":"SCALAR"}],"materials":[{"pbrMetallicRoughness":{"baseColorFactor":[0.4000000059604645,0.4000000059604645,0.4000000059604645,1],"metallicFactor":1,"roughnessFactor":0.7487671971321106},"doubleSided":true,"name":"DianTi_12_blinn14"}],"meshes":[{"primitives":[{"mode":4,"attributes":{"POSITION":0,"NORMAL":1,"TEXCOORD_0":2},"indices":3,"material":0}]}]}