{"asset":{"version":"2.0","generator":"THREE.GLTFExporter"},"scenes":[{"nodes":[0]}],"scene":0,"nodes":[{"matrix":[0.009999999776482582,0,0,0,0,-1.3435885354592524e-9,0.009999999434197103,0,0,-0.009999999434197103,-1.3435885354592524e-9,0,0.0000152587890625,0.00008105696178972721,-0.00003076285793213174,1],"name":"交通红路灯","extras":{"name":"交通红路灯"},"mesh":0}],"bufferViews":[{"buffer":0,"byteOffset":0,"byteLength":306552,"target":34962,"byteStride":12},{"buffer":0,"byteOffset":306552,"byteLength":306552,"target":34962,"byteStride":12},{"buffer":0,"byteOffset":613104,"byteLength":204368,"target":34962,"byteStride":8},{"buffer":0,"byteOffset":817472,"byteLength":65304,"target":34963}],"buffers":[{"byteLength":882776,"uri":"data:application/octet-stream;base64,"}],"accessors":[{"bufferView":0,"componentType":5126,"count":25546,"max":[6459.36328125,22051.279296875,-0.0011091232299804688],"min":[4662.8994140625,19539.7421875,-411.5111083984375],"type":"VEC3"},{"bufferView":1,"componentType":5126,"count":25546,"max":[1.0000001192092896,1,1],"min":[-1.0000001192092896,-1.0000001192092896,-1],"type":"VEC3"},{"bufferView":2,"componentType":5126,"count":25546,"max":[0.7153050303459167,0.9892281293869019],"min":[0.1001330018043518,0.008555591106414795],"type":"VEC2"},{"bufferView":3,"componentType":5123,"count":32652,"max":[25545],"min":[0],"type":"SCALAR"}],"materials":[{"pbrMetallicRoughness":{"baseColorFactor":[0.5254901960784314,0.5411764705882353,0.5254901960784314,1],"metallicFactor":0,"roughnessFactor":1}}],"meshes":[{"primitives":[{"mode":4,"attributes":{"POSITION":0,"NORMAL":1,"TEXCOORD_0":2},"indices":3,"material":0}]}]}