{"asset":{"version":"2.0","generator":"THREE.GLTFExporter"},"scenes":[{"nodes":[0]}],"scene":0,"nodes":[{"matrix":[0.009999999776482582,0,0,0,0,-1.3435885354592524e-9,0.009999999434197103,0,0,-0.009999999434197103,-1.3435885354592524e-9,0,-0.00000762939453125,0.00002251533260277938,-0.00023271673126146197,1],"name":"网格060","mesh":0}],"bufferViews":[{"buffer":0,"byteOffset":0,"byteLength":720,"target":34962,"byteStride":12},{"buffer":0,"byteOffset":720,"byteLength":720,"target":34962,"byteStride":12},{"buffer":0,"byteOffset":1440,"byteLength":480,"target":34962,"byteStride":8},{"buffer":0,"byteOffset":1920,"byteLength":204,"target":34963}],"buffers":[{"byteLength":2124,"uri":"data:application/octet-stream;base64,"}],"accessors":[{"bufferView":0,"componentType":5126,"count":60,"max":[12515.8525390625,25312.318359375,-13.862129211425781],"min":[10784.1943359375,23749.017578125,-6420.0263671875],"type":"VEC3"},{"bufferView":1,"componentType":5126,"count":60,"max":[0.9999257326126099,0.9999257326126099,0],"min":[-0.9999257922172546,-0.9999257326126099,-1],"type":"VEC3"},{"bufferView":2,"componentType":5126,"count":60,"max":[0.7848873734474182,0.9999129772186279],"min":[-0.000549018383026123,-0.00016963481903076172],"type":"VEC2"},{"bufferView":3,"componentType":5123,"count":102,"max":[59],"min":[0],"type":"SCALAR"}],"materials":[{"pbrMetallicRoughness":{"baseColorFactor":[0.8117647058823529,0.8156862745098039,0.807843137254902,1],"metallicFactor":0,"roughnessFactor":1}}],"meshes":[{"primitives":[{"mode":4,"attributes":{"POSITION":0,"NORMAL":1,"TEXCOORD_0":2},"indices":3,"material":0}]}]}