{"asset":{"version":"2.0","generator":"THREE.GLTFExporter"},"scenes":[{"nodes":[0]}],"scene":0,"nodes":[{"matrix":[0.009999999776482582,0,0,0,0,-1.3435885354592524e-9,0.009999999434197103,0,0,-0.009999999434197103,-1.3435885354592524e-9,0,0.000034332275390625,0.0002360051148571074,-0.00006993444549152628,1],"name":"网格.051_1","mesh":0}],"bufferViews":[{"buffer":0,"byteOffset":0,"byteLength":2316,"target":34962,"byteStride":12},{"buffer":0,"byteOffset":2316,"byteLength":2316,"target":34962,"byteStride":12},{"buffer":0,"byteOffset":4632,"byteLength":1544,"target":34962,"byteStride":8},{"buffer":0,"byteOffset":6176,"byteLength":788,"target":34963}],"buffers":[{"byteLength":6964,"uri":"data:application/octet-stream;base64,"}],"accessors":[{"bufferView":0,"componentType":5126,"count":193,"max":[4647.9208984375,30868.755859375,-600.4541015625],"min":[-677.9234619140625,21746.357421875,-5300.310546875],"type":"VEC3"},{"bufferView":1,"componentType":5126,"count":193,"max":[0.9999927878379822,0.9999929070472717,0.00007994954648893327],"min":[-0.999992847442627,-0.999992847442627,-1],"type":"VEC3"},{"bufferView":2,"componentType":5126,"count":193,"max":[0.9923441410064697,0.8332073092460632],"min":[0.0017526447772979736,0.0006309747695922852],"type":"VEC2"},{"bufferView":3,"componentType":5123,"count":393,"max":[192],"min":[0],"type":"SCALAR"}],"materials":[{"pbrMetallicRoughness":{"baseColorFactor":[0.4666666666666667,0.4470588235294118,0.41568627450980394,1],"metallicFactor":0,"roughnessFactor":1}}],"meshes":[{"primitives":[{"mode":4,"attributes":{"POSITION":0,"NORMAL":1,"TEXCOORD_0":2},"indices":3,"material":0}]}]}