{"asset":{"version":"2.0","generator":"THREE.GLTFExporter"},"scenes":[{"nodes":[0]}],"scene":0,"nodes":[{"matrix":[0.009999999776482582,0,0,0,0,-1.3435885354592524e-9,0.009999999434197103,0,0,-0.009999999434197103,-1.3435885354592524e-9,0,0.000102996826171875,0.000029048418582533486,0.000045929660700494424,1],"name":"网格.017_1","mesh":0}],"bufferViews":[{"buffer":0,"byteOffset":0,"byteLength":13488,"target":34962,"byteStride":12},{"buffer":0,"byteOffset":13488,"byteLength":13488,"target":34962,"byteStride":12},{"buffer":0,"byteOffset":26976,"byteLength":8992,"target":34962,"byteStride":8},{"buffer":0,"byteOffset":35968,"byteLength":7260,"target":34963}],"buffers":[{"byteLength":43228,"uri":"data:application/octet-stream;base64,"}],"accessors":[{"bufferView":0,"componentType":5126,"count":1124,"max":[3189.453125,19822.0390625,369.06719970703125],"min":[1549.2470703125,19310.0625,-171.9041748046875],"type":"VEC3"},{"bufferView":1,"componentType":5126,"count":1124,"max":[0.9995415210723877,0.9954505562782288,0.9984754920005798],"min":[-0.9999856948852539,-1,-1],"type":"VEC3"},{"bufferView":2,"componentType":5126,"count":1124,"max":[0.9982577562332153,0.9987003207206726],"min":[0.00016623735427856445,0.00011038780212402344],"type":"VEC2"},{"bufferView":3,"componentType":5123,"count":3630,"max":[1123],"min":[0],"type":"SCALAR"}],"materials":[{"pbrMetallicRoughness":{"baseColorFactor":[0.7333333333333333,0.6470588235294118,0.3568627450980392,1],"metallicFactor":0,"roughnessFactor":1}}],"meshes":[{"primitives":[{"mode":4,"attributes":{"POSITION":0,"NORMAL":1,"TEXCOORD_0":2},"indices":3,"material":0}]}]}