{"asset":{"version":"2.0","generator":"THREE.GLTFExporter"},"scenes":[{"nodes":[0]}],"scene":0,"nodes":[{"matrix":[0.009999999776482582,0,0,0,0,-1.3435885354592524e-9,0.009999999434197103,0,0,-0.009999999434197103,-1.3435885354592524e-9,0,0.0001373291015625,0.00028096343157812953,0,1],"name":"室内-二层-电梯天花板","extras":{"name":"室内-二层-电梯天花板"},"mesh":0}],"bufferViews":[{"buffer":0,"byteOffset":0,"byteLength":168,"target":34962,"byteStride":12},{"buffer":0,"byteOffset":168,"byteLength":168,"target":34962,"byteStride":12},{"buffer":0,"byteOffset":336,"byteLength":112,"target":34962,"byteStride":8},{"buffer":0,"byteOffset":448,"byteLength":36,"target":34963}],"buffers":[{"byteLength":484,"uri":"data:application/octet-stream;base64,"}],"accessors":[{"bufferView":0,"componentType":5126,"count":14,"max":[5375.07080078125,20257.955078125,961.9126586914062],"min":[4860.5458984375,19120.474609375,485.4045104980469],"type":"VEC3"},{"bufferView":1,"componentType":5126,"count":14,"max":[0,0.41793131828308105,0.9999999403953552],"min":[0,-1,0],"type":"VEC3"},{"bufferView":2,"componentType":5126,"count":14,"max":[3.597317695617676,8.570913314819336],"min":[-3.4741904735565186,-7.316702842712402],"type":"VEC2"},{"bufferView":3,"componentType":5123,"count":18,"max":[13],"min":[0],"type":"SCALAR"}],"materials":[{"pbrMetallicRoughness":{"baseColorFactor":[0.9176470588235294,0.9333333333333333,0.9686274509803922,1],"metallicFactor":0,"roughnessFactor":1}}],"meshes":[{"primitives":[{"mode":4,"attributes":{"POSITION":0,"NORMAL":1,"TEXCOORD_0":2},"indices":3,"material":0}]}]}