{"asset":{"version":"2.0","generator":"THREE.GLTFExporter"},"scenes":[{"nodes":[0]}],"scene":0,"nodes":[{"matrix":[0.009999999776482582,0,0,0,0,-1.3435885354592524e-9,0.009999999434197103,0,0,-0.009999999434197103,-1.3435885354592524e-9,0,-0.00000762939453125,-0.0008819981012493372,0.0000037980603337928187,1],"name":"网格067","mesh":0}],"bufferViews":[{"buffer":0,"byteOffset":0,"byteLength":2136,"target":34962,"byteStride":12},{"buffer":0,"byteOffset":2136,"byteLength":2136,"target":34962,"byteStride":12},{"buffer":0,"byteOffset":4272,"byteLength":1424,"target":34962,"byteStride":8},{"buffer":0,"byteOffset":5696,"byteLength":672,"target":34963}],"buffers":[{"byteLength":6368,"uri":"data:application/octet-stream;base64,"}],"accessors":[{"bufferView":0,"componentType":5126,"count":178,"max":[9520.791015625,8778.01171875,-2.56396484375],"min":[6270.8876953125,6522.6181640625,-5262.6865234375],"type":"VEC3"},{"bufferView":1,"componentType":5126,"count":178,"max":[1,1,1],"min":[-1,-1,-1],"type":"VEC3"},{"bufferView":2,"componentType":5126,"count":178,"max":[0.9994998574256897,0.9746561050415039],"min":[0.0021278560161590576,0.00019866228103637695],"type":"VEC2"},{"bufferView":3,"componentType":5123,"count":336,"max":[177],"min":[0],"type":"SCALAR"}],"materials":[{"pbrMetallicRoughness":{"baseColorFactor":[0.6039215686274509,0.6039215686274509,0.5843137254901961,1],"metallicFactor":0,"roughnessFactor":1}}],"meshes":[{"primitives":[{"mode":4,"attributes":{"POSITION":0,"NORMAL":1,"TEXCOORD_0":2},"indices":3,"material":0}]}]}