{"asset":{"version":"2.0","generator":"THREE.GLTFExporter"},"scenes":[{"nodes":[0]}],"scene":0,"nodes":[{"matrix":[0.009999999776482582,0,0,0,0,-1.3435885354592524e-9,0.009999999434197103,0,0,-0.009999999434197103,-1.3435885354592524e-9,0,0.0001373291015625,0.00012365708244033158,0,1],"name":"马路牙子","extras":{"name":"马路牙子"},"mesh":0}],"bufferViews":[{"buffer":0,"byteOffset":0,"byteLength":89832,"target":34962,"byteStride":12},{"buffer":0,"byteOffset":89832,"byteLength":89832,"target":34962,"byteStride":12},{"buffer":0,"byteOffset":179664,"byteLength":59888,"target":34962,"byteStride":8},{"buffer":0,"byteOffset":239552,"byteLength":27612,"target":34963}],"buffers":[{"byteLength":267164,"uri":"data:application/octet-stream;base64,"}],"accessors":[{"bufferView":0,"componentType":5126,"count":7486,"max":[67889.71875,66271.234375,17.25920867919922],"min":[-47432.91015625,-52377.04296875,-16.454883575439453],"type":"VEC3"},{"bufferView":1,"componentType":5126,"count":7486,"max":[1,1,1],"min":[-1,-1,-1.0000001192092896],"type":"VEC3"},{"bufferView":2,"componentType":5126,"count":7486,"max":[168.5117950439453,161.15650939941406],"min":[-167.5117950439453,-160.11256408691406],"type":"VEC2"},{"bufferView":3,"componentType":5123,"count":13806,"max":[7485],"min":[0],"type":"SCALAR"}],"materials":[{"pbrMetallicRoughness":{"baseColorFactor":[0.5333333333333333,0.5333333333333333,0.5215686274509804,1],"metallicFactor":0,"roughnessFactor":1}}],"meshes":[{"primitives":[{"mode":4,"attributes":{"POSITION":0,"NORMAL":1,"TEXCOORD_0":2},"indices":3,"material":0}]}]}