{"asset":{"version":"2.0","generator":"THREE.GLTFExporter"},"scenes":[{"nodes":[0]}],"scene":0,"nodes":[{"matrix":[0.009999999776482582,0,0,0,0,-1.3435885354592524e-9,0.009999999434197103,0,0,-0.009999999434197103,-1.3435885354592524e-9,0,0.00054931640625,0.000059214125940343365,-0.000462955329567194,1],"name":"网格.050_8","mesh":0}],"bufferViews":[{"buffer":0,"byteOffset":0,"byteLength":5280,"target":34962,"byteStride":12},{"buffer":0,"byteOffset":5280,"byteLength":5280,"target":34962,"byteStride":12},{"buffer":0,"byteOffset":10560,"byteLength":3520,"target":34962,"byteStride":8},{"buffer":0,"byteOffset":14080,"byteLength":1044,"target":34963}],"buffers":[{"byteLength":15124,"uri":"data:application/octet-stream;base64,"}],"accessors":[{"bufferView":0,"componentType":5126,"count":440,"max":[38928.640625,20683.43359375,-253.3446044921875],"min":[29639.234375,15601.34765625,-1900.866455078125],"type":"VEC3"},{"bufferView":1,"componentType":5126,"count":440,"max":[0.9760950207710266,0.9761497378349304,1],"min":[-0.9760953783988953,-0.9761342406272888,-1],"type":"VEC3"},{"bufferView":2,"componentType":5126,"count":440,"max":[1.0002018213272095,0.9874855279922485],"min":[0.09227484464645386,0.1040077805519104],"type":"VEC2"},{"bufferView":3,"componentType":5123,"count":522,"max":[439],"min":[0],"type":"SCALAR"}],"materials":[{"pbrMetallicRoughness":{"baseColorFactor":[0.30196078431372547,0.2823529411764706,0.2980392156862745,1],"metallicFactor":0,"roughnessFactor":1}}],"meshes":[{"primitives":[{"mode":4,"attributes":{"POSITION":0,"NORMAL":1,"TEXCOORD_0":2},"indices":3,"material":0}]}]}