{"asset":{"version":"2.0","generator":"THREE.GLTFExporter"},"scenes":[{"nodes":[0]}],"scene":0,"nodes":[{"matrix":[0.009999999776482582,0,0,0,0,-1.3435885354592524e-9,0.009999999434197103,0,0,-0.009999999434197103,-1.3435885354592524e-9,0,-0.001251220703125,0.000011323070793878287,-0.0004288299533072859,1],"name":"网格.055_1","mesh":0}],"bufferViews":[{"buffer":0,"byteOffset":0,"byteLength":2592,"target":34962,"byteStride":12},{"buffer":0,"byteOffset":2592,"byteLength":2592,"target":34962,"byteStride":12},{"buffer":0,"byteOffset":5184,"byteLength":1728,"target":34962,"byteStride":8},{"buffer":0,"byteOffset":6912,"byteLength":720,"target":34963}],"buffers":[{"byteLength":7632,"uri":"data:application/octet-stream;base64,"}],"accessors":[{"bufferView":0,"componentType":5126,"count":216,"max":[-18368.138671875,24827.71484375,-13.862060546875],"min":[-20262.859375,23067.42578125,-749.18603515625],"type":"VEC3"},{"bufferView":1,"componentType":5126,"count":216,"max":[0.9988602995872498,0.9988618493080139,1],"min":[-0.9988726377487183,-0.9988629221916199,-1],"type":"VEC3"},{"bufferView":2,"componentType":5126,"count":216,"max":[0.9944343566894531,0.9976956844329834],"min":[0.2940707206726074,0.4102867841720581],"type":"VEC2"},{"bufferView":3,"componentType":5123,"count":360,"max":[215],"min":[0],"type":"SCALAR"}],"materials":[{"pbrMetallicRoughness":{"baseColorFactor":[0.33725490196078434,0.3254901960784314,0.30196078431372547,1],"metallicFactor":0,"roughnessFactor":1}}],"meshes":[{"primitives":[{"mode":4,"attributes":{"POSITION":0,"NORMAL":1,"TEXCOORD_0":2},"indices":3,"material":0}]}]}