{"asset":{"version":"2.0","generator":"THREE.GLTFExporter"},"scenes":[{"nodes":[0]}],"scene":0,"nodes":[{"matrix":[0.009999999776482582,0,0,0,0,-1.3435885354592524e-9,0.009999999434197103,0,0,-0.009999999434197103,-1.3435885354592524e-9,0,-0.0001068115234375,0.00008584893657825887,0,1],"name":"室内-二层-护栏","extras":{"name":"室内-二层-护栏"},"mesh":0}],"bufferViews":[{"buffer":0,"byteOffset":0,"byteLength":5376,"target":34962,"byteStride":12},{"buffer":0,"byteOffset":5376,"byteLength":5376,"target":34962,"byteStride":12},{"buffer":0,"byteOffset":10752,"byteLength":3584,"target":34962,"byteStride":8},{"buffer":0,"byteOffset":14336,"byteLength":1152,"target":34963}],"buffers":[{"byteLength":15488,"uri":"data:application/octet-stream;base64,"}],"accessors":[{"bufferView":0,"componentType":5126,"count":448,"max":[6094.505859375,40261.51171875,853.6553955078125],"min":[4132.859375,18969.111328125,724.870361328125],"type":"VEC3"},{"bufferView":1,"componentType":5126,"count":448,"max":[1,1,1],"min":[-1,-1,-1],"type":"VEC3"},{"bufferView":2,"componentType":5126,"count":448,"max":[33.015380859375,0.9978665113449097],"min":[-0.9918918013572693,0.005134284496307373],"type":"VEC2"},{"bufferView":3,"componentType":5123,"count":576,"max":[447],"min":[0],"type":"SCALAR"}],"materials":[{"pbrMetallicRoughness":{"baseColorFactor":[0.6039215686274509,0.6392156862745098,0.6705882352941176,1],"metallicFactor":0,"roughnessFactor":1}}],"meshes":[{"primitives":[{"mode":4,"attributes":{"POSITION":0,"NORMAL":1,"TEXCOORD_0":2},"indices":3,"material":0}]}]}