{"asset":{"version":"2.0","generator":"THREE.GLTFExporter"},"scenes":[{"nodes":[0]}],"scene":0,"nodes":[{"matrix":[0.009999999776482582,0,0,0,0,-1.3435885354592524e-9,0.009999999434197103,0,0,-0.009999999434197103,-1.3435885354592524e-9,0,-0.000003814697265625,-0.00004316053673392162,-0.000013950405445939396,1],"name":"网格.005_2","mesh":0}],"bufferViews":[{"buffer":0,"byteOffset":0,"byteLength":10368,"target":34962,"byteStride":12},{"buffer":0,"byteOffset":10368,"byteLength":10368,"target":34962,"byteStride":12},{"buffer":0,"byteOffset":20736,"byteLength":6912,"target":34962,"byteStride":8},{"buffer":0,"byteOffset":27648,"byteLength":2448,"target":34963}],"buffers":[{"byteLength":30096,"uri":"data:application/octet-stream;base64,"}],"accessors":[{"bufferView":0,"componentType":5126,"count":864,"max":[5062.34765625,23699.70703125,1316.650390625],"min":[4885.4345703125,22313.3828125,747.237060546875],"type":"VEC3"},{"bufferView":1,"componentType":5126,"count":864,"max":[1.0000001192092896,0.012015564367175102,0.005495992489159107],"min":[-1,-0.011561890132725239,-0.004043512511998415],"type":"VEC3"},{"bufferView":2,"componentType":5126,"count":864,"max":[0.9999998807907104,0.6836989521980286],"min":[1.1920928955078125e-7,0.20333528518676758],"type":"VEC2"},{"bufferView":3,"componentType":5123,"count":1224,"max":[863],"min":[0],"type":"SCALAR"}],"materials":[{"pbrMetallicRoughness":{"baseColorFactor":[0.4000000059604645,0.4000000059604645,0.4000000059604645,1],"metallicFactor":1,"roughnessFactor":0.7487671971321106},"doubleSided":true,"name":"DianTi_12_blinn15"}],"meshes":[{"primitives":[{"mode":4,"attributes":{"POSITION":0,"NORMAL":1,"TEXCOORD_0":2},"indices":3,"material":0}]}]}