{"asset":{"version":"2.0","generator":"THREE.GLTFExporter"},"scenes":[{"nodes":[0]}],"scene":0,"nodes":[{"matrix":[0.009999999776482582,0,0,0,0,-1.3435885354592524e-9,0.009999999434197103,0,0,-0.009999999434197103,-1.3435885354592524e-9,0,0.0001277923583984375,-0.00017019215738400817,0.00003118286986136809,1],"name":"网格.007_1","mesh":0}],"bufferViews":[{"buffer":0,"byteOffset":0,"byteLength":6120,"target":34962,"byteStride":12},{"buffer":0,"byteOffset":6120,"byteLength":6120,"target":34962,"byteStride":12},{"buffer":0,"byteOffset":12240,"byteLength":4080,"target":34962,"byteStride":8},{"buffer":0,"byteOffset":16320,"byteLength":1296,"target":34963}],"buffers":[{"byteLength":17616,"uri":"data:application/octet-stream;base64,"}],"accessors":[{"bufferView":0,"componentType":5126,"count":510,"max":[3248.16943359375,18573.7109375,826.1321411132812],"min":[2198.8046875,18289.29296875,269.3232421875],"type":"VEC3"},{"bufferView":1,"componentType":5126,"count":510,"max":[0.9999995827674866,1,1],"min":[-0.9999998807907104,-1,-1],"type":"VEC3"},{"bufferView":2,"componentType":5126,"count":510,"max":[0.9776319861412048,0.9884719848632812],"min":[0.02015499956905842,0.010442972183227539],"type":"VEC2"},{"bufferView":3,"componentType":5123,"count":648,"max":[509],"min":[0],"type":"SCALAR"}],"materials":[{"pbrMetallicRoughness":{"baseColorFactor":[0.4000000059604645,0.4000000059604645,0.4000000059604645,1],"metallicFactor":1,"roughnessFactor":0.7487671971321106},"doubleSided":true,"name":"blinn242"}],"meshes":[{"primitives":[{"mode":4,"attributes":{"POSITION":0,"NORMAL":1,"TEXCOORD_0":2},"indices":3,"material":0}]}]}