{"asset":{"version":"2.0","generator":"THREE.GLTFExporter"},"scenes":[{"nodes":[0]}],"scene":0,"nodes":[{"matrix":[0.009999999776482582,0,0,0,0,-1.3435885354592524e-9,0.009999999434197103,0,0,-0.009999999434197103,-1.3435885354592524e-9,0,-0.0001678466796875,0.00002995081194967497,0.0004693303199019283,1],"name":"网格.064_2","mesh":0}],"bufferViews":[{"buffer":0,"byteOffset":0,"byteLength":2424,"target":34962,"byteStride":12},{"buffer":0,"byteOffset":2424,"byteLength":2424,"target":34962,"byteStride":12},{"buffer":0,"byteOffset":4848,"byteLength":1616,"target":34962,"byteStride":8},{"buffer":0,"byteOffset":6464,"byteLength":744,"target":34963}],"buffers":[{"byteLength":7208,"uri":"data:application/octet-stream;base64,"}],"accessors":[{"bufferView":0,"componentType":5126,"count":202,"max":[9971.0341796875,26314.5234375,-1319.8876953125],"min":[6244.2119140625,22251.017578125,-6180.5029296875],"type":"VEC3"},{"bufferView":1,"componentType":5126,"count":202,"max":[0.9999257922172546,0.9999257922172546,1],"min":[-0.9999257922172546,-0.9999257922172546,-1],"type":"VEC3"},{"bufferView":2,"componentType":5126,"count":202,"max":[0.9498221278190613,0.8829272985458374],"min":[0.0020003914833068848,0.020908772945404053],"type":"VEC2"},{"bufferView":3,"componentType":5123,"count":372,"max":[201],"min":[0],"type":"SCALAR"}],"materials":[{"pbrMetallicRoughness":{"baseColorFactor":[0.8156862745098039,0.7843137254901961,0.7333333333333333,1],"metallicFactor":0,"roughnessFactor":1}}],"meshes":[{"primitives":[{"mode":4,"attributes":{"POSITION":0,"NORMAL":1,"TEXCOORD_0":2},"indices":3,"material":0}]}]}