{"asset":{"version":"2.0","generator":"THREE.GLTFExporter"},"scenes":[{"nodes":[0]}],"scene":0,"nodes":[{"matrix":[0.009999999776482582,0,0,0,0,-1.3435885354592524e-9,0.009999999434197103,0,0,-0.009999999434197103,-1.3435885354592524e-9,0,-0.000087738037109375,-0.00004959433135809377,0.000045769607822876424,1],"name":"网格.076_1","mesh":0}],"bufferViews":[{"buffer":0,"byteOffset":0,"byteLength":960,"target":34962,"byteStride":12},{"buffer":0,"byteOffset":960,"byteLength":960,"target":34962,"byteStride":12},{"buffer":0,"byteOffset":1920,"byteLength":640,"target":34962,"byteStride":8},{"buffer":0,"byteOffset":2560,"byteLength":372,"target":34963}],"buffers":[{"byteLength":2932,"uri":"data:application/octet-stream;base64,"}],"accessors":[{"bufferView":0,"componentType":5126,"count":80,"max":[5658.48828125,19627.302734375,0.4331836700439453],"min":[5548.85302734375,18040.578125,-11.775673866271973],"type":"VEC3"},{"bufferView":1,"componentType":5126,"count":80,"max":[1,1,0],"min":[-1,-1,-1],"type":"VEC3"},{"bufferView":2,"componentType":5126,"count":80,"max":[-19.915111541748047,7.050436496734619],"min":[-29.4569034576416,-6.053259372711182],"type":"VEC2"},{"bufferView":3,"componentType":5123,"count":186,"max":[79],"min":[0],"type":"SCALAR"}],"materials":[{"pbrMetallicRoughness":{"baseColorFactor":[0.5333333333333333,0.5333333333333333,0.5215686274509804,1],"metallicFactor":0,"roughnessFactor":1}}],"meshes":[{"primitives":[{"mode":4,"attributes":{"POSITION":0,"NORMAL":1,"TEXCOORD_0":2},"indices":3,"material":0}]}]}