{"asset":{"version":"2.0","generator":"THREE.GLTFExporter"},"scenes":[{"nodes":[0]}],"scene":0,"nodes":[{"matrix":[0.009999999776482582,0,0,0,0,-1.3435885354592524e-9,0.009999999434197103,0,0,-0.009999999434197103,-1.3435885354592524e-9,0,0,0.00003784193177125417,0,1],"name":"网格.032_1","mesh":0}],"bufferViews":[{"buffer":0,"byteOffset":0,"byteLength":4128,"target":34962,"byteStride":12},{"buffer":0,"byteOffset":4128,"byteLength":4128,"target":34962,"byteStride":12},{"buffer":0,"byteOffset":8256,"byteLength":2752,"target":34962,"byteStride":8},{"buffer":0,"byteOffset":11008,"byteLength":696,"target":34963}],"buffers":[{"byteLength":11704,"uri":"data:application/octet-stream;base64,"}],"accessors":[{"bufferView":0,"componentType":5126,"count":344,"max":[7227.609375,52277.46875,853.6551513671875],"min":[1882.9716796875,11175.232421875,845.0873413085938],"type":"VEC3"},{"bufferView":1,"componentType":5126,"count":344,"max":[0.7174209356307983,0.7174050807952881,-0.6965467929840088],"min":[-0.7175055146217346,-0.7175114154815674,-0.9809352159500122],"type":"VEC3"},{"bufferView":2,"componentType":5126,"count":344,"max":[78.11091613769531,78.72892761230469],"min":[25.163925170898438,-74.43690490722656],"type":"VEC2"},{"bufferView":3,"componentType":5123,"count":348,"max":[343],"min":[0],"type":"SCALAR"}],"materials":[{"pbrMetallicRoughness":{"baseColorFactor":[0.09803921568627451,0.09019607843137255,0.07058823529411765,1],"metallicFactor":0,"roughnessFactor":1}}],"meshes":[{"primitives":[{"mode":4,"attributes":{"POSITION":0,"NORMAL":1,"TEXCOORD_0":2},"indices":3,"material":0}]}]}