{"asset":{"version":"2.0","generator":"THREE.GLTFExporter"},"scenes":[{"nodes":[0]}],"scene":0,"nodes":[{"matrix":[0.009999999776482582,0,0,0,0,-1.3435885354592524e-9,0.009999999434197103,0,0,-0.009999999434197103,-1.3435885354592524e-9,0,0,0.000041753075493033975,0,1],"name":"室内-一层-天花板","extras":{"name":"室内-一层-天花板"},"mesh":0}],"bufferViews":[{"buffer":0,"byteOffset":0,"byteLength":5844,"target":34962,"byteStride":12},{"buffer":0,"byteOffset":5844,"byteLength":5844,"target":34962,"byteStride":12},{"buffer":0,"byteOffset":11688,"byteLength":3896,"target":34962,"byteStride":8},{"buffer":0,"byteOffset":15584,"byteLength":1428,"target":34963}],"buffers":[{"byteLength":17012,"uri":"data:application/octet-stream;base64,"}],"accessors":[{"bufferView":0,"componentType":5126,"count":487,"max":[5741.01513671875,37130.01171875,1030.26220703125],"min":[4498.86669921875,16920.025390625,1030.2620849609375],"type":"VEC3"},{"bufferView":1,"componentType":5126,"count":487,"max":[0.00000138799612159346,4.42446548731823e-7,1],"min":[-0.0000013879819107387448,-3.894178064456355e-7,0.9999999403953552],"type":"VEC3"},{"bufferView":2,"componentType":5126,"count":487,"max":[0.9859760999679565,37.88018798828125],"min":[0.0010533183813095093,-36.88018798828125],"type":"VEC2"},{"bufferView":3,"componentType":5123,"count":714,"max":[486],"min":[0],"type":"SCALAR"}],"materials":[{"pbrMetallicRoughness":{"baseColorFactor":[0.611764705882353,0.596078431372549,0.5568627450980392,1],"metallicFactor":0,"roughnessFactor":1}}],"meshes":[{"primitives":[{"mode":4,"attributes":{"POSITION":0,"NORMAL":1,"TEXCOORD_0":2},"indices":3,"material":0}]}]}