{"asset":{"version":"2.0","generator":"THREE.GLTFExporter"},"scenes":[{"nodes":[0]}],"scene":0,"nodes":[{"matrix":[0.009999999776482582,0,0,0,0,-1.3435885354592524e-9,0.009999999434197103,0,0,-0.009999999434197103,-1.3435885354592524e-9,0,-0.000003814697265625,-0.00004316053673392162,-0.000013950405445939396,1],"name":"网格.005_3","mesh":0}],"bufferViews":[{"buffer":0,"byteOffset":0,"byteLength":10656,"target":34962,"byteStride":12},{"buffer":0,"byteOffset":10656,"byteLength":10656,"target":34962,"byteStride":12},{"buffer":0,"byteOffset":21312,"byteLength":7104,"target":34962,"byteStride":8},{"buffer":0,"byteOffset":28416,"byteLength":8568,"target":34963}],"buffers":[{"byteLength":36984,"uri":"data:application/octet-stream;base64,"}],"accessors":[{"bufferView":0,"componentType":5126,"count":888,"max":[5068.39013671875,23703.388671875,1318.933349609375],"min":[4884.7099609375,22309.9375,744.3775634765625],"type":"VEC3"},{"bufferView":1,"componentType":5126,"count":888,"max":[0.984602689743042,0.9972477555274963,0.9962399005889893],"min":[-0.9845067858695984,-0.9972609877586365,-0.997863233089447],"type":"VEC3"},{"bufferView":2,"componentType":5126,"count":888,"max":[0.6868558526039124,0.5464829802513123],"min":[0.22838318347930908,0.022661924362182617],"type":"VEC2"},{"bufferView":3,"componentType":5123,"count":4284,"max":[887],"min":[0],"type":"SCALAR"}],"materials":[{"pbrMetallicRoughness":{"baseColorFactor":[0.4000000059604645,0.4000000059604645,0.4000000059604645,1],"metallicFactor":1,"roughnessFactor":0.7487671971321106},"doubleSided":true,"name":"DianTi_12_blinn14"}],"meshes":[{"primitives":[{"mode":4,"attributes":{"POSITION":0,"NORMAL":1,"TEXCOORD_0":2},"indices":3,"material":0}]}]}