{"asset":{"version":"2.0","generator":"THREE.GLTFExporter"},"scenes":[{"nodes":[0]}],"scene":0,"nodes":[{"matrix":[0.009999999776482582,0,0,0,0,-1.3435885354592524e-9,0.009999999434197103,0,0,-0.009999999434197103,-1.3435885354592524e-9,0,0,0.000010365973139414564,0,1],"name":"网格029","mesh":0}],"bufferViews":[{"buffer":0,"byteOffset":0,"byteLength":4548,"target":34962,"byteStride":12},{"buffer":0,"byteOffset":4548,"byteLength":4548,"target":34962,"byteStride":12},{"buffer":0,"byteOffset":9096,"byteLength":3032,"target":34962,"byteStride":8},{"buffer":0,"byteOffset":12128,"byteLength":1308,"target":34963}],"buffers":[{"byteLength":13436,"uri":"data:application/octet-stream;base64,"}],"accessors":[{"bufferView":0,"componentType":5126,"count":379,"max":[5688.390625,36622.00390625,1339.7822265625],"min":[4551.4912109375,17569.21484375,989.995849609375],"type":"VEC3"},{"bufferView":1,"componentType":5126,"count":379,"max":[1,1,0.00026548653841018677],"min":[-1,-1,-0.00006779372051823884],"type":"VEC3"},{"bufferView":2,"componentType":5126,"count":379,"max":[1.042967677116394,0.8229808211326599],"min":[0.011087656021118164,0.0112837553024292],"type":"VEC2"},{"bufferView":3,"componentType":5123,"count":654,"max":[378],"min":[0],"type":"SCALAR"}],"materials":[{"pbrMetallicRoughness":{"baseColorFactor":[0.4980392156862745,0.4627450980392157,0.23921568627450981,1],"metallicFactor":0,"roughnessFactor":1}}],"meshes":[{"primitives":[{"mode":4,"attributes":{"POSITION":0,"NORMAL":1,"TEXCOORD_0":2},"indices":3,"material":0}]}]}