{"asset":{"version":"2.0","generator":"THREE.GLTFExporter"},"scenes":[{"nodes":[0]}],"scene":0,"nodes":[{"matrix":[0.009999999776482582,0,0,0,0,-1.3435885354592524e-9,0.009999999434197103,0,0,-0.009999999434197103,-1.3435885354592524e-9,0,-0.00018310546875,0.0000993234571069479,-0.000003883607860188931,1],"name":"网格.063_1","mesh":0}],"bufferViews":[{"buffer":0,"byteOffset":0,"byteLength":816,"target":34962,"byteStride":12},{"buffer":0,"byteOffset":816,"byteLength":816,"target":34962,"byteStride":12},{"buffer":0,"byteOffset":1632,"byteLength":544,"target":34962,"byteStride":8},{"buffer":0,"byteOffset":2176,"byteLength":228,"target":34963}],"buffers":[{"byteLength":2404,"uri":"data:application/octet-stream;base64,"}],"accessors":[{"bufferView":0,"componentType":5126,"count":68,"max":[13737.0283203125,36711.60546875,-13.86199951171875],"min":[6654.95947265625,27525.505859375,-1062.731201171875],"type":"VEC3"},{"bufferView":1,"componentType":5126,"count":68,"max":[1,0.9918214678764343,0.000002573196525190724],"min":[-1,-1,-1],"type":"VEC3"},{"bufferView":2,"componentType":5126,"count":68,"max":[1.1257610321044922,0.9952273964881897],"min":[-0.08890066295862198,0.0005286931991577148],"type":"VEC2"},{"bufferView":3,"componentType":5123,"count":114,"max":[67],"min":[0],"type":"SCALAR"}],"materials":[{"pbrMetallicRoughness":{"baseColorFactor":[0.49411764705882355,0.49019607843137253,0.47058823529411764,1],"metallicFactor":0,"roughnessFactor":1}}],"meshes":[{"primitives":[{"mode":4,"attributes":{"POSITION":0,"NORMAL":1,"TEXCOORD_0":2},"indices":3,"material":0}]}]}