{"asset":{"version":"2.0","generator":"THREE.GLTFExporter"},"scenes":[{"nodes":[0]}],"scene":0,"nodes":[{"matrix":[0.009999999776482582,0,0,0,0,-1.3435885354592524e-9,0.009999999434197103,0,0,-0.009999999434197103,-1.3435885354592524e-9,0,-0.00103759765625,-0.0002404973638476804,-0.00035494312760420144,1],"name":"网格.068_1","mesh":0}],"bufferViews":[{"buffer":0,"byteOffset":0,"byteLength":2088,"target":34962,"byteStride":12},{"buffer":0,"byteOffset":2088,"byteLength":2088,"target":34962,"byteStride":12},{"buffer":0,"byteOffset":4176,"byteLength":1392,"target":34962,"byteStride":8},{"buffer":0,"byteOffset":5568,"byteLength":552,"target":34963}],"buffers":[{"byteLength":6120,"uri":"data:application/octet-stream;base64,"}],"accessors":[{"bufferView":0,"componentType":5126,"count":174,"max":[51142.06640625,12263.05859375,-12.63189697265625],"min":[47160.48828125,6649.3154296875,-2088.40576171875],"type":"VEC3"},{"bufferView":1,"componentType":5126,"count":174,"max":[0.9913967847824097,0.991396963596344,1],"min":[-0.9913926720619202,-0.9913914799690247,-1],"type":"VEC3"},{"bufferView":2,"componentType":5126,"count":174,"max":[0.9873250126838684,0.9967719912528992],"min":[-1.0744357109069824,0.0019919872283935547],"type":"VEC2"},{"bufferView":3,"componentType":5123,"count":276,"max":[173],"min":[0],"type":"SCALAR"}],"materials":[{"pbrMetallicRoughness":{"baseColorFactor":[0.6235294117647059,0.6274509803921569,0.6235294117647059,1],"metallicFactor":0,"roughnessFactor":1}}],"meshes":[{"primitives":[{"mode":4,"attributes":{"POSITION":0,"NORMAL":1,"TEXCOORD_0":2},"indices":3,"material":0}]}]}