{"asset":{"version":"2.0","generator":"THREE.GLTFExporter"},"scenes":[{"nodes":[0]}],"scene":0,"nodes":[{"matrix":[0.009999999776482582,0,0,0,0,-1.3435885354592524e-9,0.009999999434197103,0,0,-0.009999999434197103,-1.3435885354592524e-9,0,-0.0000762939453125,0.00011534267105162144,0,1],"name":"室内-二层-闸机","extras":{"name":"室内-二层-闸机"},"mesh":0}],"bufferViews":[{"buffer":0,"byteOffset":0,"byteLength":556992,"target":34962,"byteStride":12},{"buffer":0,"byteOffset":556992,"byteLength":556992,"target":34962,"byteStride":12},{"buffer":0,"byteOffset":1113984,"byteLength":371328,"target":34962,"byteStride":8},{"buffer":0,"byteOffset":1485312,"byteLength":124260,"target":34963}],"buffers":[{"byteLength":1609572,"uri":"data:application/octet-stream;base64,"}],"accessors":[{"bufferView":0,"componentType":5126,"count":46416,"max":[5764.72314453125,37153.77734375,853.6553955078125],"min":[4125.5263671875,18759.111328125,743.236083984375],"type":"VEC3"},{"bufferView":1,"componentType":5126,"count":46416,"max":[1,1,1.0000001192092896],"min":[-1,-1,-1],"type":"VEC3"},{"bufferView":2,"componentType":5126,"count":46416,"max":[0.5658679008483887,1.000140905380249],"min":[0.0006667375564575195,0.5386364459991455],"type":"VEC2"},{"bufferView":3,"componentType":5123,"count":62130,"max":[46415],"min":[0],"type":"SCALAR"}],"materials":[{"pbrMetallicRoughness":{"baseColorFactor":[0.5294117647058824,0.5215686274509804,0.47843137254901963,1],"metallicFactor":0,"roughnessFactor":1}}],"meshes":[{"primitives":[{"mode":4,"attributes":{"POSITION":0,"NORMAL":1,"TEXCOORD_0":2},"indices":3,"material":0}]}]}