{"asset":{"version":"2.0","generator":"THREE.GLTFExporter"},"scenes":[{"nodes":[0]}],"scene":0,"nodes":[{"matrix":[0.009999999776482582,0,0,0,0,-1.3435885354592524e-9,0.009999999434197103,0,0,-0.009999999434197103,-1.3435885354592524e-9,0,0.0003528594970703125,0.0005103438161313534,-0.00019866059301421046,1],"name":"建筑围栏","extras":{"name":"建筑围栏"},"mesh":0}],"bufferViews":[{"buffer":0,"byteOffset":0,"byteLength":480,"target":34962,"byteStride":12},{"buffer":0,"byteOffset":480,"byteLength":480,"target":34962,"byteStride":12},{"buffer":0,"byteOffset":960,"byteLength":320,"target":34962,"byteStride":8},{"buffer":0,"byteOffset":1280,"byteLength":120,"target":34963}],"buffers":[{"byteLength":1400,"uri":"data:application/octet-stream;base64,"}],"accessors":[{"bufferView":0,"componentType":5126,"count":40,"max":[3688.041259765625,16072.185546875,-15.137199401855469],"min":[2667.943115234375,11742.69921875,-482.0296936035156],"type":"VEC3"},{"bufferView":1,"componentType":5126,"count":40,"max":[1,1,0],"min":[-1,-1,0],"type":"VEC3"},{"bufferView":2,"componentType":5126,"count":40,"max":[7.012478828430176,0.9940527081489563],"min":[-7.023794174194336,0.005995988845825195],"type":"VEC2"},{"bufferView":3,"componentType":5123,"count":60,"max":[39],"min":[0],"type":"SCALAR"}],"materials":[{"pbrMetallicRoughness":{"baseColorFactor":[0.23529411764705882,0.22745098039215686,0.23921568627450981,1],"metallicFactor":0,"roughnessFactor":1}}],"meshes":[{"primitives":[{"mode":4,"attributes":{"POSITION":0,"NORMAL":1,"TEXCOORD_0":2},"indices":3,"material":0}]}]}