{"asset":{"version":"2.0","generator":"THREE.GLTFExporter"},"scenes":[{"nodes":[0]}],"scene":0,"nodes":[{"matrix":[0.009999999776482582,0,0,0,0,-1.3435885354592524e-9,0.009999999434197103,0,0,-0.009999999434197103,-1.3435885354592524e-9,0,0.000003814697265625,0.000022277272364590317,0,1],"name":"网格.003_1","mesh":0}],"bufferViews":[{"buffer":0,"byteOffset":0,"byteLength":6768,"target":34962,"byteStride":12},{"buffer":0,"byteOffset":6768,"byteLength":6768,"target":34962,"byteStride":12},{"buffer":0,"byteOffset":13536,"byteLength":4512,"target":34962,"byteStride":8},{"buffer":0,"byteOffset":18048,"byteLength":3636,"target":34963}],"buffers":[{"byteLength":21684,"uri":"data:application/octet-stream;base64,"}],"accessors":[{"bufferView":0,"componentType":5126,"count":564,"max":[5374.98046875,27507.6328125,1338.02685546875],"min":[5154.0517578125,25867.427734375,797.0555419921875],"type":"VEC3"},{"bufferView":1,"componentType":5126,"count":564,"max":[0.9950810074806213,0.9999743103981018,0.9984756112098694],"min":[-1,-0.9995739459991455,-1],"type":"VEC3"},{"bufferView":2,"componentType":5126,"count":564,"max":[0.9982577562332153,0.9987003207206726],"min":[0.00016623735427856445,0.00011038780212402344],"type":"VEC2"},{"bufferView":3,"componentType":5123,"count":1818,"max":[563],"min":[0],"type":"SCALAR"}],"materials":[{"pbrMetallicRoughness":{"baseColorFactor":[0.7333333333333333,0.6470588235294118,0.3568627450980392,1],"metallicFactor":0,"roughnessFactor":1}}],"meshes":[{"primitives":[{"mode":4,"attributes":{"POSITION":0,"NORMAL":1,"TEXCOORD_0":2},"indices":3,"material":0}]}]}