{"asset":{"version":"2.0","generator":"THREE.GLTFExporter"},"scenes":[{"nodes":[0]}],"scene":0,"nodes":[{"matrix":[0.009999999776482582,0,0,0,0,-1.3435885354592524e-9,0.009999999434197103,0,0,-0.009999999434197103,-1.3435885354592524e-9,0,-0.000274658203125,-0.0004639452963601798,0.0000075927837315248325,1],"name":"网格074","mesh":0}],"bufferViews":[{"buffer":0,"byteOffset":0,"byteLength":1920,"target":34962,"byteStride":12},{"buffer":0,"byteOffset":1920,"byteLength":1920,"target":34962,"byteStride":12},{"buffer":0,"byteOffset":3840,"byteLength":1280,"target":34962,"byteStride":8},{"buffer":0,"byteOffset":5120,"byteLength":900,"target":34963}],"buffers":[{"byteLength":6020,"uri":"data:application/octet-stream;base64,"}],"accessors":[{"bufferView":0,"componentType":5126,"count":160,"max":[5646.1123046875,64806.94140625,-61.946510314941406],"min":[5560.263671875,-49528.12109375,-61.94767379760742],"type":"VEC3"},{"bufferView":1,"componentType":5126,"count":160,"max":[0.00030730795697309077,0.0003410356293898076,-0.9999998807907104],"min":[-0.00021930110233370215,-0.0003543029597494751,-1],"type":"VEC3"},{"bufferView":2,"componentType":5126,"count":160,"max":[-33.31110382080078,173.83477783203125],"min":[-46.95454406738281,-172.831298828125],"type":"VEC2"},{"bufferView":3,"componentType":5123,"count":450,"max":[159],"min":[0],"type":"SCALAR"}],"materials":[{"pbrMetallicRoughness":{"baseColorFactor":[0.3411764705882353,0.4745098039215686,0.12549019607843137,1],"metallicFactor":0,"roughnessFactor":1}}],"meshes":[{"primitives":[{"mode":4,"attributes":{"POSITION":0,"NORMAL":1,"TEXCOORD_0":2},"indices":3,"material":0}]}]}