{"asset":{"version":"2.0","generator":"THREE.GLTFExporter"},"scenes":[{"nodes":[0]}],"scene":0,"nodes":[{"matrix":[0.009999999776482582,0,0,0,0,-1.3435885354592524e-9,0.009999999434197103,0,0,-0.009999999434197103,-1.3435885354592524e-9,0,0,0.0009038832504302263,0.00000836012350191595,1],"name":"网格.012_1","mesh":0}],"bufferViews":[{"buffer":0,"byteOffset":0,"byteLength":13440,"target":34962,"byteStride":12},{"buffer":0,"byteOffset":13440,"byteLength":13440,"target":34962,"byteStride":12},{"buffer":0,"byteOffset":26880,"byteLength":8960,"target":34962,"byteStride":8},{"buffer":0,"byteOffset":35840,"byteLength":7260,"target":34963}],"buffers":[{"byteLength":43100,"uri":"data:application/octet-stream;base64,"}],"accessors":[{"bufferView":0,"componentType":5126,"count":1120,"max":[7873.6552734375,11686.70703125,853.4551391601562],"min":[6233.44921875,11174.7294921875,312.4837646484375],"type":"VEC3"},{"bufferView":1,"componentType":5126,"count":1120,"max":[0.999683141708374,0.9953391551971436,0.9984748959541321],"min":[-0.999996542930603,-1,-1],"type":"VEC3"},{"bufferView":2,"componentType":5126,"count":1120,"max":[0.9982577562332153,0.9987003207206726],"min":[0.00016623735427856445,0.00011038780212402344],"type":"VEC2"},{"bufferView":3,"componentType":5123,"count":3630,"max":[1119],"min":[0],"type":"SCALAR"}],"materials":[{"pbrMetallicRoughness":{"baseColorFactor":[0.7333333333333333,0.6470588235294118,0.3568627450980392,1],"metallicFactor":0,"roughnessFactor":1}}],"meshes":[{"primitives":[{"mode":4,"attributes":{"POSITION":0,"NORMAL":1,"TEXCOORD_0":2},"indices":3,"material":0}]}]}