{"asset":{"version":"2.0","generator":"THREE.GLTFExporter"},"scenes":[{"nodes":[0]}],"scene":0,"nodes":[{"matrix":[0.009999999776482582,0,0,0,0,-1.3435885354592524e-9,0.009999999434197103,0,0,-0.009999999434197103,-1.3435885354592524e-9,0,0.0001373291015625,0.000026382700525573455,0.00031688474700786173,1],"name":"网格054","mesh":0}],"bufferViews":[{"buffer":0,"byteOffset":0,"byteLength":3144,"target":34962,"byteStride":12},{"buffer":0,"byteOffset":3144,"byteLength":3144,"target":34962,"byteStride":12},{"buffer":0,"byteOffset":6288,"byteLength":2096,"target":34962,"byteStride":8},{"buffer":0,"byteOffset":8384,"byteLength":672,"target":34963}],"buffers":[{"byteLength":9056,"uri":"data:application/octet-stream;base64,"}],"accessors":[{"bufferView":0,"componentType":5126,"count":262,"max":[-10662.3662109375,22950.97265625,-485.2628173828125],"min":[-15902.5341796875,22516.34765625,-1090.866943359375],"type":"VEC3"},{"bufferView":1,"componentType":5126,"count":262,"max":[0.9988614320755005,0.9988694787025452,1],"min":[-0.9988599419593811,-0.9988694787025452,-1],"type":"VEC3"},{"bufferView":2,"componentType":5126,"count":262,"max":[0.9931741952896118,0.6742774248123169],"min":[0.06677542626857758,0.1040077805519104],"type":"VEC2"},{"bufferView":3,"componentType":5123,"count":336,"max":[261],"min":[0],"type":"SCALAR"}],"materials":[{"pbrMetallicRoughness":{"baseColorFactor":[0.30196078431372547,0.2823529411764706,0.2980392156862745,1],"metallicFactor":0,"roughnessFactor":1}}],"meshes":[{"primitives":[{"mode":4,"attributes":{"POSITION":0,"NORMAL":1,"TEXCOORD_0":2},"indices":3,"material":0}]}]}