{"asset":{"version":"2.0","generator":"THREE.GLTFExporter"},"scenes":[{"nodes":[0]}],"scene":0,"nodes":[{"matrix":[0.009999999776482582,0,0,0,0,-1.3435885354592524e-9,0.009999999434197103,0,0,-0.009999999434197103,-1.3435885354592524e-9,0,0.00054931640625,0.000059214125940343365,-0.000462955329567194,1],"name":"网格.050_7","mesh":0}],"bufferViews":[{"buffer":0,"byteOffset":0,"byteLength":2328,"target":34962,"byteStride":12},{"buffer":0,"byteOffset":2328,"byteLength":2328,"target":34962,"byteStride":12},{"buffer":0,"byteOffset":4656,"byteLength":1552,"target":34962,"byteStride":8},{"buffer":0,"byteOffset":6208,"byteLength":696,"target":34963}],"buffers":[{"byteLength":6904,"uri":"data:application/octet-stream;base64,"}],"accessors":[{"bufferView":0,"componentType":5126,"count":194,"max":[35939.5,20777.74609375,-13.862060546875],"min":[31533.478515625,17674.7109375,-8696.2861328125],"type":"VEC3"},{"bufferView":1,"componentType":5126,"count":194,"max":[0.9760895371437073,0.976087749004364,0],"min":[-0.9760895371437073,-0.9760883450508118,-1],"type":"VEC3"},{"bufferView":2,"componentType":5126,"count":194,"max":[0.9995381236076355,0.9859112501144409],"min":[0.003599882125854492,-0.0015381574630737305],"type":"VEC2"},{"bufferView":3,"componentType":5123,"count":348,"max":[193],"min":[0],"type":"SCALAR"}],"materials":[{"pbrMetallicRoughness":{"baseColorFactor":[0.5490196078431373,0.5803921568627451,0.6274509803921569,1],"metallicFactor":0,"roughnessFactor":1}}],"meshes":[{"primitives":[{"mode":4,"attributes":{"POSITION":0,"NORMAL":1,"TEXCOORD_0":2},"indices":3,"material":0}]}]}