{"asset":{"version":"2.0","generator":"THREE.GLTFExporter"},"scenes":[{"nodes":[0]}],"scene":0,"nodes":[{"matrix":[0.009999999776482582,0,0,0,0,-1.3435885354592524e-9,0.009999999434197103,0,0,-0.009999999434197103,-1.3435885354592524e-9,0,-0.000213623046875,0.00012363967834971845,0.0001959400688065216,1],"name":"网格.058_2","mesh":0}],"bufferViews":[{"buffer":0,"byteOffset":0,"byteLength":864,"target":34962,"byteStride":12},{"buffer":0,"byteOffset":864,"byteLength":864,"target":34962,"byteStride":12},{"buffer":0,"byteOffset":1728,"byteLength":576,"target":34962,"byteStride":8},{"buffer":0,"byteOffset":2304,"byteLength":216,"target":34963}],"buffers":[{"byteLength":2520,"uri":"data:application/octet-stream;base64,"}],"accessors":[{"bufferView":0,"componentType":5126,"count":72,"max":[21272.96875,20609.55078125,-359.72564697265625],"min":[21014.39453125,20304.41015625,-458.63372802734375],"type":"VEC3"},{"bufferView":1,"componentType":5126,"count":72,"max":[0.7654653191566467,0.7654627561569214,1],"min":[-0.7654653191566467,-0.7657602429389954,-1],"type":"VEC3"},{"bufferView":2,"componentType":5126,"count":72,"max":[0.9421420693397522,0.8088797330856323],"min":[0.03882790356874466,0.02265167236328125],"type":"VEC2"},{"bufferView":3,"componentType":5123,"count":108,"max":[71],"min":[0],"type":"SCALAR"}],"materials":[{"pbrMetallicRoughness":{"baseColorFactor":[0.7254901960784313,0.7058823529411765,0.7058823529411765,1],"metallicFactor":0,"roughnessFactor":1}}],"meshes":[{"primitives":[{"mode":4,"attributes":{"POSITION":0,"NORMAL":1,"TEXCOORD_0":2},"indices":3,"material":0}]}]}