{"asset":{"version":"2.0","generator":"THREE.GLTFExporter"},"scenes":[{"nodes":[0]}],"scene":0,"nodes":[{"matrix":[0.009999999776482582,0,0,0,0,-1.3435885354592524e-9,0.009999999434197103,0,0,-0.009999999434197103,-1.3435885354592524e-9,0,0.0001373291015625,0.000026382700525573455,0.00031688474700786173,1],"name":"网格.054_4","mesh":0}],"bufferViews":[{"buffer":0,"byteOffset":0,"byteLength":1068,"target":34962,"byteStride":12},{"buffer":0,"byteOffset":1068,"byteLength":1068,"target":34962,"byteStride":12},{"buffer":0,"byteOffset":2136,"byteLength":712,"target":34962,"byteStride":8},{"buffer":0,"byteOffset":2848,"byteLength":288,"target":34963}],"buffers":[{"byteLength":3136,"uri":"data:application/octet-stream;base64,"}],"accessors":[{"bufferView":0,"componentType":5126,"count":89,"max":[-11179.0302734375,24704.896484375,-1374.962646484375],"min":[-13339.455078125,23164.19921875,-5582.8662109375],"type":"VEC3"},{"bufferView":1,"componentType":5126,"count":89,"max":[0.9988594055175781,0.998859703540802,0],"min":[-0.9988593459129333,-0.998859703540802,-1],"type":"VEC3"},{"bufferView":2,"componentType":5126,"count":89,"max":[0.9598709344863892,0.987274706363678],"min":[0.0015468895435333252,0.01629728078842163],"type":"VEC2"},{"bufferView":3,"componentType":5123,"count":144,"max":[88],"min":[0],"type":"SCALAR"}],"materials":[{"pbrMetallicRoughness":{"baseColorFactor":[0.7411764705882353,0.7411764705882353,0.7019607843137254,1],"metallicFactor":0,"roughnessFactor":1}}],"meshes":[{"primitives":[{"mode":4,"attributes":{"POSITION":0,"NORMAL":1,"TEXCOORD_0":2},"indices":3,"material":0}]}]}