{"asset":{"version":"2.0","generator":"THREE.GLTFExporter"},"scenes":[{"nodes":[0]}],"scene":0,"nodes":[{"matrix":[0.009999999776482582,0,0,0,0,-1.3435885354592524e-9,0.009999999434197103,0,0,-0.009999999434197103,-1.3435885354592524e-9,0,-0.00091552734375,0.0004930281429551542,0.000254979298915714,1],"name":"网格.069_3","mesh":0}],"bufferViews":[{"buffer":0,"byteOffset":0,"byteLength":828,"target":34962,"byteStride":12},{"buffer":0,"byteOffset":828,"byteLength":828,"target":34962,"byteStride":12},{"buffer":0,"byteOffset":1656,"byteLength":552,"target":34962,"byteStride":8},{"buffer":0,"byteOffset":2208,"byteLength":248,"target":34963}],"buffers":[{"byteLength":2456,"uri":"data:application/octet-stream;base64,"}],"accessors":[{"bufferView":0,"componentType":5126,"count":69,"max":[31457.943359375,15742.7080078125,-12.631668090820312],"min":[29524.962890625,13156.8759765625,-7403.0947265625],"type":"VEC3"},{"bufferView":1,"componentType":5126,"count":69,"max":[0.9766108393669128,0.9766108989715576,0.000011941048796870746],"min":[-0.9766111969947815,-0.9766107797622681,-1],"type":"VEC3"},{"bufferView":2,"componentType":5126,"count":69,"max":[0.7958695888519287,1.0171537399291992],"min":[-0.2824714183807373,-0.0002231597900390625],"type":"VEC2"},{"bufferView":3,"componentType":5123,"count":123,"max":[68],"min":[0],"type":"SCALAR"}],"materials":[{"pbrMetallicRoughness":{"baseColorFactor":[0.8156862745098039,0.8313725490196079,0.7843137254901961,1],"metallicFactor":0,"roughnessFactor":1}}],"meshes":[{"primitives":[{"mode":4,"attributes":{"POSITION":0,"NORMAL":1,"TEXCOORD_0":2},"indices":3,"material":0}]}]}