{"asset":{"version":"2.0","generator":"THREE.GLTFExporter"},"scenes":[{"nodes":[0]}],"scene":0,"nodes":[{"matrix":[0.009999999776482582,0,0,0,0,-1.3435885354592524e-9,0.009999999434197103,0,0,-0.009999999434197103,-1.3435885354592524e-9,0,0.000003814697265625,0.000032704057957744226,0,1],"name":"网格025","mesh":0}],"bufferViews":[{"buffer":0,"byteOffset":0,"byteLength":11568,"target":34962,"byteStride":12},{"buffer":0,"byteOffset":11568,"byteLength":11568,"target":34962,"byteStride":12},{"buffer":0,"byteOffset":23136,"byteLength":7712,"target":34962,"byteStride":8},{"buffer":0,"byteOffset":30848,"byteLength":2040,"target":34963}],"buffers":[{"byteLength":32888,"uri":"data:application/octet-stream;base64,"}],"accessors":[{"bufferView":0,"componentType":5126,"count":964,"max":[6144.3056640625,33458.47265625,1328.5283203125],"min":[4096.82763671875,18229.6015625,1137.753662109375],"type":"VEC3"},{"bufferView":1,"componentType":5126,"count":964,"max":[1,0.9999922513961792,0.9999905824661255],"min":[-1,-0.999993085861206,-0.9999905824661255],"type":"VEC3"},{"bufferView":2,"componentType":5126,"count":964,"max":[0.9988104104995728,0.9985151886940002],"min":[0.00083174929022789,-0.000008344650268554688],"type":"VEC2"},{"bufferView":3,"componentType":5123,"count":1020,"max":[963],"min":[0],"type":"SCALAR"}],"materials":[{"pbrMetallicRoughness":{"baseColorFactor":[0.4549019607843137,0.5372549019607843,0.5647058823529412,1],"metallicFactor":0,"roughnessFactor":1}}],"meshes":[{"primitives":[{"mode":4,"attributes":{"POSITION":0,"NORMAL":1,"TEXCOORD_0":2},"indices":3,"material":0}]}]}