{"asset":{"version":"2.0","generator":"THREE.GLTFExporter"},"scenes":[{"nodes":[0]}],"scene":0,"nodes":[{"matrix":[0.009999999776482582,0,0,0,0,-1.3435885354592524e-9,0.009999999434197103,0,0,-0.009999999434197103,-1.3435885354592524e-9,0,-0.00091552734375,0.0004930281429551542,0.000254979298915714,1],"name":"网格.069_2","mesh":0}],"bufferViews":[{"buffer":0,"byteOffset":0,"byteLength":6636,"target":34962,"byteStride":12},{"buffer":0,"byteOffset":6636,"byteLength":6636,"target":34962,"byteStride":12},{"buffer":0,"byteOffset":13272,"byteLength":4424,"target":34962,"byteStride":8},{"buffer":0,"byteOffset":17696,"byteLength":1808,"target":34963}],"buffers":[{"byteLength":19504,"uri":"data:application/octet-stream;base64,"}],"accessors":[{"bufferView":0,"componentType":5126,"count":553,"max":[30089.873046875,17112.595703125,-12.631362915039062],"min":[26244.947265625,13616.44921875,-4364.33837890625],"type":"VEC3"},{"bufferView":1,"componentType":5126,"count":553,"max":[0.9793039560317993,0.9781383275985718,0.000010951936019409914],"min":[-0.9804925322532654,-0.9780146479606628,-1],"type":"VEC3"},{"bufferView":2,"componentType":5126,"count":553,"max":[2.0767717361450195,0.9991724491119385],"min":[-1.050947904586792,-0.00022459030151367188],"type":"VEC2"},{"bufferView":3,"componentType":5123,"count":903,"max":[552],"min":[0],"type":"SCALAR"}],"materials":[{"pbrMetallicRoughness":{"baseColorFactor":[0.5098039215686274,0.5176470588235295,0.4980392156862745,1],"metallicFactor":0,"roughnessFactor":1}}],"meshes":[{"primitives":[{"mode":4,"attributes":{"POSITION":0,"NORMAL":1,"TEXCOORD_0":2},"indices":3,"material":0}]}]}