{"asset":{"version":"2.0","generator":"THREE.GLTFExporter"},"scenes":[{"nodes":[0]}],"scene":0,"nodes":[{"matrix":[0.009999999776482582,0,0,0,0,-1.3435885354592524e-9,0.009999999434197103,0,0,-0.009999999434197103,-1.3435885354592524e-9,0,-0.00011444091796875,-0.000020239331206539646,0.0000300076153507689,1],"name":"路灯","extras":{"name":"路灯"},"mesh":0}],"bufferViews":[{"buffer":0,"byteOffset":0,"byteLength":486192,"target":34962,"byteStride":12},{"buffer":0,"byteOffset":486192,"byteLength":486192,"target":34962,"byteStride":12},{"buffer":0,"byteOffset":972384,"byteLength":324128,"target":34962,"byteStride":8},{"buffer":0,"byteOffset":1296512,"byteLength":111408,"target":34963}],"buffers":[{"byteLength":1407920,"uri":"data:application/octet-stream;base64,"}],"accessors":[{"bufferView":0,"componentType":5126,"count":40516,"max":[5875.1376953125,36108.3046875,-15.827617645263672],"min":[5333.28466796875,2735.73486328125,-839.7474975585938],"type":"VEC3"},{"bufferView":1,"componentType":5126,"count":40516,"max":[1,0.9973715543746948,1],"min":[-1,-0.9973713159561157,-1],"type":"VEC3"},{"bufferView":2,"componentType":5126,"count":40516,"max":[0.3649110496044159,0.9812279939651489],"min":[0.02323799580335617,0.02842402458190918],"type":"VEC2"},{"bufferView":3,"componentType":5123,"count":55704,"max":[40515],"min":[0],"type":"SCALAR"}],"materials":[{"pbrMetallicRoughness":{"baseColorFactor":[0.5254901960784314,0.5411764705882353,0.5254901960784314,1],"metallicFactor":0,"roughnessFactor":1}}],"meshes":[{"primitives":[{"mode":4,"attributes":{"POSITION":0,"NORMAL":1,"TEXCOORD_0":2},"indices":3,"material":0}]}]}