{"asset":{"version":"2.0","generator":"THREE.GLTFExporter"},"scenes":[{"nodes":[0]}],"scene":0,"nodes":[{"matrix":[0.009999999776482582,0,0,0,0,-1.3435885354592524e-9,0.009999999434197103,0,0,-0.009999999434197103,-1.3435885354592524e-9,0,0.000003814697265625,-0.00002954457886517048,0,1],"name":"网格_2","mesh":0}],"bufferViews":[{"buffer":0,"byteOffset":0,"byteLength":20832,"target":34962,"byteStride":12},{"buffer":0,"byteOffset":20832,"byteLength":20832,"target":34962,"byteStride":12},{"buffer":0,"byteOffset":41664,"byteLength":13888,"target":34962,"byteStride":8},{"buffer":0,"byteOffset":55552,"byteLength":4896,"target":34963}],"buffers":[{"byteLength":60448,"uri":"data:application/octet-stream;base64,"}],"accessors":[{"bufferView":0,"componentType":5126,"count":1736,"max":[5354.447265625,35097.1484375,1316.650390625],"min":[4886.486328125,33710.82421875,747.237060546875],"type":"VEC3"},{"bufferView":1,"componentType":5126,"count":1736,"max":[1,0.011443746276199818,0.005558419041335583],"min":[-1,-0.012133377604186535,-0.003908128011971712],"type":"VEC3"},{"bufferView":2,"componentType":5126,"count":1736,"max":[0.9999998807907104,0.6836989521980286],"min":[1.1920928955078125e-7,0.20333528518676758],"type":"VEC2"},{"bufferView":3,"componentType":5123,"count":2448,"max":[1735],"min":[0],"type":"SCALAR"}],"materials":[{"pbrMetallicRoughness":{"baseColorFactor":[0.4000000059604645,0.4000000059604645,0.4000000059604645,1],"metallicFactor":1,"roughnessFactor":0.7487671971321106},"doubleSided":true,"name":"DianTi_12_blinn15"}],"meshes":[{"primitives":[{"mode":4,"attributes":{"POSITION":0,"NORMAL":1,"TEXCOORD_0":2},"indices":3,"material":0}]}]}