{"asset":{"version":"2.0","generator":"THREE.GLTFExporter"},"scenes":[{"nodes":[0]}],"scene":0,"nodes":[{"matrix":[0.009999999776482582,0,0,0,0,-1.3435885354592524e-9,0.009999999434197103,0,0,-0.009999999434197103,-1.3435885354592524e-9,0,0.0001277923583984375,-0.00017019215738400817,0.00003118286986136809,1],"name":"网格.007_2","mesh":0}],"bufferViews":[{"buffer":0,"byteOffset":0,"byteLength":9948,"target":34962,"byteStride":12},{"buffer":0,"byteOffset":9948,"byteLength":9948,"target":34962,"byteStride":12},{"buffer":0,"byteOffset":19896,"byteLength":6632,"target":34962,"byteStride":8},{"buffer":0,"byteOffset":26528,"byteLength":1728,"target":34963}],"buffers":[{"byteLength":28256,"uri":"data:application/octet-stream;base64,"}],"accessors":[{"bufferView":0,"componentType":5126,"count":829,"max":[3246.85693359375,18584.197265625,853.8840942382812],"min":[2080.166015625,18280.734375,369.4288635253906],"type":"VEC3"},{"bufferView":1,"componentType":5126,"count":829,"max":[0.9999999403953552,1,0.003313780063763261],"min":[-0.0011874480405822396,-1.0000001192092896,-1],"type":"VEC3"},{"bufferView":2,"componentType":5126,"count":829,"max":[2.325881242752075,2.5684807300567627],"min":[-1.4238941669464111,-0.37871479988098145],"type":"VEC2"},{"bufferView":3,"componentType":5123,"count":864,"max":[828],"min":[0],"type":"SCALAR"}],"materials":[{"pbrMetallicRoughness":{"baseColorFactor":[0.49411764705882355,0.5137254901960784,0.5254901960784314,1],"metallicFactor":0,"roughnessFactor":1}}],"meshes":[{"primitives":[{"mode":4,"attributes":{"POSITION":0,"NORMAL":1,"TEXCOORD_0":2},"indices":3,"material":0}]}]}