{"asset":{"version":"2.0","generator":"THREE.GLTFExporter"},"scenes":[{"nodes":[0]}],"scene":0,"nodes":[{"matrix":[0.009999999776482582,0,0,0,0,-1.3435885354592524e-9,0.009999999434197103,0,0,-0.009999999434197103,-1.3435885354592524e-9,0,-0.0000762939453125,-0.00004203778371447697,-0.00018706865375861526,1],"name":"网格.066_3","mesh":0}],"bufferViews":[{"buffer":0,"byteOffset":0,"byteLength":2832,"target":34962,"byteStride":12},{"buffer":0,"byteOffset":2832,"byteLength":2832,"target":34962,"byteStride":12},{"buffer":0,"byteOffset":5664,"byteLength":1888,"target":34962,"byteStride":8},{"buffer":0,"byteOffset":7552,"byteLength":900,"target":34963}],"buffers":[{"byteLength":8452,"uri":"data:application/octet-stream;base64,"}],"accessors":[{"bufferView":0,"componentType":5126,"count":236,"max":[9590.9560546875,16038.8623046875,-14.075098037719727],"min":[6351.24755859375,12306.220703125,-6525.625],"type":"VEC3"},{"bufferView":1,"componentType":5126,"count":236,"max":[1,1,1],"min":[-1,-1,-1],"type":"VEC3"},{"bufferView":2,"componentType":5126,"count":236,"max":[0.999345064163208,0.9981934428215027],"min":[-1.2406936883926392,0.0011709928512573242],"type":"VEC2"},{"bufferView":3,"componentType":5123,"count":450,"max":[235],"min":[0],"type":"SCALAR"}],"materials":[{"pbrMetallicRoughness":{"baseColorFactor":[0.6666666666666666,0.615686274509804,0.5764705882352941,1],"metallicFactor":0,"roughnessFactor":1}}],"meshes":[{"primitives":[{"mode":4,"attributes":{"POSITION":0,"NORMAL":1,"TEXCOORD_0":2},"indices":3,"material":0}]}]}