{"asset":{"version":"2.0","generator":"THREE.GLTFExporter"},"scenes":[{"nodes":[0]}],"scene":0,"nodes":[{"matrix":[0.009999999776482582,0,0,0,0,-1.3435885354592524e-9,0.009999999434197103,0,0,-0.009999999434197103,-1.3435885354592524e-9,0,-0.00012969970703125,0.00003678107532323338,0,1],"name":"网格030","mesh":0}],"bufferViews":[{"buffer":0,"byteOffset":0,"byteLength":313344,"target":34962,"byteStride":12},{"buffer":0,"byteOffset":313344,"byteLength":313344,"target":34962,"byteStride":12},{"buffer":0,"byteOffset":626688,"byteLength":208896,"target":34962,"byteStride":8},{"buffer":0,"byteOffset":835584,"byteLength":208896,"target":34962,"byteStride":8},{"buffer":0,"byteOffset":1044480,"byteLength":65520,"target":34963}],"buffers":[{"byteLength":1110000,"uri":"data:application/octet-stream;base64,"}],"accessors":[{"bufferView":0,"componentType":5126,"count":26112,"max":[6050.546875,37522.29296875,511.29449462890625],"min":[4192.3505859375,11386.11328125,503.25787353515625],"type":"VEC3"},{"bufferView":1,"componentType":5126,"count":26112,"max":[1,1,1],"min":[-1,-1,0],"type":"VEC3"},{"bufferView":2,"componentType":5126,"count":26112,"max":[0.15922772884368896,0.8862043619155884],"min":[0.018015088513493538,0.5032130479812622],"type":"VEC2"},{"bufferView":3,"componentType":5126,"count":26112,"max":[1,1],"min":[0,0],"type":"VEC2"},{"bufferView":4,"componentType":5123,"count":32760,"max":[26111],"min":[0],"type":"SCALAR"}],"materials":[{"pbrMetallicRoughness":{"baseColorFactor":[0.6235294117647059,0.6196078431372549,0.6196078431372549,1],"metallicFactor":0,"roughnessFactor":1}}],"meshes":[{"primitives":[{"mode":4,"attributes":{"POSITION":0,"NORMAL":1,"TEXCOORD_0":2,"TEXCOORD_1":3},"indices":4,"material":0}]}]}