{"asset":{"version":"2.0","generator":"THREE.GLTFExporter"},"scenes":[{"nodes":[0]}],"scene":0,"nodes":[{"matrix":[0.009999999776482582,0,0,0,0,-1.3435885354592524e-9,0.009999999434197103,0,0,-0.009999999434197103,-1.3435885354592524e-9,0,0.0000152587890625,0.00008063480345299467,0.00031878281151875854,1],"name":"网格.059_1","mesh":0}],"bufferViews":[{"buffer":0,"byteOffset":0,"byteLength":1728,"target":34962,"byteStride":12},{"buffer":0,"byteOffset":1728,"byteLength":1728,"target":34962,"byteStride":12},{"buffer":0,"byteOffset":3456,"byteLength":1152,"target":34962,"byteStride":8},{"buffer":0,"byteOffset":4608,"byteLength":432,"target":34963}],"buffers":[{"byteLength":5040,"uri":"data:application/octet-stream;base64,"}],"accessors":[{"bufferView":0,"componentType":5126,"count":144,"max":[17089.0234375,25685.1015625,-274.26776123046875],"min":[15179.0400390625,24090.802734375,-340.08331298828125],"type":"VEC3"},{"bufferView":1,"componentType":5126,"count":144,"max":[0.745241641998291,0.7453196048736572,1],"min":[-0.7452753782272339,-0.7455021739006042,-1],"type":"VEC3"},{"bufferView":2,"componentType":5126,"count":144,"max":[0.9421420693397522,0.40464651584625244],"min":[0.42824259400367737,0.02076178789138794],"type":"VEC2"},{"bufferView":3,"componentType":5123,"count":216,"max":[143],"min":[0],"type":"SCALAR"}],"materials":[{"pbrMetallicRoughness":{"baseColorFactor":[0.7254901960784313,0.7058823529411765,0.7058823529411765,1],"metallicFactor":0,"roughnessFactor":1}}],"meshes":[{"primitives":[{"mode":4,"attributes":{"POSITION":0,"NORMAL":1,"TEXCOORD_0":2},"indices":3,"material":0}]}]}