{"asset":{"version":"2.0","generator":"THREE.GLTFExporter"},"scenes":[{"nodes":[0]}],"scene":0,"nodes":[{"matrix":[0.009999999776482582,0,0,0,0,-1.3435885354592524e-9,0.009999999434197103,0,0,-0.009999999434197103,-1.3435885354592524e-9,0,0.00054931640625,0.000059214125940343365,-0.000462955329567194,1],"name":"网格.050_3","mesh":0}],"bufferViews":[{"buffer":0,"byteOffset":0,"byteLength":7704,"target":34962,"byteStride":12},{"buffer":0,"byteOffset":7704,"byteLength":7704,"target":34962,"byteStride":12},{"buffer":0,"byteOffset":15408,"byteLength":5136,"target":34962,"byteStride":8},{"buffer":0,"byteOffset":20544,"byteLength":2136,"target":34963}],"buffers":[{"byteLength":22680,"uri":"data:application/octet-stream;base64,"}],"accessors":[{"bufferView":0,"componentType":5126,"count":642,"max":[46527.84375,19187.17578125,-13.862060546875],"min":[31376.1640625,14564.7724609375,-2314.2763671875],"type":"VEC3"},{"bufferView":1,"componentType":5126,"count":642,"max":[0.9859247207641602,0.9760873913764954,1],"min":[-0.9859243035316467,-0.9761078357696533,-1],"type":"VEC3"},{"bufferView":2,"componentType":5126,"count":642,"max":[0.9955017566680908,0.9990772604942322],"min":[0.0003796815872192383,0.0016666650772094727],"type":"VEC2"},{"bufferView":3,"componentType":5123,"count":1068,"max":[641],"min":[0],"type":"SCALAR"}],"materials":[{"pbrMetallicRoughness":{"baseColorFactor":[0.37254901960784315,0.3686274509803922,0.3607843137254902,1],"metallicFactor":0,"roughnessFactor":1}}],"meshes":[{"primitives":[{"mode":4,"attributes":{"POSITION":0,"NORMAL":1,"TEXCOORD_0":2},"indices":3,"material":0}]}]}