{"asset":{"version":"2.0","generator":"THREE.GLTFExporter"},"scenes":[{"nodes":[0]}],"scene":0,"nodes":[{"matrix":[0.009999999776482582,0,0,0,0,-1.3435885354592524e-9,0.009999999434197103,0,0,-0.009999999434197103,-1.3435885354592524e-9,0,-0.00000762939453125,-0.0008819981012493372,0.0000037980603337928187,1],"name":"网格.067_3","mesh":0}],"bufferViews":[{"buffer":0,"byteOffset":0,"byteLength":816,"target":34962,"byteStride":12},{"buffer":0,"byteOffset":816,"byteLength":816,"target":34962,"byteStride":12},{"buffer":0,"byteOffset":1632,"byteLength":544,"target":34962,"byteStride":8},{"buffer":0,"byteOffset":2176,"byteLength":240,"target":34963}],"buffers":[{"byteLength":2416,"uri":"data:application/octet-stream;base64,"}],"accessors":[{"bufferView":0,"componentType":5126,"count":68,"max":[11032.8779296875,10109.193359375,-1402.315673828125],"min":[7705.408203125,8373.73828125,-6426.41796875],"type":"VEC3"},{"bufferView":1,"componentType":5126,"count":68,"max":[1,1,1.9444912879862386e-7],"min":[-1,-1,-1],"type":"VEC3"},{"bufferView":2,"componentType":5126,"count":68,"max":[0.953253984451294,0.9874749779701233],"min":[0.0016464591026306152,0.017411351203918457],"type":"VEC2"},{"bufferView":3,"componentType":5123,"count":120,"max":[67],"min":[0],"type":"SCALAR"}],"materials":[{"pbrMetallicRoughness":{"baseColorFactor":[0.7098039215686275,0.7254901960784313,0.6941176470588235,1],"metallicFactor":0,"roughnessFactor":1}}],"meshes":[{"primitives":[{"mode":4,"attributes":{"POSITION":0,"NORMAL":1,"TEXCOORD_0":2},"indices":3,"material":0}]}]}