{"asset":{"version":"2.0","generator":"THREE.GLTFExporter"},"scenes":[{"nodes":[0]}],"scene":0,"nodes":[{"matrix":[0.009999999776482582,0,0,0,0,-1.3435885354592524e-9,0.009999999434197103,0,0,-0.009999999434197103,-1.3435885354592524e-9,0,0.00000762939453125,-0.000004764839104609564,0.00003192705844412558,1],"name":"网格026","mesh":0}],"bufferViews":[{"buffer":0,"byteOffset":0,"byteLength":17280,"target":34962,"byteStride":12},{"buffer":0,"byteOffset":17280,"byteLength":17280,"target":34962,"byteStride":12},{"buffer":0,"byteOffset":34560,"byteLength":11520,"target":34962,"byteStride":8},{"buffer":0,"byteOffset":46080,"byteLength":3240,"target":34963}],"buffers":[{"byteLength":49320,"uri":"data:application/octet-stream;base64,"}],"accessors":[{"bufferView":0,"componentType":5126,"count":1440,"max":[5756.384765625,36533.54296875,1333.7613525390625],"min":[5698.1044921875,17657.677734375,1133.682861328125],"type":"VEC3"},{"bufferView":1,"componentType":5126,"count":1440,"max":[0.999997615814209,1,1],"min":[-0.999997615814209,-1,-1],"type":"VEC3"},{"bufferView":2,"componentType":5126,"count":1440,"max":[0.9990018606185913,0.9993521571159363],"min":[0.0009979214519262314,0.19470250606536865],"type":"VEC2"},{"bufferView":3,"componentType":5123,"count":1620,"max":[1439],"min":[0],"type":"SCALAR"}],"materials":[{"pbrMetallicRoughness":{"baseColorFactor":[0.012804422527551651,0.012804422527551651,0.012804422527551651,1],"metallicFactor":0.6179999709129333,"roughnessFactor":0.6179999709129333},"alphaMode":"BLEND","doubleSided":true,"name":"blinn63"}],"meshes":[{"primitives":[{"mode":4,"attributes":{"POSITION":0,"NORMAL":1,"TEXCOORD_0":2},"indices":3,"material":0}]}]}