{"asset":{"version":"2.0","generator":"THREE.GLTFExporter"},"scenes":[{"nodes":[0]}],"scene":0,"nodes":[{"matrix":[0.009999999776482582,0,0,0,0,-1.3435885354592524e-9,0.009999999434197103,0,0,-0.009999999434197103,-1.3435885354592524e-9,0,-0.000057220458984375,0.00023641526058781892,0,1],"name":"室内-二层-售票机","extras":{"name":"室内-二层-售票机"},"mesh":0}],"bufferViews":[{"buffer":0,"byteOffset":0,"byteLength":16176,"target":34962,"byteStride":12},{"buffer":0,"byteOffset":16176,"byteLength":16176,"target":34962,"byteStride":12},{"buffer":0,"byteOffset":32352,"byteLength":10784,"target":34962,"byteStride":8},{"buffer":0,"byteOffset":43136,"byteLength":10784,"target":34962,"byteStride":8},{"buffer":0,"byteOffset":53920,"byteLength":3840,"target":34963}],"buffers":[{"byteLength":57760,"uri":"data:application/octet-stream;base64,"}],"accessors":[{"bufferView":0,"componentType":5126,"count":1348,"max":[6109.47900390625,38820.109375,853.6922607421875],"min":[4301.275390625,16218.876953125,673.6921997070312],"type":"VEC3"},{"bufferView":1,"componentType":5126,"count":1348,"max":[1,1,1],"min":[-1,-1,-1],"type":"VEC3"},{"bufferView":2,"componentType":5126,"count":1348,"max":[0.9941258430480957,0.6145126819610596],"min":[0.0019711137283593416,0.0006017684936523438],"type":"VEC2"},{"bufferView":3,"componentType":5126,"count":1348,"max":[0.9989989995956421,0.9989989995956421],"min":[0.0010010009864345193,0.0010010004043579102],"type":"VEC2"},{"bufferView":4,"componentType":5123,"count":1920,"max":[1347],"min":[0],"type":"SCALAR"}],"materials":[{"pbrMetallicRoughness":{"baseColorFactor":[0.5294117647058824,0.5215686274509804,0.47843137254901963,1],"metallicFactor":0,"roughnessFactor":1}}],"meshes":[{"primitives":[{"mode":4,"attributes":{"POSITION":0,"NORMAL":1,"TEXCOORD_0":2,"TEXCOORD_1":3},"indices":4,"material":0}]}]}