{"asset":{"version":"2.0","generator":"THREE.GLTFExporter"},"scenes":[{"nodes":[0]}],"scene":0,"nodes":[{"matrix":[0.009999999776482582,0,0,0,0,-1.3435885354592524e-9,0.009999999434197103,0,0,-0.009999999434197103,-1.3435885354592524e-9,0,-0.00091552734375,0.0004930281429551542,0.000254979298915714,1],"name":"网格.069_1","mesh":0}],"bufferViews":[{"buffer":0,"byteOffset":0,"byteLength":3504,"target":34962,"byteStride":12},{"buffer":0,"byteOffset":3504,"byteLength":3504,"target":34962,"byteStride":12},{"buffer":0,"byteOffset":7008,"byteLength":2336,"target":34962,"byteStride":8},{"buffer":0,"byteOffset":9344,"byteLength":792,"target":34963}],"buffers":[{"byteLength":10136,"uri":"data:application/octet-stream;base64,"}],"accessors":[{"bufferView":0,"componentType":5126,"count":292,"max":[47272.21484375,16834.3359375,-12.630508422851562],"min":[29896.36328125,10568.5947265625,-1764.1475830078125],"type":"VEC3"},{"bufferView":1,"componentType":5126,"count":292,"max":[0.986532986164093,0.977855920791626,1],"min":[-0.9778560996055603,-0.9778556823730469,-1],"type":"VEC3"},{"bufferView":2,"componentType":5126,"count":292,"max":[1.0004260540008545,0.9980079531669617],"min":[-0.6141379475593567,0.00030231475830078125],"type":"VEC2"},{"bufferView":3,"componentType":5123,"count":396,"max":[291],"min":[0],"type":"SCALAR"}],"materials":[{"pbrMetallicRoughness":{"baseColorFactor":[0.4666666666666667,0.4549019607843137,0.45098039215686275,1],"metallicFactor":0,"roughnessFactor":1}}],"meshes":[{"primitives":[{"mode":4,"attributes":{"POSITION":0,"NORMAL":1,"TEXCOORD_0":2},"indices":3,"material":0}]}]}