{"asset":{"version":"2.0","generator":"THREE.GLTFExporter"},"scenes":[{"nodes":[0]}],"scene":0,"nodes":[{"matrix":[0.009999999776482582,0,0,0,0,-1.3435885354592524e-9,0.009999999434197103,0,0,-0.009999999434197103,-1.3435885354592524e-9,0,0.00000762939453125,-0.0000629099813522771,0,1],"name":"网格.014_1","mesh":0}],"bufferViews":[{"buffer":0,"byteOffset":0,"byteLength":13368,"target":34962,"byteStride":12},{"buffer":0,"byteOffset":13368,"byteLength":13368,"target":34962,"byteStride":12},{"buffer":0,"byteOffset":26736,"byteLength":8912,"target":34962,"byteStride":8},{"buffer":0,"byteOffset":35648,"byteLength":7260,"target":34963}],"buffers":[{"byteLength":42908,"uri":"data:application/octet-stream;base64,"}],"accessors":[{"bufferView":0,"componentType":5126,"count":1114,"max":[5375.580078125,20447.38671875,853.4551391601562],"min":[4863.6025390625,18807.1796875,312.4837646484375],"type":"VEC3"},{"bufferView":1,"componentType":5126,"count":1114,"max":[1,0.9995763897895813,0.9984749555587769],"min":[-0.995192289352417,-0.999992847442627,-1],"type":"VEC3"},{"bufferView":2,"componentType":5126,"count":1114,"max":[0.9982577562332153,0.9987003207206726],"min":[0.00016623735427856445,0.00011038780212402344],"type":"VEC2"},{"bufferView":3,"componentType":5123,"count":3630,"max":[1113],"min":[0],"type":"SCALAR"}],"materials":[{"pbrMetallicRoughness":{"baseColorFactor":[0.7333333333333333,0.6470588235294118,0.3568627450980392,1],"metallicFactor":0,"roughnessFactor":1}}],"meshes":[{"primitives":[{"mode":4,"attributes":{"POSITION":0,"NORMAL":1,"TEXCOORD_0":2},"indices":3,"material":0}]}]}