{"asset":{"version":"2.0","generator":"THREE.GLTFExporter"},"scenes":[{"nodes":[0]}],"scene":0,"nodes":[{"matrix":[0.009999999776482582,0,0,0,0,-1.3435885354592524e-9,0.009999999434197103,0,0,-0.009999999434197103,-1.3435885354592524e-9,0,-0.000225067138671875,-0.00007376463327091187,0.00003132781421300024,1],"name":"网格045","mesh":0}],"bufferViews":[{"buffer":0,"byteOffset":0,"byteLength":3336,"target":34962,"byteStride":12},{"buffer":0,"byteOffset":3336,"byteLength":3336,"target":34962,"byteStride":12},{"buffer":0,"byteOffset":6672,"byteLength":2224,"target":34962,"byteStride":8},{"buffer":0,"byteOffset":8896,"byteLength":1080,"target":34963}],"buffers":[{"byteLength":9976,"uri":"data:application/octet-stream;base64,"}],"accessors":[{"bufferView":0,"componentType":5126,"count":278,"max":[4611.4384765625,35934.65625,853.6553955078125],"min":[4341.4384765625,35508.8359375,531.997314453125],"type":"VEC3"},{"bufferView":1,"componentType":5126,"count":278,"max":[0.9991785287857056,1.0000001192092896,1],"min":[-0.9991782903671265,-1,-1],"type":"VEC3"},{"bufferView":2,"componentType":5126,"count":278,"max":[0.9900805354118347,0.5876968502998352],"min":[0.19759225845336914,0.3696187734603882],"type":"VEC2"},{"bufferView":3,"componentType":5123,"count":540,"max":[277],"min":[0],"type":"SCALAR"}],"materials":[{"pbrMetallicRoughness":{"baseColorFactor":[0.396078431372549,0.3686274509803922,0.2823529411764706,1],"metallicFactor":0,"roughnessFactor":1}}],"meshes":[{"primitives":[{"mode":4,"attributes":{"POSITION":0,"NORMAL":1,"TEXCOORD_0":2},"indices":3,"material":0}]}]}