{"asset":{"version":"2.0","generator":"THREE.GLTFExporter"},"scenes":[{"nodes":[0]}],"scene":0,"nodes":[{"matrix":[0.009999999776482582,0,0,0,0,-1.3435885354592524e-9,0.009999999434197103,0,0,-0.009999999434197103,-1.3435885354592524e-9,0,-0.00091552734375,0.0004930281429551542,0.000254979298915714,1],"name":"网格069","mesh":0}],"bufferViews":[{"buffer":0,"byteOffset":0,"byteLength":1008,"target":34962,"byteStride":12},{"buffer":0,"byteOffset":1008,"byteLength":1008,"target":34962,"byteStride":12},{"buffer":0,"byteOffset":2016,"byteLength":672,"target":34962,"byteStride":8},{"buffer":0,"byteOffset":2688,"byteLength":240,"target":34963}],"buffers":[{"byteLength":2928,"uri":"data:application/octet-stream;base64,"}],"accessors":[{"bufferView":0,"componentType":5126,"count":84,"max":[45782.6484375,16647.224609375,-12.630874633789062],"min":[30044.6484375,11524.123046875,-1322.9095458984375],"type":"VEC3"},{"bufferView":1,"componentType":5126,"count":84,"max":[0.9778566360473633,0.9778558015823364,1],"min":[-0.9778554439544678,-0.9778557419776917,-1],"type":"VEC3"},{"bufferView":2,"componentType":5126,"count":84,"max":[1.0011756420135498,0.9981293678283691],"min":[-1.160033106803894,0.0010499358177185059],"type":"VEC2"},{"bufferView":3,"componentType":5123,"count":120,"max":[83],"min":[0],"type":"SCALAR"}],"materials":[{"pbrMetallicRoughness":{"baseColorFactor":[0.28627450980392155,0.2823529411764706,0.27058823529411763,1],"metallicFactor":0,"roughnessFactor":1}}],"meshes":[{"primitives":[{"mode":4,"attributes":{"POSITION":0,"NORMAL":1,"TEXCOORD_0":2},"indices":3,"material":0}]}]}