{"asset":{"version":"2.0","generator":"THREE.GLTFExporter"},"scenes":[{"nodes":[0]}],"scene":0,"nodes":[{"matrix":[0.009999999776482582,0,0,0,0,-1.3435885354592524e-9,0.009999999434197103,0,0,-0.009999999434197103,-1.3435885354592524e-9,0,-0.000217437744140625,-0.00009052271343534812,-0.00001444855206500506,1],"name":"网格.046_1","mesh":0}],"bufferViews":[{"buffer":0,"byteOffset":0,"byteLength":4176,"target":34962,"byteStride":12},{"buffer":0,"byteOffset":4176,"byteLength":4176,"target":34962,"byteStride":12},{"buffer":0,"byteOffset":8352,"byteLength":2784,"target":34962,"byteStride":8},{"buffer":0,"byteOffset":11136,"byteLength":1872,"target":34963}],"buffers":[{"byteLength":13008,"uri":"data:application/octet-stream;base64,"}],"accessors":[{"bufferView":0,"componentType":5126,"count":348,"max":[5852.99267578125,21919.798828125,838.2744140625],"min":[5510.23486328125,21408.29296875,505.69647216796875],"type":"VEC3"},{"bufferView":1,"componentType":5126,"count":348,"max":[0.9987756013870239,1,1],"min":[-1,-1,-1],"type":"VEC3"},{"bufferView":2,"componentType":5126,"count":348,"max":[13.584942817687988,8.647872924804688],"min":[-12.584944725036621,-7.345288276672363],"type":"VEC2"},{"bufferView":3,"componentType":5123,"count":936,"max":[347],"min":[0],"type":"SCALAR"}],"materials":[{"pbrMetallicRoughness":{"baseColorFactor":[0.788235294117647,0.788235294117647,0.788235294117647,1],"metallicFactor":0,"roughnessFactor":1}}],"meshes":[{"primitives":[{"mode":4,"attributes":{"POSITION":0,"NORMAL":1,"TEXCOORD_0":2},"indices":3,"material":0}]}]}