{"asset":{"version":"2.0","generator":"THREE.GLTFExporter"},"scenes":[{"nodes":[0]}],"scene":0,"nodes":[{"matrix":[0.009999999776482582,0,0,0,0,-1.3435885354592524e-9,0.009999999434197103,0,0,-0.009999999434197103,-1.3435885354592524e-9,0,0.000003814697265625,0.000032704057957744226,0,1],"name":"网格.025_2","mesh":0}],"bufferViews":[{"buffer":0,"byteOffset":0,"byteLength":528,"target":34962,"byteStride":12},{"buffer":0,"byteOffset":528,"byteLength":528,"target":34962,"byteStride":12},{"buffer":0,"byteOffset":1056,"byteLength":352,"target":34962,"byteStride":8},{"buffer":0,"byteOffset":1408,"byteLength":96,"target":34963}],"buffers":[{"byteLength":1504,"uri":"data:application/octet-stream;base64,"}],"accessors":[{"bufferView":0,"componentType":5126,"count":44,"max":[6140.28369140625,38813.0078125,1490.1409912109375],"min":[4099.59765625,12855.296875,870.7416381835938],"type":"VEC3"},{"bufferView":1,"componentType":5126,"count":44,"max":[1,3.7621294524115e-8,0],"min":[-1,-3.7621294524115e-8,-1],"type":"VEC3"},{"bufferView":2,"componentType":5126,"count":44,"max":[23.003013610839844,164.629150390625],"min":[-22.863290786743164,-163.62918090820312],"type":"VEC2"},{"bufferView":3,"componentType":5123,"count":48,"max":[43],"min":[0],"type":"SCALAR"}],"materials":[{"pbrMetallicRoughness":{"baseColorFactor":[0.5254901960784314,0.5215686274509804,0.49019607843137253,1],"metallicFactor":0,"roughnessFactor":1}}],"meshes":[{"primitives":[{"mode":4,"attributes":{"POSITION":0,"NORMAL":1,"TEXCOORD_0":2},"indices":3,"material":0}]}]}