{"asset":{"version":"2.0","generator":"THREE.GLTFExporter"},"scenes":[{"nodes":[0]}],"scene":0,"nodes":[{"matrix":[0.009999999776482582,0,0,0,0,-1.3435885354592524e-9,0.009999999434197103,0,0,-0.009999999434197103,-1.3435885354592524e-9,0,0,0.000017441621821490116,-0.00038612502976320684,1],"name":"网格.057_2","mesh":0}],"bufferViews":[{"buffer":0,"byteOffset":0,"byteLength":2844,"target":34962,"byteStride":12},{"buffer":0,"byteOffset":2844,"byteLength":2844,"target":34962,"byteStride":12},{"buffer":0,"byteOffset":5688,"byteLength":1896,"target":34962,"byteStride":8},{"buffer":0,"byteOffset":7584,"byteLength":864,"target":34963}],"buffers":[{"byteLength":8448,"uri":"data:application/octet-stream;base64,"}],"accessors":[{"bufferView":0,"componentType":5126,"count":237,"max":[15152.3798828125,22210.330078125,-13.862060546875],"min":[13731.021484375,20432.494140625,-5011.85986328125],"type":"VEC3"},{"bufferView":1,"componentType":5126,"count":237,"max":[0.9829996824264526,0.983000636100769,0],"min":[-0.9830005168914795,-0.9830012321472168,-1],"type":"VEC3"},{"bufferView":2,"componentType":5126,"count":237,"max":[1.0274827480316162,0.8960434794425964],"min":[-0.08525070548057556,-0.00034415721893310547],"type":"VEC2"},{"bufferView":3,"componentType":5123,"count":432,"max":[236],"min":[0],"type":"SCALAR"}],"materials":[{"pbrMetallicRoughness":{"baseColorFactor":[0.7098039215686275,0.7019607843137254,0.6980392156862745,1],"metallicFactor":0,"roughnessFactor":1}}],"meshes":[{"primitives":[{"mode":4,"attributes":{"POSITION":0,"NORMAL":1,"TEXCOORD_0":2},"indices":3,"material":0}]}]}