{"asset":{"version":"2.0","generator":"THREE.GLTFExporter"},"scenes":[{"nodes":[0]}],"scene":0,"nodes":[{"matrix":[0.009999999776482582,0,0,0,0,-1.3435885354592524e-9,0.009999999434197103,0,0,-0.009999999434197103,-1.3435885354592524e-9,0,-0.0000762939453125,0.000028959251721971668,0.000045929660700494424,1],"name":"网格.015_2","mesh":0}],"bufferViews":[{"buffer":0,"byteOffset":0,"byteLength":17064,"target":34962,"byteStride":12},{"buffer":0,"byteOffset":17064,"byteLength":17064,"target":34962,"byteStride":12},{"buffer":0,"byteOffset":34128,"byteLength":11376,"target":34962,"byteStride":8},{"buffer":0,"byteOffset":45504,"byteLength":4896,"target":34963}],"buffers":[{"byteLength":50400,"uri":"data:application/octet-stream;base64,"}],"accessors":[{"bufferView":0,"componentType":5126,"count":1422,"max":[9070.685546875,19724.357421875,347.690673828125],"min":[7684.3642578125,19256.39453125,-221.72265625],"type":"VEC3"},{"bufferView":1,"componentType":5126,"count":1422,"max":[0.011397679336369038,1,0.005838308017700911],"min":[-0.01201301533728838,-1,-0.004233379382640123],"type":"VEC3"},{"bufferView":2,"componentType":5126,"count":1422,"max":[0.9999998807907104,0.6836989521980286],"min":[1.1920928955078125e-7,0.20333528518676758],"type":"VEC2"},{"bufferView":3,"componentType":5123,"count":2448,"max":[1421],"min":[0],"type":"SCALAR"}],"materials":[{"pbrMetallicRoughness":{"baseColorFactor":[0.4000000059604645,0.4000000059604645,0.4000000059604645,1],"metallicFactor":1,"roughnessFactor":0.7487671971321106},"doubleSided":true,"name":"DianTi_12_blinn15"}],"meshes":[{"primitives":[{"mode":4,"attributes":{"POSITION":0,"NORMAL":1,"TEXCOORD_0":2},"indices":3,"material":0}]}]}