{"asset":{"version":"2.0","generator":"THREE.GLTFExporter"},"scenes":[{"nodes":[0]}],"scene":0,"nodes":[{"matrix":[0.009999999776482582,0,0,0,0,-1.3435885354592524e-9,0.009999999434197103,0,0,-0.009999999434197103,-1.3435885354592524e-9,0,0,0.000017441621821490116,-0.00038612502976320684,1],"name":"网格057","mesh":0}],"bufferViews":[{"buffer":0,"byteOffset":0,"byteLength":2304,"target":34962,"byteStride":12},{"buffer":0,"byteOffset":2304,"byteLength":2304,"target":34962,"byteStride":12},{"buffer":0,"byteOffset":4608,"byteLength":1536,"target":34962,"byteStride":8},{"buffer":0,"byteOffset":6144,"byteLength":648,"target":34963}],"buffers":[{"byteLength":6792,"uri":"data:application/octet-stream;base64,"}],"accessors":[{"bufferView":0,"componentType":5126,"count":192,"max":[14021.626953125,22483.955078125,-1817.4583740234375],"min":[11050.2783203125,20651.994140625,-7796.44287109375],"type":"VEC3"},{"bufferView":1,"componentType":5126,"count":192,"max":[0.9827349781990051,0.9827349781990051,7.677493840674288e-7],"min":[-0.9827349185943604,-0.9827359914779663,-1],"type":"VEC3"},{"bufferView":2,"componentType":5126,"count":192,"max":[0.9869124889373779,0.879305899143219],"min":[0.001434326171875,0.03989589214324951],"type":"VEC2"},{"bufferView":3,"componentType":5123,"count":324,"max":[191],"min":[0],"type":"SCALAR"}],"materials":[{"pbrMetallicRoughness":{"baseColorFactor":[0.5372549019607843,0.5686274509803921,0.596078431372549,1],"metallicFactor":0,"roughnessFactor":1}}],"meshes":[{"primitives":[{"mode":4,"attributes":{"POSITION":0,"NORMAL":1,"TEXCOORD_0":2},"indices":3,"material":0}]}]}