{"asset":{"version":"2.0","generator":"THREE.GLTFExporter"},"scenes":[{"nodes":[0]}],"scene":0,"nodes":[{"matrix":[0.009999999776482582,0,0,0,0,-1.3435885354592524e-9,0.009999999434197103,0,0,-0.009999999434197103,-1.3435885354592524e-9,0,0.000102996826171875,0.000029048418582533486,0.000045929660700494424,1],"name":"网格.017_2","mesh":0}],"bufferViews":[{"buffer":0,"byteOffset":0,"byteLength":19704,"target":34962,"byteStride":12},{"buffer":0,"byteOffset":19704,"byteLength":19704,"target":34962,"byteStride":12},{"buffer":0,"byteOffset":39408,"byteLength":13136,"target":34962,"byteStride":8},{"buffer":0,"byteOffset":52544,"byteLength":4896,"target":34963}],"buffers":[{"byteLength":57440,"uri":"data:application/octet-stream;base64,"}],"accessors":[{"bufferView":0,"componentType":5126,"count":1642,"max":[3050.28125,19799.154296875,347.690673828125],"min":[1663.9599609375,19331.1953125,-221.72265625],"type":"VEC3"},{"bufferView":1,"componentType":5126,"count":1642,"max":[0.011773644015192986,1,0.005623203702270985],"min":[-0.012135480530560017,-1,-0.004233720246702433],"type":"VEC3"},{"bufferView":2,"componentType":5126,"count":1642,"max":[0.9999998807907104,0.6836989521980286],"min":[1.1920928955078125e-7,0.20333528518676758],"type":"VEC2"},{"bufferView":3,"componentType":5123,"count":2448,"max":[1641],"min":[0],"type":"SCALAR"}],"materials":[{"pbrMetallicRoughness":{"baseColorFactor":[0.4000000059604645,0.4000000059604645,0.4000000059604645,1],"metallicFactor":1,"roughnessFactor":0.7487671971321106},"doubleSided":true,"name":"DianTi_12_blinn15"}],"meshes":[{"primitives":[{"mode":4,"attributes":{"POSITION":0,"NORMAL":1,"TEXCOORD_0":2},"indices":3,"material":0}]}]}