{"asset":{"version":"2.0","generator":"THREE.GLTFExporter"},"scenes":[{"nodes":[0]}],"scene":0,"nodes":[{"matrix":[0.009999999776482582,0,0,0,0,-1.3435885354592524e-9,0.009999999434197103,0,0,-0.009999999434197103,-1.3435885354592524e-9,0,-0.00091552734375,0.0004930281429551542,0.000254979298915714,1],"name":"网格.069_10","mesh":0}],"bufferViews":[{"buffer":0,"byteOffset":0,"byteLength":912,"target":34962,"byteStride":12},{"buffer":0,"byteOffset":912,"byteLength":912,"target":34962,"byteStride":12},{"buffer":0,"byteOffset":1824,"byteLength":608,"target":34962,"byteStride":8},{"buffer":0,"byteOffset":2432,"byteLength":252,"target":34963}],"buffers":[{"byteLength":2684,"uri":"data:application/octet-stream;base64,"}],"accessors":[{"bufferView":0,"componentType":5126,"count":76,"max":[39793.453125,14655.78125,-12.630508422851562],"min":[34669.44140625,11887.42578125,-6949.48388671875],"type":"VEC3"},{"bufferView":1,"componentType":5126,"count":76,"max":[0.9764367341995239,0.9764366745948792,0.000002973833488795208],"min":[-0.9764368534088135,-0.9764368534088135,-1],"type":"VEC3"},{"bufferView":2,"componentType":5126,"count":76,"max":[0.9905270338058472,0.9974408149719238],"min":[0.0016685466980561614,0.004575967788696289],"type":"VEC2"},{"bufferView":3,"componentType":5123,"count":126,"max":[75],"min":[0],"type":"SCALAR"}],"materials":[{"pbrMetallicRoughness":{"baseColorFactor":[0.6549019607843137,0.6509803921568628,0.6470588235294118,1],"metallicFactor":0,"roughnessFactor":1}}],"meshes":[{"primitives":[{"mode":4,"attributes":{"POSITION":0,"NORMAL":1,"TEXCOORD_0":2},"indices":3,"material":0}]}]}