{"asset":{"version":"2.0","generator":"THREE.GLTFExporter"},"scenes":[{"nodes":[0]}],"scene":0,"nodes":[{"matrix":[0.009999999776482582,0,0,0,0,-1.3435885354592524e-9,0.009999999434197103,0,0,-0.009999999434197103,-1.3435885354592524e-9,0,-0.00012969970703125,0.000035037315683439374,-0.00023126951418817043,1],"name":"网格052","mesh":0}],"bufferViews":[{"buffer":0,"byteOffset":0,"byteLength":1656,"target":34962,"byteStride":12},{"buffer":0,"byteOffset":1656,"byteLength":1656,"target":34962,"byteStride":12},{"buffer":0,"byteOffset":3312,"byteLength":1104,"target":34962,"byteStride":8},{"buffer":0,"byteOffset":4416,"byteLength":336,"target":34963}],"buffers":[{"byteLength":4752,"uri":"data:application/octet-stream;base64,"}],"accessors":[{"bufferView":0,"componentType":5126,"count":138,"max":[-3523.7119140625,22428.064453125,-504.134521484375],"min":[-6667.55908203125,21844.853515625,-1118.450927734375],"type":"VEC3"},{"bufferView":1,"componentType":5126,"count":138,"max":[0.9991133213043213,0.9991161227226257,1],"min":[-0.9991120100021362,-0.9991161227226257,-1],"type":"VEC3"},{"bufferView":2,"componentType":5126,"count":138,"max":[0.9821582436561584,0.5839055180549622],"min":[0.06677542626857758,0.121387779712677],"type":"VEC2"},{"bufferView":3,"componentType":5123,"count":168,"max":[137],"min":[0],"type":"SCALAR"}],"materials":[{"pbrMetallicRoughness":{"baseColorFactor":[0.30196078431372547,0.2823529411764706,0.2980392156862745,1],"metallicFactor":0,"roughnessFactor":1}}],"meshes":[{"primitives":[{"mode":4,"attributes":{"POSITION":0,"NORMAL":1,"TEXCOORD_0":2},"indices":3,"material":0}]}]}