{"asset":{"version":"2.0","generator":"THREE.GLTFExporter"},"scenes":[{"nodes":[0]}],"scene":0,"nodes":[{"matrix":[0.009999999776482582,0,0,0,0,-1.3435885354592524e-9,0.009999999434197103,0,0,-0.009999999434197103,-1.3435885354592524e-9,0,-0.0000152587890625,0.0002145460748579353,0.00019326459732837975,1],"name":"网格.065_2","mesh":0}],"bufferViews":[{"buffer":0,"byteOffset":0,"byteLength":14136,"target":34962,"byteStride":12},{"buffer":0,"byteOffset":14136,"byteLength":14136,"target":34962,"byteStride":12},{"buffer":0,"byteOffset":28272,"byteLength":9424,"target":34962,"byteStride":8},{"buffer":0,"byteOffset":37696,"byteLength":2928,"target":34963}],"buffers":[{"byteLength":40624,"uri":"data:application/octet-stream;base64,"}],"accessors":[{"bufferView":0,"componentType":5126,"count":1178,"max":[20727.95703125,19669.353515625,-303.39642333984375],"min":[11946.7744140625,17178.419921875,-725.4058227539062],"type":"VEC3"},{"bufferView":1,"componentType":5126,"count":1178,"max":[0.9820336103439331,0.9820436239242554,1],"min":[-0.9821174740791321,-0.9820919036865234,-1],"type":"VEC3"},{"bufferView":2,"componentType":5126,"count":1178,"max":[0.9917275309562683,0.8747372627258301],"min":[0.007624685764312744,0.17264318466186523],"type":"VEC2"},{"bufferView":3,"componentType":5123,"count":1464,"max":[1177],"min":[0],"type":"SCALAR"}],"materials":[{"pbrMetallicRoughness":{"baseColorFactor":[0.6627450980392157,0.611764705882353,0.6196078431372549,1],"metallicFactor":0,"roughnessFactor":1}}],"meshes":[{"primitives":[{"mode":4,"attributes":{"POSITION":0,"NORMAL":1,"TEXCOORD_0":2},"indices":3,"material":0}]}]}