{"asset":{"version":"2.0","generator":"THREE.GLTFExporter"},"scenes":[{"nodes":[0]}],"scene":0,"nodes":[{"matrix":[0.009999999776482582,0,0,0,0,-1.3435885354592524e-9,0.009999999434197103,0,0,-0.009999999434197103,-1.3435885354592524e-9,0,-0.00023651123046875,-0.00025849658413790166,-0.00021842661953996867,1],"name":"网格061","mesh":0}],"bufferViews":[{"buffer":0,"byteOffset":0,"byteLength":2328,"target":34962,"byteStride":12},{"buffer":0,"byteOffset":2328,"byteLength":2328,"target":34962,"byteStride":12},{"buffer":0,"byteOffset":4656,"byteLength":1552,"target":34962,"byteStride":8},{"buffer":0,"byteOffset":6208,"byteLength":708,"target":34963}],"buffers":[{"byteLength":6916,"uri":"data:application/octet-stream;base64,"}],"accessors":[{"bufferView":0,"componentType":5126,"count":194,"max":[9995.7099609375,47634.9765625,-713.8615112304688],"min":[6363.908203125,43479.72265625,-8045.185546875],"type":"VEC3"},{"bufferView":1,"componentType":5126,"count":194,"max":[1,1,1],"min":[-1,-1,-1],"type":"VEC3"},{"bufferView":2,"componentType":5126,"count":194,"max":[1.306904911994934,0.7436697483062744],"min":[-0.31736811995506287,0.016089439392089844],"type":"VEC2"},{"bufferView":3,"componentType":5123,"count":354,"max":[193],"min":[0],"type":"SCALAR"}],"materials":[{"pbrMetallicRoughness":{"baseColorFactor":[0.6745098039215687,0.6941176470588235,0.6784313725490196,1],"metallicFactor":0,"roughnessFactor":1}}],"meshes":[{"primitives":[{"mode":4,"attributes":{"POSITION":0,"NORMAL":1,"TEXCOORD_0":2},"indices":3,"material":0}]}]}