{"asset":{"version":"2.0","generator":"THREE.GLTFExporter"},"scenes":[{"nodes":[0]}],"scene":0,"nodes":[{"matrix":[0.009999999776482582,0,0,0,0,-1.3435885354592524e-9,0.009999999434197103,0,0,-0.009999999434197103,-1.3435885354592524e-9,0,0.000003814697265625,0.000032704057957744226,0,1],"name":"网格.025_1","mesh":0}],"bufferViews":[{"buffer":0,"byteOffset":0,"byteLength":5136,"target":34962,"byteStride":12},{"buffer":0,"byteOffset":5136,"byteLength":5136,"target":34962,"byteStride":12},{"buffer":0,"byteOffset":10272,"byteLength":3424,"target":34962,"byteStride":8},{"buffer":0,"byteOffset":13696,"byteLength":1080,"target":34963}],"buffers":[{"byteLength":14776,"uri":"data:application/octet-stream;base64,"}],"accessors":[{"bufferView":0,"componentType":5126,"count":428,"max":[6095.169921875,38561.96484375,1492.270263671875],"min":[4144.712890625,15224.0234375,1455.8984375],"type":"VEC3"},{"bufferView":1,"componentType":5126,"count":428,"max":[1,0.00003599699630285613,0.9810755252838135],"min":[-1,-0.000018002339857048355,-1],"type":"VEC3"},{"bufferView":2,"componentType":5126,"count":428,"max":[0.9185032844543457,1],"min":[-0.0010683760046958923,-45.6762580871582],"type":"VEC2"},{"bufferView":3,"componentType":5123,"count":540,"max":[427],"min":[0],"type":"SCALAR"}],"materials":[{"pbrMetallicRoughness":{"baseColorFactor":[0.47843137254901963,0.4588235294117647,0.43137254901960786,1],"metallicFactor":0,"roughnessFactor":1}}],"meshes":[{"primitives":[{"mode":4,"attributes":{"POSITION":0,"NORMAL":1,"TEXCOORD_0":2},"indices":3,"material":0}]}]}