{"asset":{"version":"2.0","generator":"THREE.GLTFExporter"},"scenes":[{"nodes":[0]}],"scene":0,"nodes":[{"matrix":[0.009999999776482582,0,0,0,0,-1.3435885354592524e-9,0.009999999434197103,0,0,-0.009999999434197103,-1.3435885354592524e-9,0,-0.00000762939453125,0.00002251533260277938,-0.00023271673126146197,1],"name":"网格.060_1","mesh":0}],"bufferViews":[{"buffer":0,"byteOffset":0,"byteLength":1056,"target":34962,"byteStride":12},{"buffer":0,"byteOffset":1056,"byteLength":1056,"target":34962,"byteStride":12},{"buffer":0,"byteOffset":2112,"byteLength":704,"target":34962,"byteStride":8},{"buffer":0,"byteOffset":2816,"byteLength":312,"target":34963}],"buffers":[{"byteLength":3128,"uri":"data:application/octet-stream;base64,"}],"accessors":[{"bufferView":0,"componentType":5126,"count":88,"max":[14208.158203125,26180.314453125,-13.861763000488281],"min":[10773.904296875,25292.45703125,-1735.422607421875],"type":"VEC3"},{"bufferView":1,"componentType":5126,"count":88,"max":[0.9999257326126099,0.9999257922172546,0],"min":[-0.9999257922172546,-0.9999257922172546,-1],"type":"VEC3"},{"bufferView":2,"componentType":5126,"count":88,"max":[0.999746561050415,0.9938501119613647],"min":[-0.00016111135482788086,0.00022482872009277344],"type":"VEC2"},{"bufferView":3,"componentType":5123,"count":156,"max":[87],"min":[0],"type":"SCALAR"}],"materials":[{"pbrMetallicRoughness":{"baseColorFactor":[0.5843137254901961,0.5803921568627451,0.5803921568627451,1],"metallicFactor":0,"roughnessFactor":1}}],"meshes":[{"primitives":[{"mode":4,"attributes":{"POSITION":0,"NORMAL":1,"TEXCOORD_0":2},"indices":3,"material":0}]}]}