{"asset":{"version":"2.0","generator":"THREE.GLTFExporter"},"scenes":[{"nodes":[0]}],"scene":0,"nodes":[{"matrix":[0.009999999776482582,0,0,0,0,-1.3435885354592524e-9,0.009999999434197103,0,0,-0.009999999434197103,-1.3435885354592524e-9,0,0,0.00003784193177125417,0,1],"name":"网格032","mesh":0}],"bufferViews":[{"buffer":0,"byteOffset":0,"byteLength":6084,"target":34962,"byteStride":12},{"buffer":0,"byteOffset":6084,"byteLength":6084,"target":34962,"byteStride":12},{"buffer":0,"byteOffset":12168,"byteLength":4056,"target":34962,"byteStride":8},{"buffer":0,"byteOffset":16224,"byteLength":1656,"target":34963}],"buffers":[{"byteLength":17880,"uri":"data:application/octet-stream;base64,"}],"accessors":[{"bufferView":0,"componentType":5126,"count":507,"max":[26205.75390625,53093.3125,854.4578857421875],"min":[-3926.427734375,10394.9150390625,369.2672119140625],"type":"VEC3"},{"bufferView":1,"componentType":5126,"count":507,"max":[0,0.000001982565208891174,-0.9999999403953552],"min":[0,-0.0000016978850680970936,-1],"type":"VEC3"},{"bufferView":2,"componentType":5126,"count":507,"max":[57.748905181884766,78.72891235351562],"min":[-77.11875915527344,-77.72891235351562],"type":"VEC2"},{"bufferView":3,"componentType":5123,"count":828,"max":[506],"min":[0],"type":"SCALAR"}],"materials":[{"pbrMetallicRoughness":{"baseColorFactor":[0.49411764705882355,0.5137254901960784,0.5254901960784314,1],"metallicFactor":0,"roughnessFactor":1}}],"meshes":[{"primitives":[{"mode":4,"attributes":{"POSITION":0,"NORMAL":1,"TEXCOORD_0":2},"indices":3,"material":0}]}]}