{"asset":{"version":"2.0","generator":"THREE.GLTFExporter"},"scenes":[{"nodes":[0]}],"scene":0,"nodes":[{"matrix":[0.009999999776482582,0,0,0,0,-1.3435885354592524e-9,0.009999999434197103,0,0,-0.009999999434197103,-1.3435885354592524e-9,0,-0.0000152587890625,0.0002145460748579353,0.00019326459732837975,1],"name":"网格.065_1","mesh":0}],"bufferViews":[{"buffer":0,"byteOffset":0,"byteLength":5184,"target":34962,"byteStride":12},{"buffer":0,"byteOffset":5184,"byteLength":5184,"target":34962,"byteStride":12},{"buffer":0,"byteOffset":10368,"byteLength":3456,"target":34962,"byteStride":8},{"buffer":0,"byteOffset":13824,"byteLength":1608,"target":34963}],"buffers":[{"byteLength":15432,"uri":"data:application/octet-stream;base64,"}],"accessors":[{"bufferView":0,"componentType":5126,"count":432,"max":[16916.333984375,19084.669921875,-13.86163330078125],"min":[11839.681640625,16284.6943359375,-3008.12548828125],"type":"VEC3"},{"bufferView":1,"componentType":5126,"count":432,"max":[0.9771102070808411,0.977110743522644,1],"min":[-0.9771115183830261,-0.9771124720573425,-1],"type":"VEC3"},{"bufferView":2,"componentType":5126,"count":432,"max":[1.0849007368087769,0.9946109652519226],"min":[-0.1019953191280365,0.0003980398178100586],"type":"VEC2"},{"bufferView":3,"componentType":5123,"count":804,"max":[431],"min":[0],"type":"SCALAR"}],"materials":[{"pbrMetallicRoughness":{"baseColorFactor":[0.5607843137254902,0.5490196078431373,0.5450980392156862,1],"metallicFactor":0,"roughnessFactor":1}}],"meshes":[{"primitives":[{"mode":4,"attributes":{"POSITION":0,"NORMAL":1,"TEXCOORD_0":2},"indices":3,"material":0}]}]}