{"asset":{"version":"2.0","generator":"THREE.GLTFExporter"},"scenes":[{"nodes":[0]}],"scene":0,"nodes":[{"matrix":[0.009999999776482582,0,0,0,0,-1.3435885354592524e-9,0.009999999434197103,0,0,-0.009999999434197103,-1.3435885354592524e-9,0,-0.000225067138671875,-0.00007376463327091187,0.00003132781421300024,1],"name":"网格.045_1","mesh":0}],"bufferViews":[{"buffer":0,"byteOffset":0,"byteLength":4416,"target":34962,"byteStride":12},{"buffer":0,"byteOffset":4416,"byteLength":4416,"target":34962,"byteStride":12},{"buffer":0,"byteOffset":8832,"byteLength":2944,"target":34962,"byteStride":8},{"buffer":0,"byteOffset":11776,"byteLength":1872,"target":34963}],"buffers":[{"byteLength":13648,"uri":"data:application/octet-stream;base64,"}],"accessors":[{"bufferView":0,"componentType":5126,"count":368,"max":[4647.8173828125,35977.5,838.2744140625],"min":[4305.0595703125,35465.9921875,505.69647216796875],"type":"VEC3"},{"bufferView":1,"componentType":5126,"count":368,"max":[0.9987758994102478,1,1],"min":[-1,-1,-1],"type":"VEC3"},{"bufferView":2,"componentType":5126,"count":368,"max":[13.584942817687988,8.647872924804688],"min":[-12.584944725036621,-7.345288276672363],"type":"VEC2"},{"bufferView":3,"componentType":5123,"count":936,"max":[367],"min":[0],"type":"SCALAR"}],"materials":[{"pbrMetallicRoughness":{"baseColorFactor":[0.788235294117647,0.788235294117647,0.788235294117647,1],"metallicFactor":0,"roughnessFactor":1}}],"meshes":[{"primitives":[{"mode":4,"attributes":{"POSITION":0,"NORMAL":1,"TEXCOORD_0":2},"indices":3,"material":0}]}]}