{"asset":{"version":"2.0","generator":"THREE.GLTFExporter"},"scenes":[{"nodes":[0]}],"scene":0,"nodes":[{"matrix":[0.009999999776482582,0,0,0,0,-1.3435885354592524e-9,0.009999999434197103,0,0,-0.009999999434197103,-1.3435885354592524e-9,0,0.000118255615234375,0.00006146880332380533,0,1],"name":"室内-二层-指示牌01","extras":{"name":"室内-二层-指示牌01"},"mesh":0}],"bufferViews":[{"buffer":0,"byteOffset":0,"byteLength":40680,"target":34962,"byteStride":12},{"buffer":0,"byteOffset":40680,"byteLength":40680,"target":34962,"byteStride":12},{"buffer":0,"byteOffset":81360,"byteLength":27120,"target":34962,"byteStride":8},{"buffer":0,"byteOffset":108480,"byteLength":7560,"target":34963}],"buffers":[{"byteLength":116040,"uri":"data:application/octet-stream;base64,"}],"accessors":[{"bufferView":0,"componentType":5126,"count":3390,"max":[6096.025390625,39999.00390625,568.4541625976562],"min":[4146.138671875,16328.5341796875,5.18426513671875],"type":"VEC3"},{"bufferView":1,"componentType":5126,"count":3390,"max":[1,1,1],"min":[-1,-1,-1],"type":"VEC3"},{"bufferView":2,"componentType":5126,"count":3390,"max":[0.9911212921142578,0.9826343655586243],"min":[0.010629846714437008,0.007012128829956055],"type":"VEC2"},{"bufferView":3,"componentType":5123,"count":3780,"max":[3389],"min":[0],"type":"SCALAR"}],"materials":[{"pbrMetallicRoughness":{"baseColorFactor":[0.16862745098039217,0.2,0.17254901960784313,1],"metallicFactor":0,"roughnessFactor":1}}],"meshes":[{"primitives":[{"mode":4,"attributes":{"POSITION":0,"NORMAL":1,"TEXCOORD_0":2},"indices":3,"material":0}]}]}