{"asset":{"version":"2.0","generator":"THREE.GLTFExporter"},"scenes":[{"nodes":[0]}],"scene":0,"nodes":[{"matrix":[0.009999999776482582,0,0,0,0,-1.3435885354592524e-9,0.009999999434197103,0,0,-0.009999999434197103,-1.3435885354592524e-9,0,-0.000213623046875,0.00012363967834971845,0.0001959400688065216,1],"name":"网格.058_1","mesh":0}],"bufferViews":[{"buffer":0,"byteOffset":0,"byteLength":1788,"target":34962,"byteStride":12},{"buffer":0,"byteOffset":1788,"byteLength":1788,"target":34962,"byteStride":12},{"buffer":0,"byteOffset":3576,"byteLength":1192,"target":34962,"byteStride":8},{"buffer":0,"byteOffset":4768,"byteLength":440,"target":34963}],"buffers":[{"byteLength":5208,"uri":"data:application/octet-stream;base64,"}],"accessors":[{"bufferView":0,"componentType":5126,"count":149,"max":[22830.13671875,22419.619140625,-13.86199951171875],"min":[17537.931640625,18541.7421875,-361.5695495605469],"type":"VEC3"},{"bufferView":1,"componentType":5126,"count":149,"max":[0.9979521036148071,0.9819403886795044,0.000006143370683275862],"min":[-0.9817359447479248,-0.9820259809494019,-1],"type":"VEC3"},{"bufferView":2,"componentType":5126,"count":149,"max":[0.997346043586731,0.6017149686813354],"min":[0.004053235054016113,0.001010894775390625],"type":"VEC2"},{"bufferView":3,"componentType":5123,"count":219,"max":[148],"min":[0],"type":"SCALAR"}],"materials":[{"pbrMetallicRoughness":{"baseColorFactor":[0.47058823529411764,0.44313725490196076,0.4235294117647059,1],"metallicFactor":0,"roughnessFactor":1}}],"meshes":[{"primitives":[{"mode":4,"attributes":{"POSITION":0,"NORMAL":1,"TEXCOORD_0":2},"indices":3,"material":0}]}]}