{"asset":{"version":"2.0","generator":"THREE.GLTFExporter"},"scenes":[{"nodes":[0]}],"scene":0,"nodes":[{"matrix":[0.009999999776482582,0,0,0,0,-1.3435885354592524e-9,0.009999999434197103,0,0,-0.009999999434197103,-1.3435885354592524e-9,0,0,0.000021361116523621604,0.00003060508242924698,1],"name":"网格.019_2","mesh":0}],"bufferViews":[{"buffer":0,"byteOffset":0,"byteLength":10056,"target":34962,"byteStride":12},{"buffer":0,"byteOffset":10056,"byteLength":10056,"target":34962,"byteStride":12},{"buffer":0,"byteOffset":20112,"byteLength":6704,"target":34962,"byteStride":8},{"buffer":0,"byteOffset":26816,"byteLength":1728,"target":34963}],"buffers":[{"byteLength":28544,"uri":"data:application/octet-stream;base64,"}],"accessors":[{"bufferView":0,"componentType":5126,"count":838,"max":[4405.60693359375,33587.30859375,369.2030334472656],"min":[4102.14453125,32420.6171875,-115.252197265625],"type":"VEC3"},{"bufferView":1,"componentType":5126,"count":838,"max":[1.0000001192092896,0.9999999403953552,0.003506961278617382],"min":[-1.0000001192092896,-0.0011873573530465364,-1],"type":"VEC3"},{"bufferView":2,"componentType":5126,"count":838,"max":[2.325881242752075,2.5684807300567627],"min":[-1.4238941669464111,-0.37871479988098145],"type":"VEC2"},{"bufferView":3,"componentType":5123,"count":864,"max":[837],"min":[0],"type":"SCALAR"}],"materials":[{"pbrMetallicRoughness":{"baseColorFactor":[0.49411764705882355,0.5137254901960784,0.5254901960784314,1],"metallicFactor":0,"roughnessFactor":1}}],"meshes":[{"primitives":[{"mode":4,"attributes":{"POSITION":0,"NORMAL":1,"TEXCOORD_0":2},"indices":3,"material":0}]}]}