{"asset":{"version":"2.0","generator":"THREE.GLTFExporter"},"scenes":[{"nodes":[0]}],"scene":0,"nodes":[{"matrix":[0.009999999776482582,0,0,0,0,-1.3435885354592524e-9,0.009999999434197103,0,0,-0.009999999434197103,-1.3435885354592524e-9,0,-0.000217437744140625,-0.00009052271343534812,-0.00001444855206500506,1],"name":"网格.046_2","mesh":0}],"bufferViews":[{"buffer":0,"byteOffset":0,"byteLength":3192,"target":34962,"byteStride":12},{"buffer":0,"byteOffset":3192,"byteLength":3192,"target":34962,"byteStride":12},{"buffer":0,"byteOffset":6384,"byteLength":2128,"target":34962,"byteStride":8},{"buffer":0,"byteOffset":8512,"byteLength":864,"target":34963}],"buffers":[{"byteLength":9376,"uri":"data:application/octet-stream;base64,"}],"accessors":[{"bufferView":0,"componentType":5126,"count":266,"max":[5815.05810546875,21874.5,647.629638671875],"min":[5548.169921875,21453.58984375,605.5009155273438],"type":"VEC3"},{"bufferView":1,"componentType":5126,"count":266,"max":[0.9987912774085999,1.0000001192092896,1],"min":[-0.998790979385376,-1.0000001192092896,-1],"type":"VEC3"},{"bufferView":2,"componentType":5126,"count":266,"max":[0.9210508465766907,0.5872998237609863],"min":[0.19759225845336914,0.48325031995773315],"type":"VEC2"},{"bufferView":3,"componentType":5123,"count":432,"max":[265],"min":[0],"type":"SCALAR"}],"materials":[{"pbrMetallicRoughness":{"baseColorFactor":[0.4000000059604645,0.4000000059604645,0.4000000059604645,1],"metallicFactor":1,"roughnessFactor":0.7487671971321106},"doubleSided":true,"name":"bolo"}],"meshes":[{"primitives":[{"mode":4,"attributes":{"POSITION":0,"NORMAL":1,"TEXCOORD_0":2},"indices":3,"material":0}]}]}