{"asset":{"version":"2.0","generator":"THREE.GLTFExporter"},"scenes":[{"nodes":[0]}],"scene":0,"nodes":[{"matrix":[0.009999999776482582,0,0,0,0,-1.3435885354592524e-9,0.009999999434197103,0,0,-0.009999999434197103,-1.3435885354592524e-9,0,-0.0000152587890625,0.0002145460748579353,0.00019326459732837975,1],"name":"网格065","mesh":0}],"bufferViews":[{"buffer":0,"byteOffset":0,"byteLength":2724,"target":34962,"byteStride":12},{"buffer":0,"byteOffset":2724,"byteLength":2724,"target":34962,"byteStride":12},{"buffer":0,"byteOffset":5448,"byteLength":1816,"target":34962,"byteStride":8},{"buffer":0,"byteOffset":7264,"byteLength":840,"target":34963}],"buffers":[{"byteLength":8104,"uri":"data:application/octet-stream;base64,"}],"accessors":[{"bufferView":0,"componentType":5126,"count":227,"max":[24663.078125,19582.19921875,-13.86212158203125],"min":[10568.9580078125,13879.2421875,-3246.651123046875],"type":"VEC3"},{"bufferView":1,"componentType":5126,"count":227,"max":[0.9997756481170654,0.9776801466941833,0],"min":[-0.9997756481170654,-0.9774109125137329,-1],"type":"VEC3"},{"bufferView":2,"componentType":5126,"count":227,"max":[0.9980878829956055,0.9978872537612915],"min":[0.00040537118911743164,0.11639010906219482],"type":"VEC2"},{"bufferView":3,"componentType":5123,"count":420,"max":[226],"min":[0],"type":"SCALAR"}],"materials":[{"pbrMetallicRoughness":{"baseColorFactor":[0.48627450980392156,0.4588235294117647,0.4,1],"metallicFactor":0,"roughnessFactor":1}}],"meshes":[{"primitives":[{"mode":4,"attributes":{"POSITION":0,"NORMAL":1,"TEXCOORD_0":2},"indices":3,"material":0}]}]}