{"asset":{"version":"2.0","generator":"THREE.GLTFExporter"},"scenes":[{"nodes":[0]}],"scene":0,"nodes":[{"matrix":[0.009999999776482582,0,0,0,0,-1.3435885354592524e-9,0.009999999434197103,0,0,-0.009999999434197103,-1.3435885354592524e-9,0,0.00054931640625,0.000059214125940343365,-0.000462955329567194,1],"name":"网格.050_1","mesh":0}],"bufferViews":[{"buffer":0,"byteOffset":0,"byteLength":3096,"target":34962,"byteStride":12},{"buffer":0,"byteOffset":3096,"byteLength":3096,"target":34962,"byteStride":12},{"buffer":0,"byteOffset":6192,"byteLength":2064,"target":34962,"byteStride":8},{"buffer":0,"byteOffset":8256,"byteLength":888,"target":34963}],"buffers":[{"byteLength":9144,"uri":"data:application/octet-stream;base64,"}],"accessors":[{"bufferView":0,"componentType":5126,"count":258,"max":[46486.98046875,18169.01171875,-13.862060546875],"min":[43035.93359375,15332.5263671875,-6874.4306640625],"type":"VEC3"},{"bufferView":1,"componentType":5126,"count":258,"max":[0.9903309345245361,0.9760897755622864,1],"min":[-0.9921857714653015,-0.9760923981666565,-1],"type":"VEC3"},{"bufferView":2,"componentType":5126,"count":258,"max":[0.9974783658981323,1.000312328338623],"min":[0.00803912803530693,-0.000012636184692382812],"type":"VEC2"},{"bufferView":3,"componentType":5123,"count":444,"max":[257],"min":[0],"type":"SCALAR"}],"materials":[{"pbrMetallicRoughness":{"baseColorFactor":[0.6823529411764706,0.6901960784313725,0.6509803921568628,1],"metallicFactor":0,"roughnessFactor":1}}],"meshes":[{"primitives":[{"mode":4,"attributes":{"POSITION":0,"NORMAL":1,"TEXCOORD_0":2},"indices":3,"material":0}]}]}