{"asset":{"version":"2.0","generator":"THREE.GLTFExporter"},"scenes":[{"nodes":[0]}],"scene":0,"nodes":[{"matrix":[0.009999999776482582,0,0,0,0,-1.3435885354592524e-9,0.009999999434197103,0,0,-0.009999999434197103,-1.3435885354592524e-9,0,0.00000762939453125,-0.0000629099813522771,0,1],"name":"网格.014_2","mesh":0}],"bufferViews":[{"buffer":0,"byteOffset":0,"byteLength":20736,"target":34962,"byteStride":12},{"buffer":0,"byteOffset":20736,"byteLength":20736,"target":34962,"byteStride":12},{"buffer":0,"byteOffset":41472,"byteLength":13824,"target":34962,"byteStride":8},{"buffer":0,"byteOffset":55296,"byteLength":4896,"target":34963}],"buffers":[{"byteLength":60192,"uri":"data:application/octet-stream;base64,"}],"accessors":[{"bufferView":0,"componentType":5126,"count":1728,"max":[5354.447265625,20308.21484375,832.07861328125],"min":[4886.486328125,18921.89453125,262.665283203125],"type":"VEC3"},{"bufferView":1,"componentType":5126,"count":1728,"max":[1,0.011625273153185844,0.005774260498583317],"min":[-1,-0.0120686711743474,-0.003910038620233536],"type":"VEC3"},{"bufferView":2,"componentType":5126,"count":1728,"max":[0.9999998807907104,0.6836989521980286],"min":[1.1920928955078125e-7,0.20333528518676758],"type":"VEC2"},{"bufferView":3,"componentType":5123,"count":2448,"max":[1727],"min":[0],"type":"SCALAR"}],"materials":[{"pbrMetallicRoughness":{"baseColorFactor":[0.4000000059604645,0.4000000059604645,0.4000000059604645,1],"metallicFactor":1,"roughnessFactor":0.7487671971321106},"doubleSided":true,"name":"DianTi_12_blinn15"}],"meshes":[{"primitives":[{"mode":4,"attributes":{"POSITION":0,"NORMAL":1,"TEXCOORD_0":2},"indices":3,"material":0}]}]}